<svg width="160" height="64" fill="none" xmlns="http://www.w3.org/2000/svg"><g clip-path="url(#clip0)"><path d="M131.754 18.188l-33.471 19L65.187 18 98.66-1l33.095 19.188z" fill="currentColor" stroke="#F8F8F8" stroke-width="2" stroke-linejoin="round"/><path d="M98.472 75L65 56l.188-38 33.284 19" fill="currentColor"/><path d="M98.472 75L65 56l.188-38 33.284 19" stroke="#F8F8F8" stroke-width="2" stroke-linejoin="round"/><path d="M131.944 56L98.473 75V37.186l33.283-19L131.944 56zM79.85 47.192l-26.5 15.042-26.202-15.191L53.648 32l26.203 15.192z" fill="currentColor" stroke="#F8F8F8" stroke-width="2" stroke-linejoin="round"/><path d="M53.5 92.17L27 77.129l.149-30.085L53.5 62.086" fill="currentColor"/><path d="M53.5 92.17L27 77.129l.149-30.085L53.5 62.086" stroke="#F8F8F8" stroke-width="2" stroke-linejoin="round"/><path d="M80 77.124L53.5 92.167V62.23l26.351-15.042.15 29.936z" fill="currentColor" stroke="#F8F8F8" stroke-width="2" stroke-linejoin="round"/></g><defs><clipPath id="clip0"><path fill="#fff" d="M0 0h160v64H0z"/></clipPath></defs></svg>