<svg width="160" height="64" fill="none" xmlns="http://www.w3.org/2000/svg"><g clip-path="url(#clip0)"><rect x="12.74" y="30.043" width="54.957" height="54.957" rx="14.655" fill="currentColor"/><g clip-path="url(#clip1)"><path d="M48.49 48.257l2.81-4.973a.59.59 0 00-.206-.795.557.557 0 00-.774.211l-2.847 5.037c-2.171-1.013-4.616-1.578-7.244-1.578-2.63 0-5.073.565-7.245 1.578L30.138 42.7a.56.56 0 00-.778-.21.587.587 0 00-.207.794l2.81 4.973c-4.845 2.682-8.126 7.693-8.668 13.558h33.867c-.541-5.866-3.823-10.876-8.671-13.558zm-16.037 8.698c-.785 0-1.42-.651-1.42-1.45 0-.803.639-1.45 1.42-1.45.785 0 1.42.651 1.42 1.45.003.799-.635 1.45-1.42 1.45zm15.548 0c-.786 0-1.42-.651-1.42-1.45 0-.803.638-1.45 1.42-1.45.785 0 1.419.651 1.419 1.45.004.799-.634 1.45-1.42 1.45z" fill="#F8F8F8"/></g><path d="M126.9 7.322c-.516-1.358-1.753-3.266-3.506-4.624-1.031-.773-2.2-1.53-3.85-2.01C117.756.171 115.556 0 112.875 0h-24.75c-2.698 0-4.881.172-6.652.705a11.647 11.647 0 00-3.867 2.01c-1.753 1.341-2.99 3.266-3.523 4.624C73.017 10.072 73 13.166 73 15.125v24.75c0 1.96.017 5.053 1.083 7.803.533 1.358 1.77 3.266 3.523 4.624 1.014.773 2.217 1.53 3.867 2.01 1.77.516 3.954.688 6.652.688h24.75c2.698 0 4.881-.172 6.652-.705a11.647 11.647 0 003.867-2.01c1.753-1.341 2.99-3.266 3.523-4.624C128 44.928 128 41.817 128 39.858v-24.75c0-1.96-.017-5.053-1.083-7.803l-.017.017zm-43.003 30.49h-2.045v-12.22h2.045v12.22zM82.883 23.53a1.28 1.28 0 01-1.272-1.272c0-.705.567-1.272 1.272-1.272.705 0 1.289.567 1.289 1.272a1.295 1.295 0 01-1.29 1.272zm12.289 14.592c-5.397 0-8.8-3.85-8.8-9.986 0-6.136 3.403-10.003 8.8-10.003s8.8 3.867 8.8 10.003-3.403 9.986-8.8 9.986zm17.806 0c-4.056 0-6.909-2.234-7.098-5.569h1.839c.206 2.32 2.389 3.902 5.431 3.902 2.905 0 4.984-1.582 4.984-3.764 0-1.805-1.254-2.888-4.125-3.61l-2.406-.619c-3.592-.91-5.191-2.423-5.191-4.984 0-3.128 2.819-5.362 6.635-5.362 3.781 0 6.531 2.234 6.651 5.31h-1.839c-.171-2.182-2.114-3.643-4.864-3.643-2.681 0-4.675 1.495-4.675 3.626 0 1.668 1.203 2.647 4.057 3.37l2.096.532c3.902.98 5.535 2.475 5.535 5.173 0 3.404-2.733 5.638-7.03 5.638zm-10.88-9.986c0 5.07-2.68 8.284-6.926 8.284-4.245 0-6.91-3.214-6.91-8.284 0-5.088 2.665-8.302 6.91-8.302s6.926 3.214 6.926 8.302z" fill="currentColor"/></g><defs><clipPath id="clip0"><path fill="#fff" d="M0 0h160v64H0z"/></clipPath><clipPath id="clip1"><path fill="#fff" transform="translate(23.273 42.406)" d="M0 0h33.89v30.226H0z"/></clipPath></defs></svg>