<svg width="92" height="92" fill="none" xmlns="http://www.w3.org/2000/svg"><path d="M0 46C0 20.595 20.595 0 46 0s46 20.595 46 46-20.595 46-46 46S0 71.405 0 46z" fill="#FFD7F6"/><path d="M35.635 74.786l-4.191 8.234-2.695-1.371c-1.323-.653-2.212-1.582-2.667-2.787-.459-1.197-.373-2.394.258-3.592.593-1.206 1.519-1.986 2.778-2.34 1.259-.355 2.533-.193 3.822.484l2.695 1.372zm-2.46.665l-.997-.508c-.832-.424-1.622-.528-2.371-.312-.753.224-1.33.732-1.733 1.522-.406.798-.476 1.553-.21 2.265.266.711.823 1.283 1.672 1.715l.998.508 2.642-5.19zm-6.499-5.902l-5.965 7.056-1.444-1.22 5.966-7.056 1.443 1.22zm-13.362-.722l-1.32-1.67 9.933-2.606.39.494L17.5 74.12l-1.328-1.68 2.96-5.285-5.817 1.672zm5.485-8.417l-8.483 3.663-2.465-5.706 1.568-.677 1.715 3.971 1.723-.743L11.597 58l1.478-.638 1.26 2.917 2.146-.926-1.781-4.126 1.568-.677 2.53 5.86zm-4.017-15.58l.278 2.11-2.922 2.799.181 1.374 3.234-.426.247 1.874-9.16 1.207-.454-3.443c-.127-.962.042-1.79.506-2.481.465-.692 1.136-1.096 2.015-1.212.574-.075 1.111 0 1.611.226.49.218.894.565 1.21 1.04l3.254-3.069zm-6.738 6.846l2.624-.345-.207-1.569c-.057-.435-.222-.757-.494-.966-.274-.218-.61-.3-1.007-.248-.389.051-.687.222-.893.513-.208.281-.284.63-.23 1.047l.207 1.568zm5.002-6.824l-.78-1.43c.982-.516 1.536-1.2 1.66-2.049.06-.406.02-.737-.121-.994a.917.917 0 00-.697-.456c-.259-.039-.469.01-.63.147-.171.135-.397.418-.677.849l-.589.918c-.873 1.38-1.859 1.99-2.958 1.828-.775-.115-1.357-.493-1.743-1.135-.396-.643-.529-1.403-.4-2.28.101-.684.346-1.26.737-1.731a3.3 3.3 0 011.44-1.033l.795 1.419c-.771.367-1.208.897-1.31 1.59-.049.332-.01.616.115.852a.773.773 0 00.604.414.777.777 0 00.6-.138c.162-.136.366-.394.61-.773l.61-.972c.467-.733.934-1.249 1.403-1.548.46-.3.994-.405 1.603-.315.822.12 1.443.519 1.862 1.194.41.674.546 1.477.409 2.41a4.098 4.098 0 01-.846 1.997 4.044 4.044 0 01-1.697 1.236zm3.407-8.522L7.97 32.669l2.464-5.707 1.568.677-1.715 3.972 1.723.743 1.26-2.917 1.478.638-1.26 2.918 2.146.927 1.782-4.126 1.568.677-2.53 5.86zm1.797-13.1c-.923-.952-1.352-2.106-1.286-3.465.06-1.364.588-2.498 1.585-3.4.638-.602 1.356-.997 2.154-1.185a4.374 4.374 0 012.385.06l-.347 1.713c-1.193-.3-2.19-.07-2.991.685-.625.59-.946 1.29-.963 2.101-.01.805.286 1.527.888 2.165.602.639 1.302.972 2.1 1.002.805.024 1.52-.26 2.144-.849.802-.755 1.087-1.737.859-2.946l1.73-.247a4.374 4.374 0 01-.06 2.386c-.247.785-.693 1.481-1.338 2.09-.965.949-2.127 1.417-3.487 1.404-1.36-.026-2.484-.531-3.373-1.514zm10.46-3.323l-3.913-8.37 1.712-.8 1.5 3.208 3.703-1.732-1.5-3.208 1.712-.8 3.914 8.37-1.712.8-1.69-3.614-3.703 1.731 1.69 3.615-1.712.8zm14.273-4.691l-.688-1.116-3.74.551-.336 1.267-2.008.296 2.713-9.91.624-.092 5.444 8.707-2.009.296zm-1.565-2.557l-1.674-2.91-.764 3.269 2.438-.36zm13.066 3.391l-2.11-.279-1.947-3.547-1.374-.18-.426 3.233-1.874-.246L47.96 5.87l3.442.453c.963.127 1.718.504 2.266 1.132.548.627.764 1.38.648 2.26a2.916 2.916 0 01-.635 1.498 2.81 2.81 0 01-1.319.9l2.122 3.936zm-4.868-8.282l-.345 2.624 1.568.206c.435.058.788-.018 1.06-.227.282-.208.45-.51.502-.908.051-.39-.037-.72-.265-.995-.218-.274-.535-.438-.951-.493l-1.569-.207zm7.231 9.502l2.882-6.96L57 9.18l.654-1.578 7.217 2.99-.653 1.578-2.742-1.136-2.883 6.959-1.746-.723zm9.07 5.584l5.089-5.553-2.178-1.996 1.154-1.26 5.76 5.278-1.154 1.26-2.189-2.006-5.088 5.553-1.394-1.276zm15.155 4.296l-6.424.443-3.034 2.01-1.044-1.576 3.023-2.002 2.918-5.761 1.16 1.75-1.93 3.73 4.18-.333 1.151 1.739zm-7.445 5.932l8.767-2.918 1.096 3.294c.307.921.298 1.765-.027 2.532-.325.768-.908 1.291-1.75 1.572-.832.277-1.613.207-2.341-.21-.73-.416-1.247-1.085-1.554-2.006l-.5-1.5-3.094 1.03-.597-1.794zm5.26.242l.499 1.5c.138.417.361.702.668.855.319.16.668.176 1.05.05.371-.124.631-.349.779-.673.15-.316.16-.673.027-1.072l-.5-1.5-2.524.84zm-2.971 7.472l9.223-.57.383 6.204-1.705.105-.266-4.318-1.873.116.196 3.172-1.607.1-.196-3.172-2.333.144.277 4.485-1.705.105-.394-6.371zm-3.696 8.352c-1.361-3.214-3.27-4.984-5.374-4.984-2.104 0-4.013 1.77-5.373 4.984-1.253 2.958-1.943 6.87-1.943 11.016s.69 8.058 1.943 11.016c1.36 3.214 3.269 4.984 5.373 4.984s4.013-1.77 5.374-4.984c1.252-2.958 1.942-6.87 1.942-11.016s-.69-8.058-1.942-11.016zm-5.374 25.141c-1.284 0-2.613-1.4-3.647-3.84-.802-1.895-1.355-4.234-1.618-6.792.578.325 1.244.51 1.953.51a4.008 4.008 0 004.003-4.003 4.008 4.008 0 00-4.003-4.003c-.709 0-1.375.185-1.953.51.66-6.41 3.07-10.632 5.265-10.632 1.284 0 2.614 1.4 3.647 3.84 1.157 2.732 1.794 6.384 1.794 10.285 0 8.324-2.867 14.125-5.44 14.125zm-5.44-14.125a2.13 2.13 0 012.128-2.128 2.13 2.13 0 012.128 2.128 2.13 2.13 0 01-2.128 2.128 2.13 2.13 0 01-2.129-2.128zm-11.928-16c-2.104 0-4.013 1.77-5.373 4.984-1.253 2.958-1.943 6.87-1.943 11.016s.69 8.058 1.943 11.016c1.36 3.214 3.269 4.984 5.373 4.984s4.013-1.77 5.374-4.984c1.252-2.958 1.942-6.87 1.942-11.016s-.69-8.058-1.942-11.016c-1.361-3.214-3.27-4.984-5.374-4.984zm0 30.125c-1.284 0-2.614-1.4-3.647-3.84-.803-1.895-1.355-4.234-1.618-6.792.578.325 1.244.51 1.953.51a4.008 4.008 0 004.003-4.003 4.008 4.008 0 00-4.003-4.003c-.71 0-1.375.185-1.953.51.66-6.41 3.07-10.632 5.265-10.632 1.284 0 2.614 1.4 3.647 3.84 1.157 2.732 1.794 6.384 1.794 10.285 0 8.324-2.867 14.125-5.441 14.125zm-5.44-14.125a2.13 2.13 0 012.128-2.128 2.13 2.13 0 012.128 2.128 2.13 2.13 0 01-2.128 2.128 2.13 2.13 0 01-2.129-2.128z" fill="#FF7CE2"/></svg>