<svg width="104" height="104" fill="none" xmlns="http://www.w3.org/2000/svg"><path d="M60.706 1.613a1.504 1.504 0 012.208.444l4.565 7.859c.346.595 1.052.879 1.713.69l8.74-2.494a1.504 1.504 0 011.898 1.211L81.25 18.3c.107.68.662 1.2 1.348 1.263l9.05.831a1.504 1.504 0 011.333 1.816l-1.92 8.883a1.504 1.504 0 00.8 1.665l8.14 4.044a1.503 1.503 0 01.586 2.174l-5 7.59a1.504 1.504 0 00.146 1.841l6.128 6.712a1.504 1.504 0 01-.238 2.239l-7.404 5.272c-.56.399-.779 1.127-.53 1.769l3.29 8.472a1.504 1.504 0 01-1.03 2.002l-8.808 2.24c-.667.17-1.134.771-1.133 1.46l.007 9.088c0 .903-.788 1.603-1.685 1.494l-9.022-1.092a1.504 1.504 0 00-1.584.951l-3.276 8.478a1.504 1.504 0 01-2.11.784l-8.02-4.278a1.504 1.504 0 00-1.82.315l-6.117 6.722a1.504 1.504 0 01-2.252-.031l-5.932-6.886a1.504 1.504 0 00-1.81-.364l-8.133 4.058a1.504 1.504 0 01-2.088-.842l-3.044-8.564a1.504 1.504 0 00-1.557-.993l-9.05.846a1.504 1.504 0 01-1.643-1.54l.255-9.085a1.504 1.504 0 00-1.093-1.489l-8.743-2.48a1.504 1.504 0 01-.976-2.03l3.52-8.379a1.504 1.504 0 00-.482-1.783l-7.257-5.471a1.504 1.504 0 01-.177-2.245l6.309-6.542a1.504 1.504 0 00.195-1.837l-4.79-7.723a1.504 1.504 0 01.645-2.157l8.246-3.821c.625-.29.973-.966.846-1.642l-1.677-8.933a1.504 1.504 0 011.38-1.778l9.07-.585a1.504 1.504 0 001.383-1.225l1.662-8.935a1.504 1.504 0 011.93-1.16l8.67 2.732a1.504 1.504 0 001.73-.644l4.779-7.73a1.504 1.504 0 012.218-.384l7.097 5.678c.537.43 1.298.44 1.847.025l7.248-5.483z" fill="#D9FCEC"/><g clip-path="url(#clip0)" fill="#07C26F"><path d="M39.823 50.656a2.627 2.627 0 01-.582-1.94 2.627 2.627 0 01.96-1.782c.28-.227.592-.388.918-.484l-.97-1.186a2.626 2.626 0 01-.585-1.94 2.626 2.626 0 01.961-1.784l.03-.025a2.627 2.627 0 011.43-.582 2.626 2.626 0 01.965-2.279l.038-.03a2.627 2.627 0 011.938-.58c.474.048.917.22 1.291.494.166-.338.404-.639.704-.884l.025-.02a2.647 2.647 0 013.72.38l6.309 7.747-.505-3.694a2.889 2.889 0 014.498-2.776 2.892 2.892 0 011.235 2.031l.067.537c.316 2.567 1.005 5.184 2.047 7.779.78 1.944.93 4.14.419 6.182a9.953 9.953 0 01-3.397 5.34 9.969 9.969 0 01-7.36 2.202h-.006a9.971 9.971 0 01-6.764-3.657l-1.805-2.223-5.581-6.826zm8.648 8.025a8.357 8.357 0 005.668 3.064h.006a8.356 8.356 0 006.168-1.845 8.34 8.34 0 002.847-4.474 8.485 8.485 0 00-.35-5.183c-1.095-2.725-1.82-5.48-2.153-8.185l-.066-.537a1.25 1.25 0 00-.541-.89 1.265 1.265 0 00-1.97 1.216l.896 6.559c.116.678-.809 1.326-1.435.623l-8.135-9.989a1.02 1.02 0 00-1.433-.147l-.025.02a1.013 1.013 0 00-.37.687c-.028.27.051.536.223.747l5 6.138a.812.812 0 01-1.26 1.026l-6.094-7.481a1.012 1.012 0 00-.686-.37 1.012 1.012 0 00-.747.224l-.038.03a1.013 1.013 0 00-.37.688c-.028.271.052.537.225.748l6.11 7.472a.812.812 0 01-1.257 1.028c-1.211-1.48-4.51-5.516-5.67-6.93a1.021 1.021 0 00-1.432-.146l-.031.026a1.012 1.012 0 00-.37.687c-.028.271.052.537.225.748l6.311 7.719a.812.812 0 01-1.258 1.028l-3.328-4.07-.473-.576a1.021 1.021 0 00-1.801.545c-.028.27.052.536.224.747l5.582 6.828 1.808 2.225zM40.227 56.366a.812.812 0 111.55-.484c.207.66.536 1.27.977 1.813a5.387 5.387 0 001.978 1.524.812.812 0 11-.668 1.48 7 7 0 01-2.57-1.978 7.036 7.036 0 01-1.267-2.355zM38.046 56.591a.812.812 0 011.018.533c.288.92.745 1.768 1.36 2.522a7.514 7.514 0 002.6 2.051.812.812 0 01-.7 1.466 9.127 9.127 0 01-3.16-2.491 9.161 9.161 0 01-1.65-3.063.812.812 0 01.532-1.018z"/></g><path d="M29.473 38.337l3.812-5.12-1.37-1.02-2.683 3.605-1.876-1.396 1.898-2.55-1.292-.961-1.897 2.55-1.505-1.12 2.583-3.471-1.37-1.02-3.712 4.987 7.412 5.517zM39.29 28.648l1.684-1.133-8.668-5.507-.522.351L33.61 32.47l1.684-1.133-.243-1.288 3.136-2.11 1.102.71zm-2.516-1.631l-2.044 1.375-.721-3.277 2.765 1.902zM44.831 26.47c1.769-.487 2.84-1.87 2.383-3.53-.349-1.27-1.342-1.766-2.917-2l-1.134-.168c-.73-.119-1.181-.227-1.322-.74-.163-.594.275-1.005.87-1.168.728-.2 1.372.029 1.982.558l.978-1.3c-.793-.827-1.99-1.268-3.406-.878-1.674.46-2.686 1.799-2.262 3.337.352 1.283 1.484 1.755 2.865 1.971l1.077.168c.791.131 1.279.215 1.438.795.171.621-.214 1.12-.997 1.335-1.067.293-1.872-.153-2.544-.695l-.995 1.29c.988 1.007 2.445 1.448 3.984 1.025zM58.67 16.212l-2.083-.113-2.225 3.553-1.843-3.773-2.097-.113 2.884 5.778-.195 3.62 1.887.103.196-3.635 3.476-5.42zM64.83 28.176l1.613.985 3.926-6.428 2.533 1.547.89-1.458-6.666-4.072-.89 1.458 2.52 1.54-3.926 6.428zM73.125 35.408c1.685 2.13 4.682 2.58 6.813.896 2.13-1.685 2.384-4.705.699-6.836-1.684-2.13-4.664-2.558-6.795-.874-2.13 1.685-2.401 4.683-.717 6.814zm1.382-1.075c-1.068-1.35-.864-3.1.542-4.212 1.395-1.103 3.156-.907 4.224.444 1.05 1.329.852 3.11-.542 4.212-1.406 1.112-3.174.885-4.224-.444zM17.336 57.41c.346 1.89 1.691 3.135 3.465 2.81 1.356-.247 1.965-1.238 2.355-2.86l.278-1.169c.19-.75.345-1.21.893-1.31.635-.117 1.023.379 1.14 1.013.142.78-.156 1.43-.764 2.018l1.266 1.14c.936-.752 1.505-1.96 1.229-3.474-.328-1.789-1.631-2.967-3.276-2.666-1.37.25-1.967 1.388-2.318 2.809l-.275 1.109c-.209.813-.34 1.314-.961 1.428-.664.12-1.148-.327-1.3-1.164-.21-1.14.33-1.939.957-2.59l-1.255-1.157c-1.14.939-1.735 2.42-1.434 4.063zM20.435 66.767l.888 1.668 6.648-3.54 1.395 2.62 1.508-.803-3.672-6.895-1.507.802 1.388 2.608-6.648 3.54zM29.21 78.313l1.467 1.404 3.533-9.643-.455-.435-9.49 3.94 1.467 1.403 1.207-.511 2.73 2.614-.458 1.228zm1.058-2.806l-1.78-1.704 3.05-1.403-1.27 3.107zM42.205 85.77l-.9-4.38c1.107-.04 2.072-.65 2.56-1.735.74-1.648-.042-3.288-1.817-4.086l-3.166-1.424-3.79 8.427 1.725.775 1.337-2.975 1.264.569.846 3.956 1.941.873zm-2.283-9.33l1.443.648c.805.362 1.053 1.072.737 1.775-.327.727-1.017 1-1.822.638l-1.443-.648 1.085-2.414zM47.284 86.628l1.88.189.754-7.494 2.953.297.171-1.7-7.773-.782-.17 1.7 2.939.296-.754 7.494zM68.178 72.927l.672 5.77-4.727-3.857-.56.29.44 6.111-4.34-3.9-1.864.966 7.611 6.652.547-.284-.368-6.337 4.954 3.96.547-.284-1.048-10.053-1.864.966zM77.307 76.903l1.292-1.38-6.744-6.316-1.292 1.38 6.744 6.316zM82.612 70.32l.931-1.644-6.554-3.711 1.462-2.583-1.486-.841-3.85 6.798 1.487.841 1.455-2.57 6.555 3.71zM86.587 62.425l.333-1.86-3.928-.703.72-4.024 3.927.703.333-1.86-9.096-1.627-.332 1.86 3.486.624-.72 4.024-3.486-.624-.333 1.86 9.096 1.627z" fill="#07C26F"/><defs><clipPath id="clip0"><path fill="#fff" transform="scale(-1 1) rotate(-5.837 346.016 672.414)" d="M0 0h27.07v27.07H0z"/></clipPath></defs></svg>