<svg width="104" height="104" fill="none" xmlns="http://www.w3.org/2000/svg"><path d="M60.706 1.613a1.504 1.504 0 012.208.444l4.565 7.859a1.504 1.504 0 001.713.69l8.74-2.494a1.504 1.504 0 011.898 1.211l1.42 8.977c.107.68.662 1.2 1.348 1.263l9.05.831a1.504 1.504 0 011.333 1.816l-1.92 8.883a1.504 1.504 0 00.8 1.665l8.14 4.044a1.503 1.503 0 01.586 2.174l-5 7.59a1.504 1.504 0 00.146 1.841l6.128 6.712a1.504 1.504 0 01-.238 2.239l-7.404 5.272a1.504 1.504 0 00-.53 1.769l3.29 8.472a1.504 1.504 0 01-1.03 2.002l-8.808 2.24a1.504 1.504 0 00-1.133 1.46l.007 9.088c0 .903-.788 1.603-1.685 1.494l-9.022-1.092a1.504 1.504 0 00-1.584.951l-3.276 8.478a1.504 1.504 0 01-2.11.784l-8.02-4.278a1.504 1.504 0 00-1.82.315l-6.117 6.722a1.504 1.504 0 01-2.252-.031l-5.932-6.886a1.504 1.504 0 00-1.81-.364l-8.133 4.058a1.504 1.504 0 01-2.088-.842l-3.044-8.564a1.504 1.504 0 00-1.557-.993l-9.05.846a1.504 1.504 0 01-1.643-1.54l.255-9.085a1.504 1.504 0 00-1.093-1.489l-8.743-2.48a1.504 1.504 0 01-.976-2.03l3.52-8.379a1.504 1.504 0 00-.482-1.783l-7.257-5.471a1.504 1.504 0 01-.177-2.245l6.309-6.542a1.504 1.504 0 00.195-1.837l-4.79-7.723a1.504 1.504 0 01.645-2.157l8.246-3.821c.625-.29.973-.966.846-1.642l-1.677-8.933a1.504 1.504 0 011.38-1.778l9.07-.585a1.504 1.504 0 001.383-1.225l1.662-8.935a1.504 1.504 0 011.93-1.16l8.67 2.732a1.504 1.504 0 001.73-.644l4.779-7.73a1.504 1.504 0 012.218-.384l7.097 5.678c.537.43 1.298.44 1.847.025l7.248-5.483z" fill="#A9FAD6"/><g clip-path="url(#clip0)" fill="#42CCAD"><path d="M39.823 50.656a2.627 2.627 0 01-.582-1.94 2.627 2.627 0 01.96-1.782 2.64 2.64 0 01.918-.484l-.97-1.186a2.626 2.626 0 01-.585-1.94 2.626 2.626 0 01.961-1.784l.03-.025a2.627 2.627 0 011.43-.582 2.626 2.626 0 01.965-2.279l.038-.03a2.627 2.627 0 011.938-.58c.474.048.917.22 1.291.494.166-.338.404-.639.704-.884l.025-.02a2.647 2.647 0 013.72.38l6.309 7.747-.505-3.694a2.889 2.889 0 014.498-2.776 2.892 2.892 0 011.235 2.031l.067.537c.316 2.567 1.005 5.184 2.047 7.779.78 1.944.93 4.14.419 6.182a9.953 9.953 0 01-3.397 5.34 9.969 9.969 0 01-7.36 2.202h-.006a9.971 9.971 0 01-6.764-3.657l-1.805-2.223-5.581-6.826zm8.648 8.025a8.357 8.357 0 005.668 3.064h.006a8.356 8.356 0 006.168-1.845 8.34 8.34 0 002.847-4.474 8.485 8.485 0 00-.35-5.183c-1.095-2.725-1.82-5.48-2.153-8.185l-.066-.537a1.25 1.25 0 00-.541-.89 1.265 1.265 0 00-1.97 1.216l.896 6.559c.116.678-.809 1.326-1.435.623l-8.135-9.989a1.02 1.02 0 00-1.433-.147l-.025.02a1.013 1.013 0 00-.37.687c-.028.27.051.536.223.747l5 6.138a.812.812 0 01-1.26 1.026l-6.094-7.481a1.012 1.012 0 00-.686-.37 1.012 1.012 0 00-.747.224l-.038.03a1.013 1.013 0 00-.37.688c-.028.271.052.537.225.748l6.11 7.472a.812.812 0 01-1.257 1.028c-1.211-1.48-4.51-5.516-5.67-6.93a1.021 1.021 0 00-1.432-.146l-.031.026a1.012 1.012 0 00-.37.687c-.028.271.052.537.225.748l6.311 7.719a.812.812 0 01-1.258 1.028l-3.328-4.07-.473-.576a1.021 1.021 0 00-1.801.545c-.028.27.052.536.224.747l5.582 6.828 1.808 2.225zm-8.244-2.315a.812.812 0 111.55-.484c.207.66.536 1.27.977 1.813a5.387 5.387 0 001.978 1.524.812.812 0 11-.668 1.48 7 7 0 01-2.57-1.978 7.036 7.036 0 01-1.267-2.355zm-2.181.225a.812.812 0 011.018.533c.288.92.745 1.768 1.36 2.522a7.514 7.514 0 002.6 2.051.812.812 0 01-.7 1.466 9.127 9.127 0 01-3.16-2.491 9.161 9.161 0 01-1.65-3.063.812.812 0 01.532-1.018z"/></g><path d="M29.892 37.775l-7.412-5.517 3.71-4.986 1.371 1.02-2.583 3.47 1.505 1.12 1.898-2.55 1.291.962-1.898 2.55 1.876 1.395 2.683-3.605 1.37 1.02-3.811 5.121zm9.903-9.467l-1.102-.71-3.136 2.11.242 1.289-1.684 1.133-1.826-10.11.523-.352 8.667 5.507-1.684 1.133zm-2.516-1.631l-2.765-1.903.721 3.278 2.044-1.375zm3.838-1.305l.995-1.29c.868.69 1.715.921 2.543.694.396-.11.683-.28.861-.513a.917.917 0 00.137-.822c-.07-.252-.199-.424-.389-.517-.193-.102-.542-.195-1.05-.278l-1.076-.168c-1.616-.243-2.571-.9-2.866-1.97-.208-.757-.096-1.44.336-2.053.43-.622 1.071-1.05 1.926-1.285.666-.183 1.293-.191 1.881-.024a3.3 3.3 0 011.526.902l-.978 1.3c-.647-.558-1.308-.744-1.983-.558-.324.089-.569.238-.734.448a.773.773 0 00-.136.72c.062.225.185.39.369.494.19.093.508.175.953.246l1.135.167c.859.132 1.52.352 1.982.66.46.3.772.746.935 1.34.22.8.106 1.53-.343 2.185-.451.647-1.131 1.095-2.04 1.345a4.097 4.097 0 01-2.17.031 4.044 4.044 0 01-1.814-1.054zm17.898-9.142l-3.476 5.42-.197 3.636-1.887-.103.196-3.62-2.884-5.778 2.097.113 1.843 3.773 2.225-3.553 2.083.113zm6.343 12.268l3.926-6.428-2.52-1.54.89-1.457 6.666 4.072-.89 1.457-2.533-1.547-3.926 6.428-1.613-.985zm8.678.342c1.02-.831 2.206-1.161 3.554-.99 1.355.178 2.435.8 3.24 1.864.85 1.03 1.206 2.224 1.067 3.583-.133 1.366-.722 2.45-1.766 3.252-1.02.83-2.21 1.153-3.571.968-1.355-.178-2.435-.8-3.24-1.864-.85-1.03-1.206-2.224-1.067-3.583.145-1.352.74-2.429 1.783-3.23zm4.889 6.182c.688-.544 1.079-1.216 1.172-2.015.107-.798-.103-1.53-.63-2.197-.533-.673-1.196-1.053-1.99-1.14-.794-.086-1.538.146-2.234.696-.696.55-1.093 1.221-1.192 2.014-.1.792.117 1.525.65 2.198.526.667 1.187 1.043 1.98 1.13.8.093 1.548-.136 2.244-.686zM18.787 53.44l1.255 1.157c-.8.842-1.12 1.705-.958 2.59.077.423.23.738.456.945a.961.961 0 00.845.218c.27-.05.461-.169.575-.358.124-.192.253-.549.386-1.07l.275-1.108c.401-1.664 1.174-2.6 2.318-2.81.808-.147 1.512.032 2.111.539.61.505.997 1.214 1.164 2.127.13.712.081 1.367-.147 1.965-.22.597-.58 1.1-1.08 1.51l-1.268-1.14c.642-.624.896-1.297.764-2.018-.063-.346-.197-.615-.4-.806a.81.81 0 00-.74-.208.814.814 0 00-.548.339c-.115.19-.23.514-.344.972l-.279 1.169c-.216.884-.506 1.553-.87 2.007-.354.453-.849.737-1.484.853-.856.157-1.605-.03-2.248-.558-.634-.53-1.04-1.28-1.217-2.252-.146-.798-.09-1.554.167-2.267a4.236 4.236 0 011.267-1.796zm1.939 13.873l6.648-3.54-1.389-2.608 1.508-.802 3.672 6.895-1.508.803-1.395-2.62-6.648 3.54-.888-1.668zm8.924 11.421l.46-1.228-2.731-2.614-1.207.512L24.706 74l9.489-3.94.455.436-3.533 9.642-1.466-1.404zm1.059-2.805l1.269-3.108-3.05 1.404 1.78 1.704zm11.711 9.938l-1.94-.873-.846-3.957-1.265-.568-1.337 2.975-1.724-.775 3.789-8.427 3.167 1.423c.885.398 1.5.977 1.844 1.735.345.76.335 1.543-.028 2.351a2.916 2.916 0 01-1.039 1.253c-.443.302-.95.463-1.522.482l.901 4.38zm-2.282-9.33l-1.085 2.412 1.442.65c.4.179.761.208 1.082.086.33-.118.576-.36.74-.726.161-.357.172-.7.034-1.029-.13-.325-.387-.573-.77-.745l-1.443-.649zM47.9 86.69l.753-7.495-2.939-.295.171-1.7 7.773.782-.171 1.7-2.953-.297-.754 7.494-1.88-.19zm20.819-14.043l1.864-.967 1.049 10.054-.547.283-4.955-3.96.368 6.338-.547.283-7.61-6.651 1.864-.967 4.34 3.9-.44-6.11.56-.29 4.727 3.856-.673-5.77zm9.008 3.807l-6.743-6.316 1.292-1.38 6.743 6.317-1.292 1.379zm5.19-6.672l-6.555-3.71-1.455 2.57-1.486-.842 3.848-6.798 1.487.842-1.463 2.582 6.555 3.711-.931 1.645zm3.713-7.6l-9.095-1.627.332-1.86 3.487.624.72-4.024-3.487-.624.333-1.86 9.096 1.626-.333 1.86-3.928-.702-.72 4.024 3.928.703-.333 1.86z" fill="#42CCAD"/><defs><clipPath id="clip0"><path fill="#fff" transform="scale(-1 1) rotate(-5.837 346.016 672.414)" d="M0 0h27.07v27.07H0z"/></clipPath></defs></svg>