<svg width="113" height="110" fill="none" xmlns="http://www.w3.org/2000/svg"><path d="M66.261.5a2 2 0 013.115.625l5.4 11.05a2 2 0 002.331 1.048l11.85-3.287a2 2 0 012.535 1.916l.07 12.297a2 2 0 001.646 1.957l12.103 2.18a2 2 0 011.452 2.826l-5.271 11.11a2 2 0 00.633 2.477l9.958 7.215a2 2 0 01.083 3.176l-9.57 7.723a2 2 0 00-.504 2.507l5.841 10.821a2 2 0 01-1.304 2.897l-11.973 2.806a2 2 0 00-1.541 2.04l.567 12.284a2 2 0 01-2.431 2.045l-12.005-2.667a2 2 0 00-2.274 1.168l-4.819 11.314a2 2 0 01-3.078.788l-9.658-7.612a2 2 0 00-2.556.066l-9.25 8.103a2 2 0 01-3.115-.626l-5.4-11.049a2 2 0 00-2.331-1.049l-11.85 3.287a2 2 0 01-2.535-1.916l-.07-12.297a2 2 0 00-1.646-1.957L8.56 81.586a2 2 0 01-1.452-2.825l5.271-11.11a2 2 0 00-.633-2.478l-9.958-7.215a2 2 0 01-.083-3.176l9.57-7.723a2 2 0 00.504-2.506L5.94 33.73a2 2 0 011.304-2.897l11.973-2.806a2 2 0 001.541-2.04l-.567-12.284a2 2 0 012.431-2.044l12.005 2.667a2 2 0 002.274-1.169L41.72 1.843a2 2 0 013.078-.787l9.658 7.612a2 2 0 002.556-.067L66.261.5z" fill="#CADBFC"/><path d="M30.643 49.594l-8.647-3.256 2.19-5.817 1.598.601-1.524 4.049 1.756.661 1.12-2.974 1.506.567-1.12 2.974 2.189.824 1.583-4.206 1.599.602-2.25 5.975zm6.414-11.619l-1.262-.352-2.372 2.944.613 1.159-1.274 1.58-4.735-9.118.395-.49 9.909 2.697-1.274 1.58zm-2.885-.814l-3.204-1 1.658 2.919 1.546-1.919zm4.258-3.211l.54-1.537c1.04.384 1.918.338 2.633-.138.342-.228.56-.48.656-.757a.918.918 0 00-.127-.823c-.145-.218-.322-.341-.532-.37-.215-.036-.576-.014-1.084.066l-1.075.178c-1.61.277-2.723-.047-3.34-.972-.434-.652-.542-1.337-.324-2.054.212-.725.687-1.333 1.425-1.824.575-.383 1.168-.588 1.779-.613a3.3 3.3 0 011.731.377l-.52 1.541c-.79-.326-1.476-.295-2.058.093-.28.186-.465.405-.556.656a.773.773 0 00.097.726.78.78 0 00.505.354c.21.028.537.006.982-.066l1.13-.198c.857-.144 1.553-.143 2.089.005.53.14.967.466 1.308.979.46.691.58 1.419.36 2.182-.225.756-.73 1.395-1.515 1.918a4.098 4.098 0 01-2.05.71 4.043 4.043 0 01-2.054-.432zm12.043-13.5l-1.509 6.26 1.005 3.498-1.817.522-1-3.485-4.618-4.515 2.019-.58 2.976 2.962.94-4.086 2.004-.576zm11.06 9.18l1.522-7.377-2.893-.597.345-1.673 7.651 1.58-.345 1.672-2.907-.6-1.522 7.377-1.85-.382zm7.195-3.25c.663-1.137 1.656-1.863 2.979-2.178 1.33-.31 2.56-.108 3.69.604 1.157.665 1.91 1.658 2.258 2.979.357 1.326.187 2.548-.508 3.665-.663 1.137-1.663 1.858-3.002 2.164-1.33.31-2.56.108-3.69-.604-1.157-.665-1.91-1.658-2.258-2.98-.34-1.315-.164-2.532.531-3.65zm6.752 4.066c.453-.751.582-1.518.388-2.3-.18-.784-.635-1.395-1.363-1.833-.735-.443-1.49-.565-2.263-.367-.774.2-1.39.678-1.847 1.438-.457.76-.593 1.527-.407 2.304.186.777.647 1.387 1.383 1.83.727.438 1.478.557 2.251.359.781-.194 1.4-.671 1.858-1.43zM29.447 71.084c1.024-.842 2.21-1.173 3.559-.995 1.355.172 2.441.792 3.257 1.86.548.686.882 1.434 1.003 2.245.135.812.05 1.602-.256 2.371l-1.679-.487c.397-1.164.252-2.177-.435-3.037-.536-.672-1.208-1.05-2.015-1.133-.802-.077-1.545.158-2.231.706-.686.547-1.076 1.217-1.172 2.01-.09.8.133 1.535.668 2.207.687.86 1.642 1.227 2.865 1.098l.103 1.745a4.373 4.373 0 01-2.372-.256c-.762-.312-1.42-.814-1.972-1.507-.866-1.04-1.236-2.237-1.11-3.591.138-1.353.734-2.431 1.787-3.236zm7.6 9.421l2.78-4.65 1.622.969-2.852 4.77c-.34.57-.445 1.11-.316 1.622.133.504.46.911.981 1.223.529.316 1.043.411 1.542.285.512-.129.938-.477 1.278-1.046l2.852-4.77 1.622.969-2.78 4.65c-.618 1.034-1.43 1.674-2.436 1.92-1.006.247-1.998.078-2.976-.506-.985-.59-1.607-1.385-1.867-2.389-.251-.998-.068-2.014.55-3.047zm9.234 6.838l1.484-.675c.444 1.016 1.085 1.618 1.923 1.803.4.09.734.073 1-.05a.917.917 0 00.506-.662c.057-.255.023-.469-.102-.64-.123-.18-.388-.425-.797-.736l-.874-.652c-1.314-.97-1.851-1.998-1.61-3.082.169-.766.588-1.318 1.256-1.657.67-.349 1.438-.427 2.303-.235.675.15 1.233.436 1.674.858a3.3 3.3 0 01.927 1.511l-1.473.692c-.31-.796-.808-1.27-1.491-1.421-.328-.073-.614-.055-.858.053a.773.773 0 00-.457.573c-.05.228-.02.43.094.609.125.171.367.392.728.663l.925.679c.698.518 1.179 1.021 1.443 1.51.267.48.333 1.02.2 1.622-.18.81-.622 1.401-1.325 1.77-.702.361-1.512.44-2.433.236a4.098 4.098 0 01-1.932-.988 4.044 4.044 0 01-1.11-1.78zm11.758 3.311l-.517-7.514-2.947.202-.117-1.704 7.794-.535.117 1.704-2.961.203.516 7.515-1.885.13zm6.05-5.022c-.542-1.2-.558-2.43-.047-3.69.519-1.263 1.396-2.148 2.631-2.655 1.213-.558 2.459-.596 3.737-.113 1.287.478 2.184 1.325 2.692 2.54.542 1.198.549 2.432.02 3.7-.518 1.263-1.395 2.148-2.63 2.655-1.213.558-2.459.596-3.737.113-1.27-.486-2.159-1.336-2.666-2.55zm7.228-3.143c-.35-.805-.9-1.354-1.648-1.65-.745-.307-1.506-.291-2.285.047-.788.343-1.325.887-1.611 1.632-.287.745-.253 1.525.1 2.338.354.813.901 1.37 1.642 1.668.74.299 1.504.277 2.292-.065.778-.34 1.311-.881 1.598-1.627.295-.749.266-1.53-.088-2.343zm6.786-11.771l.427-.444 6.778 6.525-1.311 1.361-3.55-3.417.486 3.694-.428.443-3.71-.345 3.55 3.418-1.31 1.361-6.778-6.525.428-.443 6.31.652-.892-6.28zm9.812 1.883l-8.193-4.271.873-1.676 8.194 4.272-.874 1.675zm1.831-8.668l1.073-4.522 1.662.394-1.745 7.356-.49-.116-5.769-6.132-.93 3.924-1.662-.395 1.602-6.756.49.116 5.77 6.131zm3.111-9.756l-9.201.843-.568-6.19 1.701-.156.395 4.308 1.868-.17-.29-3.166 1.604-.147.29 3.165 2.328-.213-.41-4.475 1.7-.156.583 6.357z" fill="#739FF3"/><g clip-path="url(#clip0)" fill="#739FF3"><path d="M69.364 64.391l-5.132-5.131 2.517-2.517a.89.89 0 00-.348-1.473l-15.099-5.033a.89.89 0 00-1.125 1.126l5.033 15.099a.89.89 0 001.473.348l2.517-2.517 5.13 5.131a.887.887 0 001.259 0l3.775-3.775a.89.89 0 000-1.258zm-4.404 3.146l-5.131-5.131a.89.89 0 00-1.259 0l-2.127 2.127-4.016-12.045 12.046 4.015-2.128 2.128a.89.89 0 000 1.258l5.131 5.131-2.516 2.517zM50.821 46.434a.89.89 0 00.89-.89v-5.338a.89.89 0 00-1.78 0v5.339c0 .49.399.89.89.89zM43.9 42.706a.89.89 0 10-1.258 1.258l3.774 3.775a.89.89 0 101.259-1.258L43.9 42.706zm2.517 11.32l-3.775 3.775a.89.89 0 001.259 1.258l3.775-3.774a.89.89 0 00-1.259-1.259zm8.808-6.287L59 43.964a.89.89 0 00-1.258-1.258l-3.775 3.775a.89.89 0 101.258 1.258zm-8.853 3.143a.89.89 0 00-.89-.89h-5.338a.89.89 0 000 1.78h5.338a.89.89 0 00.89-.89z"/></g><defs><clipPath id="clip0"><path fill="#fff" transform="translate(39.254 39.316)" d="M0 0h30.37v30.37H0z"/></clipPath></defs></svg>