<svg width="104" height="104" fill="none" xmlns="http://www.w3.org/2000/svg"><path d="M61.081 1.613a1.504 1.504 0 012.208.444l4.565 7.859c.346.595 1.052.879 1.713.69l8.74-2.494a1.504 1.504 0 011.898 1.211l1.419 8.977c.107.68.662 1.2 1.348 1.263l9.05.831a1.504 1.504 0 011.333 1.816l-1.92 8.883a1.504 1.504 0 00.8 1.665l8.139 4.044a1.503 1.503 0 01.587 2.174l-5 7.59a1.504 1.504 0 00.146 1.841l6.128 6.712a1.504 1.504 0 01-.238 2.239l-7.404 5.272c-.56.399-.779 1.127-.53 1.769l3.29 8.472a1.504 1.504 0 01-1.03 2.002l-8.808 2.24c-.667.17-1.134.771-1.133 1.46l.007 9.088c0 .903-.788 1.603-1.685 1.494l-9.022-1.092a1.504 1.504 0 00-1.584.951l-3.276 8.478a1.504 1.504 0 01-2.11.784l-8.02-4.278a1.504 1.504 0 00-1.82.315l-6.117 6.722a1.504 1.504 0 01-2.252-.031l-5.932-6.886a1.504 1.504 0 00-1.81-.364l-8.133 4.058a1.504 1.504 0 01-2.088-.842l-3.044-8.564a1.504 1.504 0 00-1.557-.993l-9.05.846a1.504 1.504 0 01-1.643-1.54l.255-9.085a1.504 1.504 0 00-1.093-1.489l-8.743-2.48a1.504 1.504 0 01-.976-2.03l3.52-8.379a1.504 1.504 0 00-.482-1.783L2.47 56.002a1.504 1.504 0 01-.177-2.245l6.309-6.542a1.504 1.504 0 00.195-1.837l-4.79-7.723a1.504 1.504 0 01.645-2.157l8.246-3.821c.625-.29.973-.966.846-1.642l-1.677-8.933a1.504 1.504 0 011.38-1.778l9.07-.585a1.504 1.504 0 001.383-1.225l1.662-8.935a1.504 1.504 0 011.93-1.16l8.67 2.732a1.504 1.504 0 001.73-.644l4.779-7.73a1.504 1.504 0 012.218-.384l7.097 5.678c.537.43 1.298.44 1.847.025l7.248-5.483z" fill="#E5F1FB"/><path d="M25.643 46.594l-8.647-3.256 2.19-5.817 1.598.601-1.524 4.049 1.756.661 1.12-2.974 1.506.567-1.12 2.974 2.189.824 1.583-4.206 1.599.602-2.25 5.975zM32.057 34.975l-1.262-.352-2.372 2.944.613 1.159-1.274 1.58-4.735-9.118.395-.49 9.909 2.697-1.274 1.58zm-2.885-.814l-3.204-1 1.658 2.919 1.546-1.919zM33.43 30.95l.54-1.537c1.04.384 1.918.338 2.633-.138.342-.228.56-.48.656-.757a.918.918 0 00-.127-.823c-.145-.218-.322-.341-.532-.37-.215-.036-.576-.014-1.084.066l-1.075.178c-1.61.277-2.723-.047-3.34-.972-.434-.652-.542-1.337-.324-2.054.212-.725.687-1.333 1.425-1.824.575-.383 1.168-.588 1.779-.613a3.3 3.3 0 011.731.377l-.52 1.541c-.79-.326-1.476-.295-2.058.093-.28.186-.465.405-.556.656a.773.773 0 00.097.726c.13.194.297.312.505.354.21.028.537.006.982-.066l1.13-.198c.857-.144 1.553-.143 2.089.005.53.14.967.466 1.308.979.46.691.58 1.419.36 2.182-.225.756-.73 1.395-1.515 1.918a4.098 4.098 0 01-2.05.71 4.043 4.043 0 01-2.054-.432zM45.473 17.45l-1.509 6.26 1.005 3.498-1.817.522-1-3.485-4.618-4.515 2.019-.58 2.976 2.962.94-4.086 2.004-.576zM56.533 26.63l1.522-7.377-2.893-.597.345-1.673 7.651 1.58-.345 1.672-2.907-.6-1.522 7.377-1.85-.382zM63.728 23.38c.663-1.137 1.656-1.863 2.979-2.178 1.33-.31 2.56-.108 3.69.604 1.157.665 1.91 1.658 2.258 2.979.357 1.326.187 2.548-.508 3.665-.663 1.137-1.663 1.858-3.002 2.163-1.33.31-2.56.109-3.69-.604-1.157-.664-1.91-1.657-2.258-2.978-.34-1.316-.164-2.533.531-3.651zm6.752 4.066c.453-.751.582-1.518.388-2.3-.18-.784-.635-1.395-1.363-1.833-.735-.443-1.49-.565-2.263-.367-.774.2-1.39.678-1.847 1.438-.457.76-.593 1.527-.407 2.304.186.777.647 1.387 1.383 1.83.727.438 1.478.558 2.251.359.781-.194 1.4-.671 1.858-1.43zM24.447 68.084c1.024-.842 2.21-1.173 3.559-.995 1.355.172 2.441.792 3.257 1.86.548.686.882 1.434 1.003 2.245.135.812.05 1.602-.256 2.371l-1.679-.487c.397-1.164.252-2.177-.435-3.037-.536-.672-1.207-1.05-2.015-1.133-.802-.077-1.545.158-2.231.706-.686.547-1.076 1.217-1.172 2.01-.09.8.133 1.535.668 2.207.687.86 1.642 1.227 2.866 1.098l.102 1.745a4.373 4.373 0 01-2.372-.256c-.762-.312-1.42-.814-1.972-1.507-.866-1.04-1.236-2.237-1.11-3.591.138-1.353.734-2.431 1.787-3.236zM32.047 77.505l2.78-4.65 1.622.969-2.852 4.77c-.34.57-.445 1.11-.316 1.622.133.504.46.911.981 1.223.529.316 1.043.411 1.542.285.512-.129.938-.477 1.278-1.046l2.852-4.77 1.622.969-2.78 4.65c-.618 1.034-1.43 1.674-2.436 1.92-1.006.247-1.998.078-2.976-.506-.985-.59-1.607-1.385-1.867-2.389-.251-.998-.068-2.014.55-3.047zM41.281 84.343l1.484-.675c.444 1.016 1.085 1.618 1.923 1.803.4.09.734.073 1-.05a.917.917 0 00.506-.662c.057-.255.023-.469-.102-.64-.123-.18-.388-.425-.797-.736l-.874-.652c-1.314-.97-1.851-1.998-1.61-3.082.169-.766.588-1.318 1.256-1.657.67-.349 1.438-.427 2.303-.235.675.15 1.233.436 1.674.858a3.3 3.3 0 01.927 1.511l-1.473.692c-.31-.796-.808-1.27-1.491-1.421-.328-.073-.614-.055-.858.053a.773.773 0 00-.457.573c-.05.228-.02.43.094.609.125.171.367.392.728.663l.925.679c.698.518 1.179 1.021 1.443 1.51.267.48.333 1.02.2 1.622-.18.81-.622 1.401-1.325 1.77-.702.361-1.512.44-2.433.236a4.098 4.098 0 01-1.932-.988 4.044 4.044 0 01-1.11-1.78zM53.039 87.654l-.517-7.514-2.947.202-.117-1.704 7.794-.535.117 1.704-2.961.203.516 7.515-1.885.13zM59.089 82.632c-.542-1.2-.558-2.43-.047-3.69.519-1.263 1.396-2.148 2.631-2.655 1.213-.558 2.459-.596 3.737-.113 1.287.478 2.184 1.325 2.692 2.54.542 1.198.549 2.432.02 3.7-.518 1.263-1.395 2.148-2.63 2.655-1.213.558-2.459.596-3.737.113-1.27-.486-2.159-1.336-2.666-2.55zm7.228-3.143c-.35-.805-.9-1.354-1.648-1.65-.745-.307-1.506-.291-2.285.047-.788.343-1.325.887-1.611 1.632-.287.745-.253 1.525.1 2.338.354.813.901 1.37 1.642 1.668.74.299 1.504.277 2.292-.065.778-.34 1.311-.881 1.598-1.627.295-.749.266-1.53-.088-2.343zM73.103 67.718l.427-.444 6.778 6.525-1.311 1.361-3.55-3.417.486 3.694-.428.443-3.71-.345 3.55 3.418-1.31 1.361-6.778-6.525.428-.443 6.31.652-.892-6.28zM82.915 69.601l-8.193-4.271.873-1.676 8.194 4.271-.874 1.676zM84.746 60.933l1.073-4.522 1.662.394-1.745 7.356-.49-.116-5.769-6.132-.93 3.924-1.662-.395 1.602-6.756.49.116 5.77 6.131zM87.857 51.177l-9.201.843-.568-6.19 1.701-.156.395 4.308 1.868-.17-.29-3.166 1.604-.147.29 3.165 2.328-.213-.41-4.475 1.7-.156.583 6.357z" fill="#5C92ED"/><g clip-path="url(#clip0)" fill="#5C92ED"><path d="M64.364 61.391l-5.132-5.131 2.517-2.517a.89.89 0 00-.348-1.473l-15.099-5.033a.89.89 0 00-1.125 1.126l5.033 15.099a.89.89 0 001.473.348l2.517-2.517 5.13 5.131a.887.887 0 001.259 0l3.775-3.775a.89.89 0 000-1.258zm-4.404 3.146l-5.132-5.131a.89.89 0 00-1.258 0l-2.127 2.127-4.016-12.045 12.046 4.015-2.128 2.128a.89.89 0 000 1.258l5.131 5.131-2.516 2.517zM45.821 43.434a.89.89 0 00.89-.89v-5.338a.89.89 0 00-1.78 0v5.339c0 .49.399.89.89.89zM38.9 39.706a.89.89 0 10-1.258 1.258l3.774 3.775a.89.89 0 101.259-1.258L38.9 39.706zM41.417 51.026l-3.775 3.775a.89.89 0 001.259 1.258l3.775-3.774a.89.89 0 00-1.259-1.259zM50.225 44.739L54 40.964a.89.89 0 00-1.258-1.258l-3.775 3.775a.89.89 0 101.258 1.258zM41.372 47.882a.89.89 0 00-.89-.89h-5.338a.89.89 0 000 1.78h5.338a.89.89 0 00.89-.89z"/></g><defs><clipPath id="clip0"><path fill="#fff" transform="translate(34.254 36.316)" d="M0 0h30.37v30.37H0z"/></clipPath></defs></svg>