<svg width="24" height="24" fill="none" xmlns="http://www.w3.org/2000/svg"><path d="M17.1 12.2a.9.9 0 00-.9.9v7.2a.9.9 0 01-.9.9H2.7a.9.9 0 01-.9-.9V7.7a.9.9 0 01.9-.9h7.2a.9.9 0 100-1.8H2.7A2.703 2.703 0 000 7.7v12.6C0 21.789 1.211 23 2.7 23h12.6c1.489 0 2.7-1.211 2.7-2.7v-7.2a.9.9 0 00-.9-.9z" fill="currentColor"/><path d="M8.763 11.075a.453.453 0 00-.122.228l-.632 3.162a.448.448 0 00.526.526l3.161-.632a.444.444 0 00.23-.123L19 7.161 15.84 4l-7.077 7.075zM21.352 1.647a2.213 2.213 0 00-3.127 0L17 2.872 20.128 6l1.224-1.225c.418-.417.648-.972.648-1.563 0-.592-.23-1.147-.648-1.565z" fill="currentColor"/></svg>