<svg width="104" height="104" viewBox="0 0 104 104" fill="none" xmlns="http://www.w3.org/2000/svg">
<path d="M5.625 52C5.625 26.5949 26.2199 6 51.625 6C77.0301 6 97.625 26.5949 97.625 52C97.625 77.4051 77.0301 98 51.625 98C26.2199 98 5.625 77.4051 5.625 52Z" fill="#FFE9FA"/>
<path d="M75.0586 49.9836C73.6976 46.7699 71.7893 45 69.685 45C67.5808 45 65.6724 46.7699 64.3115 49.9836C63.059 52.9416 62.3691 56.8539 62.3691 61C62.3691 65.1461 63.059 69.0584 64.3115 72.0164C65.6724 75.2301 67.5808 77 69.685 77C71.7893 77 73.6976 75.2301 75.0586 72.0164C76.3111 69.0584 77.0009 65.1461 77.0009 61C77.0009 56.8539 76.3111 52.9416 75.0586 49.9836ZM69.685 75.125C68.4007 75.125 67.0715 73.7254 66.0381 71.2852C65.2354 69.3896 64.6832 67.0506 64.4201 64.4932C64.9981 64.8176 65.6638 65.0034 66.3725 65.0034C68.58 65.0034 70.3759 63.2076 70.3759 61C70.3759 58.7924 68.58 56.9966 66.3725 56.9966C65.6638 56.9966 64.9981 57.1824 64.42 57.5068C65.0804 51.0977 67.4895 46.875 69.685 46.875C70.9693 46.875 72.2986 48.2746 73.332 50.7148C74.4888 53.4467 75.126 57.0994 75.126 61C75.126 69.3241 72.2585 75.125 69.685 75.125ZM64.2441 61C64.2441 59.8264 65.1989 58.8716 66.3725 58.8716C67.5461 58.8716 68.501 59.8264 68.501 61C68.501 62.1736 67.5461 63.1284 66.3725 63.1284C65.1989 63.1284 64.2441 62.1736 64.2441 61Z" fill="#F36DD6"/>
<path d="M52.3159 45C50.2117 45 48.3033 46.7699 46.9424 49.9836C45.6898 52.9416 45 56.8539 45 61C45 65.1461 45.6898 69.0584 46.9424 72.0164C48.3033 75.2301 50.2117 77 52.3159 77C54.4202 77 56.3286 75.2301 57.6895 72.0164C58.9421 69.0584 59.6319 65.1461 59.6319 61C59.6319 56.8539 58.9421 52.9416 57.6894 49.9836C56.3286 46.7699 54.4202 45 52.3159 45ZM52.3159 75.125C51.0316 75.125 49.7024 73.7254 48.669 71.2852C47.8663 69.3896 47.3141 67.0506 47.0511 64.4932C47.6291 64.8176 48.2947 65.0034 49.0034 65.0034C51.2109 65.0034 53.0068 63.2076 53.0068 61C53.0068 58.7924 51.2109 56.9966 49.0034 56.9966C48.2947 56.9966 47.629 57.1824 47.0509 57.5068C47.7113 51.0977 50.1204 46.875 52.3159 46.875C53.6003 46.875 54.9296 48.2746 55.9629 50.7148C57.1198 53.4467 57.7569 57.0994 57.7569 61C57.7569 69.3241 54.8894 75.125 52.3159 75.125ZM46.875 61C46.875 59.8264 47.8298 58.8716 49.0034 58.8716C50.1771 58.8716 51.1318 59.8264 51.1318 61C51.1318 62.1736 50.177 63.1284 49.0034 63.1284C47.8298 63.1284 46.875 62.1736 46.875 61Z" fill="#F36DD6"/>
<path d="M23.1905 65.3034L14.4019 68.156L12.5261 62.3768L14.1506 61.8495L15.443 65.831L17.6401 65.1178L16.5812 61.8554L18.2058 61.3281L19.2647 64.5905L22.607 63.5057L23.1905 65.3034Z" fill="#F36DD6"/>
<path d="M17.2311 58.9969L11.8174 59.2134L11.7419 57.3249L17.2955 57.1028C17.9576 57.0764 18.4677 56.8691 18.8258 56.4812C19.1746 56.0936 19.3369 55.5967 19.3127 54.9905C19.2881 54.375 19.0866 53.8927 18.7084 53.5435C18.3204 53.1854 17.7954 53.0196 17.1332 53.0461L11.5797 53.2681L11.5042 51.3797L16.9178 51.1632C18.1209 51.1151 19.1008 51.4448 19.8577 52.1525C20.6146 52.8602 21.0158 53.7829 21.0613 54.9206C21.1071 56.0677 20.7811 57.0242 20.0831 57.79C19.3848 58.5465 18.4341 58.9488 17.2311 58.9969Z" fill="#F36DD6"/>
<path d="M21.0643 48.6528L12.0661 46.5527L12.4957 44.7121L19.8306 46.4241L20.7502 42.484L22.4135 42.8722L21.0643 48.6528Z" fill="#F36DD6"/>
<path d="M22.857 41.8413L14.5651 37.7643L15.399 36.0683L22.1581 39.3916L23.9434 35.7608L25.4761 36.5144L22.857 41.8413Z" fill="#F36DD6"/>
<path d="M23.6275 32.9093L22.3775 31.9396L24.54 29.1521L25.79 30.1218L23.6275 32.9093Z" fill="#F36DD6"/>
<path d="M29.5122 31.4756L23.4772 24.4786L28.0782 20.5102L29.1938 21.8036L26.0239 24.5376L27.5327 26.2868L30.13 24.0466L31.2456 25.3399L28.6482 27.5802L30.9434 30.2411L29.5122 31.4756Z" fill="#F36DD6"/>
<path d="M35.2096 26.8589L30.9368 18.6662L32.6126 17.7922L36.0956 24.4705L39.683 22.5996L40.4728 24.114L35.2096 26.8589Z" fill="#F36DD6"/>
<path d="M41.5089 23.7514L39.3212 14.7741L45.3605 13.3024L45.7649 14.9618L41.5619 15.9861L42.0061 17.8087L45.0937 17.0563L45.4749 18.6205L42.3872 19.3729L42.9408 21.6445L47.307 20.5805L47.7114 22.2399L41.5089 23.7514Z" fill="#F36DD6"/>
<path d="M49.4676 22.0438L49.9065 12.8142L52.9271 12.9579C54.401 13.0093 55.5928 13.4911 56.5025 14.4033C57.4126 15.3062 57.8262 16.4331 57.7433 17.7841C57.6981 19.1274 57.1743 20.2191 56.1719 21.0591C55.1696 21.8991 53.9417 22.2752 52.4882 22.1874L49.4676 22.0438ZM51.4366 20.4275L52.5553 20.4807C53.4876 20.525 54.2507 20.295 54.8447 19.7907C55.4391 19.277 55.7574 18.5773 55.7995 17.6916C55.842 16.7966 55.5958 16.0795 55.0608 15.5401C54.5258 15.0008 53.7829 14.7085 52.832 14.6633L51.7132 14.6101L51.4366 20.4275Z" fill="#F36DD6"/>
<path d="M60.0296 18.1586C60.4715 16.9088 61.3129 16.0143 62.5539 15.4752C63.8037 14.9393 65.0671 14.9224 66.3441 15.4244C67.8896 16.0078 68.8677 17.0903 69.2783 18.6719L67.6303 19.232C67.3388 18.1543 66.6953 17.4275 65.6999 17.0518C64.8791 16.7419 64.1105 16.7561 63.3943 17.0943C62.678 17.4325 62.1633 18.0163 61.8502 18.8458C61.5305 19.6928 61.5348 20.4876 61.863 21.23C62.1913 21.9724 62.7833 22.5052 63.6391 22.8282C64.6432 23.2073 65.5381 23.136 66.3235 22.6145L66.5905 21.9072L64.2067 21.0073L64.7852 19.4749L68.9372 21.0422L67.9731 23.5963C67.3044 24.152 66.527 24.5069 65.6407 24.6612C64.7632 24.8188 63.8703 24.7262 62.9622 24.3834C61.6862 23.9316 60.7562 23.0918 60.1723 21.8637C59.5916 20.627 59.5441 19.3919 60.0296 18.1586Z" fill="#F36DD6"/>
<path d="M68.1942 26.6306L73.7744 19.2658L78.7288 23.0197L77.6973 24.3811L74.2493 21.7686L73.1164 23.2638L75.6494 25.1831L74.6771 26.4663L72.1441 24.5471L70.7321 26.4106L74.3141 29.1246L73.2826 30.4859L68.1942 26.6306Z" fill="#F36DD6"/>
<path d="M74.9685 32.1208L81.9349 26.0506L83.9215 28.3305C84.9044 29.43 85.3813 30.6237 85.3523 31.9117C85.3303 33.1936 84.8031 34.272 83.7705 35.147C82.7695 36.044 81.6189 36.4214 80.3189 36.2791C79.0189 36.1368 77.8976 35.5107 76.9552 34.4007L74.9685 32.1208ZM77.4979 32.4237L78.2337 33.2681C78.8468 33.9718 79.541 34.3635 80.3161 34.4432C81.0983 34.5168 81.8236 34.2624 82.4921 33.6799C83.1676 33.0912 83.5149 32.4172 83.534 31.6578C83.5531 30.8983 83.25 30.1597 82.6246 29.442L81.8888 28.5976L77.4979 32.4237Z" fill="#F36DD6"/>
</svg>
