<svg width="104" height="104" viewBox="0 0 104 104" fill="none" xmlns="http://www.w3.org/2000/svg">
<path d="M5.625 52C5.625 26.5949 26.2199 6 51.625 6C77.0301 6 97.625 26.5949 97.625 52C97.625 77.4051 77.0301 98 51.625 98C26.2199 98 5.625 77.4051 5.625 52Z" fill="#FFE9FA"/>
<path d="M75.0586 49.9836C73.6976 46.7699 71.7893 45 69.685 45C67.5808 45 65.6724 46.7699 64.3115 49.9836C63.059 52.9416 62.3691 56.8539 62.3691 61C62.3691 65.1461 63.059 69.0584 64.3115 72.0164C65.6724 75.2301 67.5808 77 69.685 77C71.7893 77 73.6976 75.2301 75.0586 72.0164C76.3111 69.0584 77.0009 65.1461 77.0009 61C77.0009 56.8539 76.3111 52.9416 75.0586 49.9836ZM69.685 75.125C68.4007 75.125 67.0715 73.7254 66.0381 71.2852C65.2354 69.3896 64.6832 67.0506 64.4201 64.4932C64.9981 64.8176 65.6638 65.0034 66.3725 65.0034C68.58 65.0034 70.3759 63.2076 70.3759 61C70.3759 58.7924 68.58 56.9966 66.3725 56.9966C65.6638 56.9966 64.9981 57.1824 64.42 57.5068C65.0804 51.0977 67.4895 46.875 69.685 46.875C70.9693 46.875 72.2986 48.2746 73.332 50.7148C74.4888 53.4467 75.126 57.0994 75.126 61C75.126 69.3241 72.2585 75.125 69.685 75.125ZM64.2441 61C64.2441 59.8264 65.1989 58.8716 66.3725 58.8716C67.5461 58.8716 68.501 59.8264 68.501 61C68.501 62.1736 67.5461 63.1284 66.3725 63.1284C65.1989 63.1284 64.2441 62.1736 64.2441 61Z" fill="#F36DD6"/>
<path d="M52.3159 45C50.2117 45 48.3033 46.7699 46.9424 49.9836C45.6898 52.9416 45 56.8539 45 61C45 65.1461 45.6898 69.0584 46.9424 72.0164C48.3033 75.2301 50.2117 77 52.3159 77C54.4202 77 56.3286 75.2301 57.6895 72.0164C58.9421 69.0584 59.6319 65.1461 59.6319 61C59.6319 56.8539 58.9421 52.9416 57.6894 49.9836C56.3286 46.7699 54.4202 45 52.3159 45ZM52.3159 75.125C51.0316 75.125 49.7024 73.7254 48.669 71.2852C47.8663 69.3896 47.3141 67.0506 47.0511 64.4932C47.6291 64.8176 48.2947 65.0034 49.0034 65.0034C51.2109 65.0034 53.0068 63.2076 53.0068 61C53.0068 58.7924 51.2109 56.9966 49.0034 56.9966C48.2947 56.9966 47.629 57.1824 47.0509 57.5068C47.7113 51.0977 50.1204 46.875 52.3159 46.875C53.6003 46.875 54.9296 48.2746 55.9629 50.7148C57.1198 53.4467 57.7569 57.0994 57.7569 61C57.7569 69.3241 54.8894 75.125 52.3159 75.125ZM46.875 61C46.875 59.8264 47.8298 58.8716 49.0034 58.8716C50.1771 58.8716 51.1318 59.8264 51.1318 61C51.1318 62.1736 50.177 63.1284 49.0034 63.1284C47.8298 63.1284 46.875 62.1736 46.875 61Z" fill="#F36DD6"/>
<path d="M22.5501 61.0998L13.4884 62.9061L12.3006 56.9473L13.9757 56.6134L14.794 60.7187L17.0594 60.2671L16.3889 56.9033L18.0639 56.5694L18.7345 59.9332L22.1807 59.2462L22.5501 61.0998Z" fill="#F36DD6"/>
<path d="M17.3666 54.1435L11.9647 53.726L12.1104 51.8416L17.6519 52.2699C18.3126 52.321 18.8434 52.1748 19.2444 51.8313C19.6361 51.4871 19.8553 51.0126 19.902 50.4077C19.9495 49.7936 19.8058 49.291 19.4709 48.9C19.1275 48.4991 18.6254 48.273 17.9647 48.222L12.4232 47.7937L12.5688 45.9093L17.9707 46.3268C19.1712 46.4196 20.1059 46.8616 20.7749 47.6528C21.4439 48.444 21.7346 49.4073 21.6468 50.5426C21.5584 51.6872 21.1228 52.599 20.3402 53.278C19.5582 53.9478 18.5671 54.2363 17.3666 54.1435Z" fill="#F36DD6"/>
<path d="M22.3825 44.3181L13.6913 41.181L14.3329 39.4033L21.4176 41.9604L22.7912 38.1548L24.3978 38.7346L22.3825 44.3181Z" fill="#F36DD6"/>
<path d="M24.9578 37.761L17.1989 32.7432L18.2253 31.1562L24.5499 35.2464L26.7471 31.849L28.1813 32.7766L24.9578 37.761Z" fill="#F36DD6"/>
<path d="M26.7688 28.9812L25.6407 27.8721L28.1141 25.3563L29.2422 26.4654L26.7688 28.9812Z" fill="#F36DD6"/>
<path d="M32.7805 28.2453L27.6043 20.5912L32.6374 17.1875L33.5942 18.6023L30.1267 20.9473L31.4207 22.8608L34.262 20.9393L35.2188 22.3542L32.3776 24.2756L34.3461 27.1865L32.7805 28.2453Z" fill="#F36DD6"/>
<path d="M38.9765 24.3263L35.6901 15.6905L37.4565 15.0183L40.1354 22.0578L43.9169 20.6188L44.5244 22.2151L38.9765 24.3263Z" fill="#F36DD6"/>
<path d="M45.5956 21.9765L44.4717 12.8051L50.6416 12.0491L50.8493 13.7444L46.5554 14.2706L46.7836 16.1326L49.938 15.7461L50.1339 17.3441L46.9794 17.7307L47.2638 20.0513L51.7245 19.5047L51.9322 21.2L45.5956 21.9765Z" fill="#F36DD6"/>
<path d="M53.213 21.0846L54.7271 11.9695L57.7102 12.465C59.168 12.6883 60.2954 13.306 61.0923 14.3183C61.8907 15.3214 62.1698 16.4889 61.9296 17.8209C61.7278 19.1497 61.0801 20.1728 59.9864 20.8899C58.8928 21.6071 57.6293 21.8371 56.1961 21.5801L53.213 21.0846ZM55.3573 19.7094L56.4622 19.8929C57.3829 20.0459 58.1676 19.9066 58.8165 19.4751C59.4668 19.0343 59.8646 18.3766 60.0099 17.502C60.1567 16.6181 59.996 15.8771 59.5277 15.2789C59.0594 14.6807 58.3557 14.3037 57.4165 14.1476L56.3117 13.9641L55.3573 19.7094Z" fill="#F36DD6"/>
<path d="M64.6445 18.5832C65.2293 17.3936 66.1695 16.6035 67.465 16.2131C68.7689 15.8269 70.0256 15.9577 71.2352 16.6055C72.702 17.3655 73.5469 18.5548 73.7699 20.1735L72.0677 20.5373C71.9041 19.4328 71.35 18.6359 70.4052 18.1464C69.6263 17.7428 68.8613 17.6671 68.1105 17.9193C67.3596 18.1715 66.7803 18.6912 66.3723 19.4784C65.9559 20.2823 65.8673 21.0721 66.1066 21.8478C66.3459 22.6235 66.8716 23.2217 67.6837 23.6425C68.6367 24.1363 69.5337 24.1701 70.3747 23.7439L70.7225 23.0726L68.4602 21.9004L69.2137 20.4461L73.1542 22.4877L71.8983 24.9117C71.1693 25.3854 70.3557 25.6472 69.4575 25.6968C68.5675 25.7508 67.6917 25.5545 66.8298 25.108C65.6153 24.5103 64.7898 23.5675 64.3533 22.2796C63.9212 20.9835 64.0182 19.7514 64.6445 18.5832Z" fill="#F36DD6"/>
<path d="M71.7633 27.9523L78.1656 21.2899L82.6476 25.5969L81.4641 26.8285L78.3449 23.831L77.045 25.1837L79.3365 27.3857L78.2209 28.5466L75.9295 26.3445L74.3095 28.0303L77.5498 31.1442L76.3664 32.3757L71.7633 27.9523Z" fill="#F36DD6"/>
</svg>
