<svg width="160" height="64" fill="none" xmlns="http://www.w3.org/2000/svg"><g clip-path="url(#clip0)"><g clip-path="url(#clip1)"><path fill-rule="evenodd" clip-rule="evenodd" d="M62.388 22.95c-.978-.805-.978-2.13 0-2.961l.275-.442c.58-.857 1.65-1.402 2.811-1.402h9.871c1.803 0 3.24 1.246 3.24 2.753v3.455l-9.321 7.923-1.986-1.689c-1.009-.857-1.59-2.052-1.59-3.273v-1.532l-3.3-2.832zm98.367 3.115h6.448c1.375 0 2.475.935 2.445 2.104v.598l-3.24 2.753h-5.806v2.91c0 1.272-.581 2.493-1.65 3.402l-3.209 2.728-.336.285-1.376 1.17h-4.92v1.402c0 .883-.428 1.74-1.161 2.364l-2.812 2.39v1.948c0 1.169-1.13 2.13-2.505 2.13h-.917l-6.999-5.949-6.906 5.871-4.676-3.948h-3.239l-2.751-2.338-1.222 1.039 5.623 4.78-1.559 1.324c-1.711 1.429-4.461 1.429-6.142 0l-4.462-3.792-1.436 1.22 7.456 6.339c1.101.935 1.101 2.442 0 3.377l-4.247 3.61v10.599l-5.562 4.727h-1.956c-2.445 0-4.431-1.688-4.431-3.766v-5.403l-1.253-1.065c-1.131-.961-1.773-2.286-1.773-3.637v-4.624h-7.029l-5.959-5.065v-5.403l5.96-5.04h4.98c1.162 0 2.262.39 3.087 1.092l1.284 1.09h7.854l3.147-2.675-2.811-2.39-1.375-1.169h-2.751l-1.65 1.403h-4.37l-3.026-2.572h-2.475l-3.759 3.196-.947-.806c-1.223-1.039-1.223-2.701 0-3.74L88.144 37h2.506V34.82l2.506-2.13h6.295v-2.104l3.025-2.572-1.65-1.402-4.37 3.714-.306-.26c-1.038-.883-1.038-2.311 0-3.195l3.729-3.169h3.361c1.04 0 2.079.364 2.812.987l2.475 2.104h10.971l3.668-3.117h5.653l3.881-3.299h8.191c1.405 0 2.75.494 3.728 1.325l2.536 2.156h8.985c1.284 0 2.506.416 3.423 1.195l1.192 1.013zM59.729 56.227h1.467c1.589 0 2.903 1.117 2.903 2.467v3.17L50.5 73.422v8.182l-1.313-.727c-2.078-1.143-3.331-3.117-3.331-5.221v-9.56l-3.087-2.623c-1.039-.883-1.62-2.078-1.62-3.325v-3.845c0-.727.337-1.402.948-1.922l2.23-1.896-2.903-2.468h-1.741c-1.559 0-3.056-.52-4.157-1.455l-5.684-4.831-2.078-1.766c-1.436-1.221-2.261-2.91-2.261-4.65v-4.39l-5.257-4.468H17.8c-.947 0-1.833.312-2.506.883l-1.925 1.637c-.153.13-.428.052-.428-.156v-4.39l1.345-.805a8.023 8.023 0 014.065-1.091h24.662c1.283 0 2.322.883 2.322 1.974v.727l-2.903 2.468 4.095 3.48h4.553v-4.571c0-.598.826-.883 1.315-.468l2.322 1.974h2.048c1.436 0 2.628.988 2.628 2.234v.754l-10.91 9.273c-1.1.961-2.628 1.48-4.187 1.48h-4.798V47.629h1.528c1.314 0 2.598.468 3.515 1.247l3.82 3.247h5.073c.916 0 1.833.338 2.475.883l3.82 3.221zm85.267 12.129v1.558c0 2.078 1.986 3.767 4.431 3.767h4.34l1.436 1.22c.917.78 2.2 1.222 3.514 1.222h3.301v-4.52c0-1.663-.764-3.247-2.139-4.416l-3.209-2.728h-6.999l-4.553 3.87h-.122v.027z" fill="currentColor"/></g></g><defs><clipPath id="clip0"><path fill="#fff" d="M0 0h160v64H0z"/></clipPath><clipPath id="clip1"><path fill="#fff" transform="translate(9.412 5)" d="M0 0h192.941v59H0z"/></clipPath></defs></svg>