<svg width="160" height="59" fill="none" xmlns="http://www.w3.org/2000/svg"><g clip-path="url(#clip0)"><g clip-path="url(#clip1)"><mask id="a" fill="#fff"><path d="M129.02 31.212C124.912 12.97 108.708.01 90.008.012a39.988 39.988 0 1017.078 76.136c.011-.004.022-.002.033-.007.01-.005.016-.014.026-.02 16.896-8.012 25.982-26.665 21.875-44.909zM110.415 8.774l-7.547 2.642a1.327 1.327 0 00-.419.24 33.472 33.472 0 00-4.394 4.196 12.078 12.078 0 01-2.846 1.506c-4.515.318-10.023.855-11.144 1.633-1.372.955-1.601 3.914-1.552 6.228.004.204.055.405.15.586l3.668 7.055a2.358 2.358 0 003.151.987c.309-.155.621-.33.936-.505.256-.143.514-.288.823-.447.462-.232 1.035-.514 1.317-.433.076.023.149.055.218.096a1.646 1.646 0 01-.434.61 160.508 160.508 0 00-2.823 3.162l-3.14 3.628c-.107.123-.213.245-.367.435a6.216 6.216 0 00-1.112 4.505l.13.893a3.508 3.508 0 01-.667 2.6l-2.628 3.56a5.399 5.399 0 00-.583.947l-2.77 5.763h-2.19a2.556 2.556 0 00.66-2.413l-2.54-10.263h.002a2.01 2.01 0 00-.078-.304l-1.835-4.933a1.791 1.791 0 01-.11-.628v-.24a4.479 4.479 0 00-2.5-4.036l-.117-.052a4.354 4.354 0 00-2.496-.462l-3.601.4a1.74 1.74 0 01-1.532-.615l-2.26-2.674a1.85 1.85 0 01-.434-1.184v-2.36c-.007-.48.179-.944.515-1.288l2.915-2.943a4.76 4.76 0 00.668-.865l.941-1.599a1.74 1.74 0 011.516-.863h3.859c.508-.002.993.22 1.323.607a4.474 4.474 0 003.29 1.459h1.42c.587 0 1.105-.385 1.275-.947l1.233-4.065a1.334 1.334 0 00-.38-1.373 8.813 8.813 0 01-1.891-2.442c-.87-2.103-4.667-3.464-5.708-3.628a11.16 11.16 0 01-1.904-1.368 37.199 37.199 0 0141.992-.808zm-40.93 62.403A37.31 37.31 0 0152.685 40a37.262 37.262 0 0113.562-28.76c2.422 2.03 3.187 2.292 3.702 2.35a7.798 7.798 0 013.62 2.001 9.908 9.908 0 001.952 2.799l-.713 2.35h-.43a1.791 1.791 0 01-1.305-.57 4.393 4.393 0 00-3.309-1.496h-3.858a4.439 4.439 0 00-3.814 2.176l-.924 1.571c-.08.132-.174.254-.28.366l-2.915 2.944a4.458 4.458 0 00-1.289 3.166v2.36a4.53 4.53 0 001.058 2.899l2.267 2.68a4.416 4.416 0 003.87 1.544l3.592-.4c.357-.04.718.032 1.033.206l.13.06c.614.313.998.946.99 1.635v.24a4.459 4.459 0 00.282 1.57l1.797 4.828.016.067 2.53 10.245-.253.245a2.642 2.642 0 00-.432 2.94 2.39 2.39 0 002.127 1.312h2.69c.97 0 1.856-.551 2.283-1.422l2.889-5.85c.087-.18.193-.35.316-.507l2.632-3.566a6.155 6.155 0 001.168-4.563l-.131-.896a3.522 3.522 0 01.585-2.506l.262-.306c.104-.118.207-.237.287-.334l2.86-3.301a161.238 161.238 0 012.766-3.098 3.215 3.215 0 001.08-2.917 2.942 2.942 0 00-2.034-2.147 4.505 4.505 0 00-3.374.636c-.286.147-.571.305-.855.464-.194.108-.386.216-.576.318l-3.366-6.475a11.44 11.44 0 01.458-3.68 72.893 72.893 0 019.973-1.174c.137-.01.271-.04.4-.09 1.632-.649 3.703-1.633 4.292-2.625a37.086 37.086 0 013.685-3.436l9.073-3.176A37.395 37.395 0 01126.203 30.9l-.484-.254a4.897 4.897 0 00-2.948-.525l-6.875.905a2.53 2.53 0 00-2.241 2.523v1.226h-1.387a2.6 2.6 0 00-2.179 1.205l-.444.7a7.309 7.309 0 00-.783 6.089l1.055 3.396-.934.323a2.553 2.553 0 00-1.506 1.425 2.516 2.516 0 00.053 2.04l3.094 6.564-1.964.023-3.722-2.969a2.613 2.613 0 00-2.319-.424l-5.49 1.656a2.554 2.554 0 00-1.111 4.166l.763.818c.28.285.62.503.997.638l2.24.715v2.479c.005.375.085.746.234 1.09l4.512 9.565a37.31 37.31 0 01-35.28-3.097zm37.685 1.948l-4.486-9.506V61.14a2.56 2.56 0 00-1.705-2.417l-2.278-.785-.602-.646 5.207-1.615 3.683 2.938a2.59 2.59 0 001.614.565h2.185a2.564 2.564 0 002.167-1.172 2.53 2.53 0 00.172-2.435l-3.12-6.62.915-.316a2.544 2.544 0 001.579-3.142l-1.095-3.526a4.65 4.65 0 01.495-3.869l.367-.66h1.493a2.55 2.55 0 002.559-2.533V33.66l6.814-.897c.465-.063.938.023 1.351.247l.531.279a4.996 4.996 0 001.793.529c2.702 15.98-5.238 31.873-19.639 39.308z"/></mask><path d="M129.02 31.212C124.912 12.97 108.708.01 90.008.012a39.988 39.988 0 1017.078 76.136c.011-.004.022-.002.033-.007.01-.005.016-.014.026-.02 16.896-8.012 25.982-26.665 21.875-44.909zM110.415 8.774l-7.547 2.642a1.327 1.327 0 00-.419.24 33.472 33.472 0 00-4.394 4.196 12.078 12.078 0 01-2.846 1.506c-4.515.318-10.023.855-11.144 1.633-1.372.955-1.601 3.914-1.552 6.228.004.204.055.405.15.586l3.668 7.055a2.358 2.358 0 003.151.987c.309-.155.621-.33.936-.505.256-.143.514-.288.823-.447.462-.232 1.035-.514 1.317-.433.076.023.149.055.218.096a1.646 1.646 0 01-.434.61 160.508 160.508 0 00-2.823 3.162l-3.14 3.628c-.107.123-.213.245-.367.435a6.216 6.216 0 00-1.112 4.505l.13.893a3.508 3.508 0 01-.667 2.6l-2.628 3.56a5.399 5.399 0 00-.583.947l-2.77 5.763h-2.19a2.556 2.556 0 00.66-2.413l-2.54-10.263h.002a2.01 2.01 0 00-.078-.304l-1.835-4.933a1.791 1.791 0 01-.11-.628v-.24a4.479 4.479 0 00-2.5-4.036l-.117-.052a4.354 4.354 0 00-2.496-.462l-3.601.4a1.74 1.74 0 01-1.532-.615l-2.26-2.674a1.85 1.85 0 01-.434-1.184v-2.36c-.007-.48.179-.944.515-1.288l2.915-2.943a4.76 4.76 0 00.668-.865l.941-1.599a1.74 1.74 0 011.516-.863h3.859c.508-.002.993.22 1.323.607a4.474 4.474 0 003.29 1.459h1.42c.587 0 1.105-.385 1.275-.947l1.233-4.065a1.334 1.334 0 00-.38-1.373 8.813 8.813 0 01-1.891-2.442c-.87-2.103-4.667-3.464-5.708-3.628a11.16 11.16 0 01-1.904-1.368 37.199 37.199 0 0141.992-.808zm-40.93 62.403A37.31 37.31 0 0152.685 40a37.262 37.262 0 0113.562-28.76c2.422 2.03 3.187 2.292 3.702 2.35a7.798 7.798 0 013.62 2.001 9.908 9.908 0 001.952 2.799l-.713 2.35h-.43a1.791 1.791 0 01-1.305-.57 4.393 4.393 0 00-3.309-1.496h-3.858a4.439 4.439 0 00-3.814 2.176l-.924 1.571c-.08.132-.174.254-.28.366l-2.915 2.944a4.458 4.458 0 00-1.289 3.166v2.36a4.53 4.53 0 001.058 2.899l2.267 2.68a4.416 4.416 0 003.87 1.544l3.592-.4c.357-.04.718.032 1.033.206l.13.06c.614.313.998.946.99 1.635v.24a4.459 4.459 0 00.282 1.57l1.797 4.828.016.067 2.53 10.245-.253.245a2.642 2.642 0 00-.432 2.94 2.39 2.39 0 002.127 1.312h2.69c.97 0 1.856-.551 2.283-1.422l2.889-5.85c.087-.18.193-.35.316-.507l2.632-3.566a6.155 6.155 0 001.168-4.563l-.131-.896a3.522 3.522 0 01.585-2.506l.262-.306c.104-.118.207-.237.287-.334l2.86-3.301a161.238 161.238 0 012.766-3.098 3.215 3.215 0 001.08-2.917 2.942 2.942 0 00-2.034-2.147 4.505 4.505 0 00-3.374.636c-.286.147-.571.305-.855.464-.194.108-.386.216-.576.318l-3.366-6.475a11.44 11.44 0 01.458-3.68 72.893 72.893 0 019.973-1.174c.137-.01.271-.04.4-.09 1.632-.649 3.703-1.633 4.292-2.625a37.086 37.086 0 013.685-3.436l9.073-3.176A37.395 37.395 0 01126.203 30.9l-.484-.254a4.897 4.897 0 00-2.948-.525l-6.875.905a2.53 2.53 0 00-2.241 2.523v1.226h-1.387a2.6 2.6 0 00-2.179 1.205l-.444.7a7.309 7.309 0 00-.783 6.089l1.055 3.396-.934.323a2.553 2.553 0 00-1.506 1.425 2.516 2.516 0 00.053 2.04l3.094 6.564-1.964.023-3.722-2.969a2.613 2.613 0 00-2.319-.424l-5.49 1.656a2.554 2.554 0 00-1.111 4.166l.763.818c.28.285.62.503.997.638l2.24.715v2.479c.005.375.085.746.234 1.09l4.512 9.565a37.31 37.31 0 01-35.28-3.097zm37.685 1.948l-4.486-9.506V61.14a2.56 2.56 0 00-1.705-2.417l-2.278-.785-.602-.646 5.207-1.615 3.683 2.938a2.59 2.59 0 001.614.565h2.185a2.564 2.564 0 002.167-1.172 2.53 2.53 0 00.172-2.435l-3.12-6.62.915-.316a2.544 2.544 0 001.579-3.142l-1.095-3.526a4.65 4.65 0 01.495-3.869l.367-.66h1.493a2.55 2.55 0 002.559-2.533V33.66l6.814-.897c.465-.063.938.023 1.351.247l.531.279a4.996 4.996 0 001.793.529c2.702 15.98-5.238 31.873-19.639 39.308z" fill="currentColor" stroke="#ECEBFF" stroke-width=".4" mask="url(#a)"/></g></g><defs><clipPath id="clip0"><path fill="#fff" d="M0 0h160v59H0z"/></clipPath><clipPath id="clip1"><path fill="#fff" transform="translate(50)" d="M0 0h80v80H0z"/></clipPath></defs></svg>