<svg width="160" height="64" viewBox="0 0 160 64" fill="none" xmlns="http://www.w3.org/2000/svg">
<rect width="8" height="82" rx="4" transform="matrix(2.46315e-08 -1 -1 -5.77322e-09 133 22)" fill="currentColor"/>
<rect width="8" height="35" rx="4" transform="matrix(5.82798e-08 -1 -1 -2.44e-09 35 22)" fill="currentColor"/>
<rect width="8" height="26" rx="4" transform="matrix(6.03043e-08 -1 -1 -2.35809e-09 26 36)" fill="currentColor"/>
<rect width="8" height="35" rx="4" transform="matrix(6.03043e-08 -1 -1 -2.35809e-09 35 50)" fill="currentColor"/>
<rect width="8" height="45" rx="4" transform="matrix(2.91581e-08 -1 -1 -4.87695e-09 96 36)" fill="currentColor"/>
<rect width="8" height="73" rx="4" transform="matrix(2.75993e-08 -1 -1 -5.1524e-09 124 50)" fill="currentColor"/>
</svg>
