<svg width="160" height="64" viewBox="0 0 160 64" fill="none" xmlns="http://www.w3.org/2000/svg">
<g clip-path="url(#clip0)">
<path fill-rule="evenodd" clip-rule="evenodd" d="M115.781 29.7298C115.24 29.6879 108.023 28.3707 107.457 28.3707V26.5586C108.324 26.5586 109.166 26.6046 109.987 26.694C116.194 27.3694 121.114 30.5127 126.878 34.5742C127.561 35.0556 128.257 35.5512 128.971 36.0589C134.312 39.859 140.614 44.3426 149.459 48.6963C169.489 58.5546 202.673 67.7913 266.95 66.2569L267.001 68.0684C250.066 68.4727 235.265 68.1322 222.275 67.2283L222.288 67.3229C184.966 71.8702 162.401 66.6112 144.838 58.242C127.572 50.014 121.821 40.1519 115.781 29.7298Z" fill="#E7E7F0"/>
<path fill-rule="evenodd" clip-rule="evenodd" d="M4.04343 65.9868C3.69735 65.9888 3.34955 65.9897 3 65.9897V67.8018C3.9396 67.8018 4.86713 67.7948 5.78276 67.781C51.4294 70.3939 70.7877 60.6571 81.8401 49.9714C84.6202 47.2835 86.8552 44.5546 88.8362 41.9938C89.4126 41.2488 89.9642 40.5224 90.5002 39.8168L90.501 39.8157C91.8214 38.0771 93.0467 36.4638 94.3107 35.0065C96.0765 32.9707 97.8529 31.3197 99.9299 30.1732C101.99 29.0357 104.393 28.3694 107.456 28.3694C108.247 28.3694 109.011 28.4113 109.755 28.4922H114.303L115.203 28.0543C113.436 24.9803 111.913 22.0135 110.501 19.2617L110.321 18.9127C108.864 16.0739 107.511 13.4562 106.135 11.2387C103.421 6.86459 95.9295 3 91.3442 3C88.4099 3 84.5281 3.81963 82.7833 5.71815C81.08 7.57157 78.5274 8.26981 77.3659 11.2387C76.6382 13.099 75.142 14.4586 74.411 16.5907C72.7705 21.3756 71.3732 28.4657 68.5011 33.8764C64.3841 41.6324 61.5161 50.4801 50.897 56.2744C40.7261 61.8241 26.4169 65.6479 5.82777 65.968C5.24064 65.9342 4.64903 65.8984 4.05293 65.8605L4.04343 65.9868Z" fill="#E7E7F0"/>
<path d="M217.725 66.896C99.9332 79.1002 124.53 3.90625 91.3442 3.90625C58.1588 3.90625 91.9577 66.896 3 66.896" stroke="currentColor" stroke-width="2"/>
<path d="M266.975 67.159C133.94 70.3348 133.324 27.4609 107.457 27.4609C81.5888 27.4609 97.6022 72.7167 3.98535 66.762" stroke="currentColor" stroke-width="2"/>
</g>
<defs>
<clipPath id="clip0">
<rect width="160" height="64" rx="24" fill="white"/>
</clipPath>
</defs>
</svg>
