<svg width="160" height="64" fill="none" xmlns="http://www.w3.org/2000/svg"><g clip-path="url(#clip0)"><path d="M18.5 33.5l38-12 36.5 24 18.5-24 30.5-17 31 37" stroke="currentColor" stroke-width="4"/><path d="M18.5 51.5L39 43l27 .5 48.5-40L151 40h22l-5.5-28" stroke="currentColor" stroke-width="2"/><circle cx="56" cy="22" r="4.5" fill="currentColor" stroke="#F8F8F8"/><circle cx="19" cy="33" r="4.5" fill="currentColor" stroke="#F8F8F8"/><circle cx="18.5" cy="51.5" r="3" fill="currentColor" stroke="#F8F8F8"/><circle cx="39.5" cy="43.5" r="3" fill="currentColor" stroke="#F8F8F8"/><circle cx="65.5" cy="43.5" r="3" fill="currentColor" stroke="#F8F8F8"/><circle cx="114.5" cy="4.5" r="3" fill="currentColor" stroke="#F8F8F8"/><circle cx="149.5" cy="39.5" r="3" fill="currentColor" stroke="#F8F8F8"/><circle cx="93" cy="45" r="4.5" fill="currentColor" stroke="#F8F8F8"/><circle cx="111" cy="22" r="4.5" fill="currentColor" stroke="#F8F8F8"/><circle cx="142" cy="5" r="4.5" fill="currentColor" stroke="#F8F8F8"/></g><defs><clipPath id="clip0"><path fill="#fff" d="M0 0h160v64H0z"/></clipPath></defs></svg>