<svg width="109" height="104" fill="none" xmlns="http://www.w3.org/2000/svg"><path d="M2.286 37.441C8.4 14.621 31.857 1.078 54.678 7.193l22.5 6.029c22.82 6.115 36.363 29.571 30.248 52.392-6.114 22.82-29.571 36.363-52.392 30.248l-22.5-6.029C9.714 83.718-3.829 60.262 2.286 37.441z" fill="#FFF4E0"/><path d="M47.381 16.909l2.112-.262-2.927 9.843-.625.077-5.257-8.828 2.126-.264 2.982 5.273 1.589-5.84zM53.825 25.908l1.17-9.166 6.166.787-.216 1.694-4.291-.547-.238 1.86 3.152.403-.203 1.597-3.153-.402-.296 2.319 4.458.569-.216 1.694-6.333-.808zM70.355 30.28l-1.976-.792-1.008-3.919-1.286-.515-1.214 3.027-1.754-.703 3.438-8.576 3.222 1.292c.901.36 1.54.913 1.915 1.657.376.744.399 1.527.069 2.35a2.915 2.915 0 01-.987 1.294c-.43.32-.93.502-1.5.545l1.08 4.34zm-2.666-9.229l-.984 2.456 1.468.589c.407.163.769.177 1.084.042.324-.131.561-.383.71-.756.146-.363.143-.707-.01-1.03-.143-.318-.41-.556-.8-.712l-1.468-.589zM83.868 28.32l-5.872 2.641-2.15 2.937-1.526-1.117 2.142-2.925.742-6.416 1.694 1.241-.518 4.167 3.805-1.76 1.683 1.232zM16.279 64.41l7.625-5.22 1.96 2.866c.549.8.772 1.615.671 2.442-.101.827-.518 1.49-1.25 1.992-.723.495-1.493.643-2.308.443-.816-.2-1.497-.7-2.046-1.5l-.893-1.306-2.692 1.842-1.067-1.56zm5.122-1.216l.894 1.305c.247.362.54.575.877.638.35.066.691-.015 1.023-.242.323-.221.511-.508.564-.86.058-.346-.032-.692-.27-1.038l-.893-1.306-2.195 1.502zM25.162 69.18c.84-1.013 1.938-1.567 3.294-1.661 1.364-.088 2.544.311 3.541 1.199 1.034.845 1.614 1.947 1.742 3.308.135 1.366-.232 2.544-1.1 3.533-.84 1.013-1.946 1.56-3.316 1.643-1.363.088-2.544-.311-3.54-1.2-1.034-.844-1.615-1.947-1.743-3.307-.12-1.354.254-2.526 1.122-3.515zm5.996 5.116c.57-.668.823-1.403.759-2.205-.05-.804-.399-1.481-1.045-2.033-.653-.557-1.378-.8-2.173-.731-.796.07-1.481.442-2.057 1.116-.575.675-.834 1.41-.778 2.207.056.796.411 1.473 1.065 2.03.646.552 1.367.793 2.162.723.803-.064 1.492-.433 2.067-1.107zM34.112 81.812l3.955-8.35 3.138 1.486c.878.415 1.48 1.005 1.81 1.77.33.766.305 1.55-.075 2.35-.375.794-.966 1.31-1.77 1.548-.805.238-1.647.15-2.524-.266l-1.43-.677-1.396 2.948-1.708-.81zm3.812-3.632l1.43.677c.396.188.756.224 1.079.109.336-.12.59-.361.761-.724.168-.355.185-.697.053-1.028-.124-.328-.375-.581-.755-.76l-1.43-.678-1.138 2.404zM45.997 82.593l1.016-5.322 1.856.355-1.042 5.459c-.124.65-.038 1.195.259 1.631.298.428.745.699 1.341.812.605.116 1.12.029 1.547-.26.436-.297.717-.771.841-1.422l1.042-5.46 1.857.355-1.016 5.322c-.226 1.183-.77 2.062-1.63 2.64-.86.576-1.85.758-2.969.544-1.127-.215-1.985-.75-2.573-1.603-.578-.851-.755-1.868-.53-3.051zM57.116 87.908l-.447-9.23 1.888-.09.364 7.522 4.042-.195.082 1.706-5.929.287zM72.09 85.587l-.823-1.02-3.64 1.016-.175 1.3-1.956.545 1.448-10.172.606-.17 6.495 7.955-1.955.546zm-1.874-2.34l-2.027-2.676-.347 3.339 2.374-.663zM84.568 79.634l-1.847 1.057-3.698-1.643-1.203.689 1.62 2.831-1.64.939-4.59-8.02 3.014-1.725c.843-.482 1.672-.639 2.488-.472.817.168 1.445.636 1.885 1.406.288.502.422 1.028.402 1.576a2.81 2.81 0 01-.504 1.515l4.073 1.847zm-8.89-3.64l1.315 2.297 1.373-.786c.38-.218.616-.492.706-.823.098-.336.048-.678-.152-1.027-.194-.34-.465-.55-.813-.631-.339-.086-.69-.024-1.055.184l-1.374.786z" fill="#FBAE66"/><g clip-path="url(#clip0)"><path d="M65.237 57.966l.002-.01c.26-1.355.318-2.55.18-3.756a1.005 1.005 0 00-.006-.054c-.008-.066-.845-6.61 1.154-9.546a.966.966 0 00-.59-1.488c-.083-.019-1.798-.378-4.014.72-.702-3.659-.028-7.165-.02-7.203a.966.966 0 00-1.217-1.117c-2.877.832-5.279 2.145-7.14 3.902a13.903 13.903 0 00-3.413 5.065 15.309 15.309 0 00-.99 4.224l-2.972-2.26a.966.966 0 00-1.413.27c-.422.7-.773 1.358-1.074 2.01-1.049 2.271-1.534 4.755-1.404 7.183.13 2.441.876 4.713 2.155 6.57a10.77 10.77 0 005.375 4.103c.202.079.41.148.623.206.045.012.09.022.136.033l.11.03c1.428.383 2.99.524 4.655.41 2.641-.18 4.997-1.31 6.812-3.264 1.51-1.625 2.593-3.766 3.051-6.028zm-8.631 3.624c-.365 1.317-1.865 3.331-3.929 3.472a5.303 5.303 0 01-1.543-.105 9.881 9.881 0 01-.646-.204 3.582 3.582 0 01-1.608-1.302c-.858-1.245-.994-3.03-.376-4.638.748.54 1.837.991 3.287.982 2.332-.013 3.783-2.133 4.589-3.909.053-.117.104-.234.153-.35.676 3.026.42 4.801.073 6.054zm4.164 1.088c-1.161 1.25-2.542 2.067-4.117 2.44.866-.872 1.525-1.962 1.816-3.013.778-2.814.475-5.977-.984-10.257a.966.966 0 00-1.864.132c-.289 1.522-1.614 5.87-3.842 5.883-1.896.01-2.62-1.06-2.688-1.17a.942.942 0 00-.825-.505.967.967 0 00-.853.497c-.036.061-.349.605-.517.969a7.55 7.55 0 00-.675 3.941 9.276 9.276 0 01-.154-.216c-1.078-1.563-1.706-3.491-1.817-5.576-.113-2.115.312-4.283 1.229-6.27.134-.29.28-.584.44-.884l3.616 2.75a.966.966 0 001.547-.865c-.002-.025-.229-2.553.92-5.424a11.979 11.979 0 012.95-4.327c1.314-1.23 2.949-2.215 4.874-2.938-.177 1.777-.272 4.788.57 7.753a.966.966 0 001.486.527c.875-.616 1.67-.912 2.295-1.048-1.352 3.6-.758 8.707-.685 9.28 0 .01.002.019.003.028.12 1.016.07 2.033-.153 3.202-.39 1.917-1.303 3.725-2.572 5.091z" fill="#FBAE66"/></g><defs><clipPath id="clip0"><path fill="#fff" transform="rotate(15 -94.972 180.023)" d="M0 0h33v33H0z"/></clipPath></defs></svg>