<svg width="366" height="379" viewBox="0 0 366 379" fill="none" xmlns="http://www.w3.org/2000/svg">
<path d="M258.433 0H196.475L129.624 164.425L62.3664 0H0L120.249 276.234H138.592L258.433 0Z" fill="#CAC9FF" fill-opacity="0.7"/>
<path d="M230.896 104.918L188.515 204.155C198.007 223.395 217.493 239.611 246.974 252.804L275.915 265.958C289.503 272.261 298.606 277.605 303.226 281.989C307.846 286.1 310.156 291.992 310.156 299.665C310.156 308.982 306.759 316.382 299.965 321.862C293.171 327.069 283.796 329.673 271.839 329.673C246.838 329.673 224.826 316.519 205.804 290.211L167.895 318.985C178.493 337.62 192.76 352.281 210.695 362.969C228.903 373.656 249.284 379 271.839 379C299.286 379 321.841 371.601 339.504 356.803C357.168 341.73 366 321.999 366 297.61C366 279.523 360.701 264.451 350.103 252.393C339.504 240.061 322.656 228.688 299.557 218.275L268.986 204.71C257.029 199.229 248.74 194.433 244.121 190.323C239.773 185.938 237.599 180.32 237.599 173.469C237.599 165.248 240.724 158.808 246.974 154.149C253.224 149.49 261.241 147.161 271.024 147.161C291.405 147.161 308.525 157.575 322.384 178.402L359.886 149.216C351.19 133.322 339.233 120.853 324.015 111.81C308.797 102.492 291.133 97.8337 271.024 97.8337C256.162 97.8337 242.786 100.195 230.896 104.918Z" fill="#CAC9FF" fill-opacity="0.7"/>
</svg>
