<svg width="42" height="47" viewBox="0 0 42 47" fill="none" xmlns="http://www.w3.org/2000/svg">
<g clip-path="url(#clip0)">
<path d="M18.8867 37.4046L22.9131 34.3741C24.9335 37.1449 27.2713 38.5303 29.9267 38.5303C31.1967 38.5303 32.1924 38.2561 32.914 37.7077C33.6356 37.1304 33.9964 36.3512 33.9964 35.3698C33.9964 34.5617 33.751 33.9411 33.2604 33.5082C32.7697 33.0464 31.8028 32.4835 30.3597 31.8197L27.2858 30.4343C22.6677 28.385 20.3587 25.6431 20.3587 22.2084C20.3587 19.7839 21.2535 17.8357 23.0429 16.3637C24.8324 14.8628 27.0982 14.1124 29.8401 14.1124C31.976 14.1124 33.852 14.6031 35.4684 15.5844C37.0847 16.5369 38.3546 17.8501 39.2782 19.5242L35.2952 22.5981C33.8232 20.4045 32.0048 19.3077 29.8401 19.3077C28.8011 19.3077 27.9496 19.553 27.2858 20.0437C26.6219 20.5344 26.29 21.2126 26.29 22.0785C26.29 22.8001 26.5209 23.3918 26.9827 23.8536C27.4734 24.2865 28.3537 24.7916 29.6237 25.3689L32.8707 26.7976C35.324 27.8944 37.1135 29.0922 38.2392 30.391C39.3648 31.661 39.9277 33.2484 39.9277 35.1533C39.9277 37.7221 38.9896 39.8003 37.1135 41.3877C35.2375 42.9463 32.8419 43.7256 29.9267 43.7256C27.5311 43.7256 25.3664 43.1628 23.4326 42.0371C21.5277 40.9115 20.0124 39.3673 18.8867 37.4046Z" fill="#141446"/>
<path d="M32.2754 -4.91211L9.47025 48.6082" stroke="#F8F9FB" stroke-width="4.05882"/>
<path d="M21.4306 3.80869H28.0113L15.2828 32.9023H13.3346L0.562824 3.80869H7.18682L14.3304 21.1263L21.4306 3.80869Z" fill="#141446"/>
</g>
<defs>
<clipPath id="clip0">
<rect width="41.9412" height="46" fill="white" transform="translate(0 0.5)"/>
</clipPath>
</defs>
</svg>
