<svg width="180" height="59" fill="none" xmlns="http://www.w3.org/2000/svg"><g clip-path="url(#clip0)"><g clip-path="url(#clip1)" stroke="currentColor"><path d="M113.407 12.424S107.3-2.52 96.941 3.462C86.58 9.442 82.486 24.557 75.499 28.59c-6.986 4.034-6.986-20.756-14.936-16.166s-8.319 34.673-18.184 40.592m100.624-23.018S139.091 3.92 128.938 9.96c-10.152 6.04-12.04 29.03-18.887 33.103-6.847 4.073-6.609-7.836-14.4-3.201S88.74 59.587 72.45 70.4" stroke-width="2"/><rect y="1" width="81.275" height="82.611" rx="21.609" transform="matrix(-.86604 .49997 .86604 .49997 91.95 .215)" stroke-width="2"/><path d="M71.975 70.773l71.029-40.775M41.946 53.218l71.463-40.977" stroke-dasharray="4.52 4.52"/></g></g><defs><clipPath id="clip0"><path fill="#fff" d="M0 0h180v59H0z"/></clipPath><clipPath id="clip1"><path fill="#fff" transform="translate(32)" d="M0 0h158.261v78H0z"/></clipPath></defs></svg>