<svg width="104" height="104" fill="none" xmlns="http://www.w3.org/2000/svg"><path d="M12.162 29.001C24.865 7 52.998-.539 75 12.164 97.001 24.867 104.54 53 91.837 75.001 79.133 97.003 51 104.541 28.998 91.838 6.998 79.136-.54 51.003 12.162 29.001z" fill="#FFF2E9"/><g clip-path="url(#clip0)" fill="#F98181"><path d="M69.363 70.185c-1.873-.751-3.647-2.158-5.13-4.068-1.514-1.948-2.734-4.43-3.528-7.18l-.908-3.145a.935.935 0 00-1.796 0l-.909 3.146c-.794 2.748-2.014 5.231-3.527 7.18-1.484 1.91-3.258 3.316-5.13 4.067a.935.935 0 00-.028 1.723l.291.127c3.718 1.628 6.757 5.636 8.336 10.997l.968 3.285a.935.935 0 001.793 0l.968-3.285c1.58-5.361 4.618-9.37 8.336-10.997l.29-.127a.935.935 0 00-.026-1.723zM58.97 82.504l-.071.242-.072-.242c-1.538-5.22-4.397-9.3-7.967-11.449 1.527-.919 2.95-2.205 4.181-3.791 1.657-2.134 2.987-4.833 3.847-7.807l.01-.039.012.038c.859 2.974 2.19 5.674 3.846 7.808 1.232 1.586 2.654 2.872 4.181 3.791-3.57 2.149-6.429 6.229-7.967 11.449zM39.22 64.314l.146.064c1.738.761 3.167 2.664 3.92 5.22l.486 1.648a.935.935 0 001.793 0l.486-1.648c.753-2.556 2.182-4.459 3.92-5.22l.147-.064a.934.934 0 00-.028-1.723c-1.788-.717-3.309-2.713-4.068-5.338l-.455-1.578a.935.935 0 00-1.796 0l-.456 1.578c-.758 2.625-2.28 4.62-4.068 5.338a.935.935 0 00-.027 1.723zm5.449-5.25c.75 1.886 1.857 3.404 3.195 4.398-1.338 1-2.447 2.529-3.195 4.414-.749-1.885-1.858-3.413-3.196-4.414 1.339-.994 2.445-2.512 3.196-4.397zM46.393 79.966c-1.163-.467-2.159-1.786-2.663-3.53l-.317-1.097a.935.935 0 00-1.795 0l-.318 1.098c-.503 1.743-1.499 3.062-2.662 3.529a.935.935 0 00-.027 1.723l.1.045c1.117.488 2.077 1.778 2.57 3.451l.338 1.147a.935.935 0 001.793 0l.338-1.147c.493-1.673 1.453-2.963 2.569-3.451l.101-.045a.935.935 0 00-.027-1.723zM42.515 83.2c-.462-.958-1.065-1.763-1.768-2.363.703-.597 1.305-1.398 1.768-2.355.464.957 1.066 1.758 1.768 2.355-.702.6-1.305 1.405-1.768 2.363z"/></g><path d="M14.528 60.34l-.604-2.012 10.073.834.177.59-4.81 4.134 6.296.813.177.59-7.947 6.246-.604-2.01 4.637-3.542-6.086-.701-.182-.604 4.667-3.93-5.794-.409zM22.703 55.956l-9.225-.52.35-6.206 1.705.096-.243 4.32 1.873.105.179-3.173 1.607.09-.179 3.174 2.335.131.252-4.487 1.706.096-.36 6.374zM23.622 47.85l-8.864-2.61.534-1.812 7.225 2.126 1.143-3.88 1.638.481-1.676 5.695zM25.19 40.838l-8.102-4.443.909-1.657 6.604 3.621 1.945-3.547 1.498.82-2.854 5.206zM25.631 32.79l-1.227-.997 2.224-2.738 1.228.997-2.225 2.739zM31.36 31.44l-5.652-7.309 2.392-1.85c1.155-.916 2.374-1.323 3.659-1.218 1.278.096 2.324.686 3.137 1.768.837 1.052 1.146 2.222.928 3.512-.218 1.29-.908 2.372-2.072 3.248l-2.392 1.85zm.45-2.507l.886-.685c.739-.57 1.17-1.24 1.295-2.01.12-.776-.092-1.515-.635-2.217-.548-.709-1.2-1.095-1.957-1.158-.757-.064-1.512.196-2.265.778l-.887.685 3.563 4.607zM36.115 22.072c-.46-1.233-.392-2.462.202-3.684.603-1.226 1.538-2.05 2.805-2.472 1.248-.475 2.493-.429 3.736.139 1.251.564 2.09 1.469 2.514 2.715.46 1.233.384 2.464-.228 3.693-.604 1.226-1.538 2.05-2.805 2.472-1.248.475-2.493.429-3.736-.139-1.234-.57-2.063-1.479-2.488-2.724zm7.424-2.648c-.295-.827-.806-1.412-1.533-1.757-.722-.357-1.483-.393-2.283-.108-.809.289-1.381.795-1.717 1.52-.337.724-.356 1.504-.058 2.339s.806 1.427 1.525 1.775c.719.348 1.483.378 2.291.09.8-.286 1.368-.791 1.704-1.515.345-.728.369-1.51.071-2.344zM47.202 18.486c-.032-1.325.437-2.464 1.407-3.416.97-.963 2.127-1.437 3.471-1.423.877-.009 1.673.188 2.386.592a4.373 4.373 0 011.712 1.662l-1.418 1.023c-.673-1.03-1.56-1.538-2.662-1.527-.858.01-1.57.306-2.133.89-.554.585-.826 1.316-.817 2.193.01.877.297 1.598.863 2.161.575.564 1.292.84 2.15.832 1.102-.011 1.978-.539 2.63-1.581l1.439.993a4.374 4.374 0 01-1.663 1.711c-.714.409-1.515.618-2.401.627-1.353.042-2.525-.403-3.514-1.335-.98-.942-1.464-2.076-1.45-3.402zM58.223 19.555l1.649-5.16 1.8.574-1.691 5.295c-.202.631-.181 1.181.06 1.65.245.46.657.783 1.235.968.587.187 1.109.163 1.566-.073.47-.242.805-.679 1.007-1.31l1.69-5.294 1.801.575-1.648 5.16c-.367 1.148-1.012 1.956-1.936 2.425-.924.47-1.928.53-3.013.184-1.093-.35-1.88-.983-2.361-1.9-.472-.916-.525-1.947-.159-3.094zM78.242 23.649l.493.37-5.649 7.523-1.511-1.135 2.959-3.94-3.607.933-.493-.37-.11-3.724-2.959 3.94-1.511-1.134 5.649-7.523.492.37.123 6.342 6.124-1.652zM74.216 33.104l7.514-5.377 3.617 5.055-1.389.994-2.517-3.518-1.526 1.092 1.85 2.584-1.31.937-1.85-2.584-1.9 1.36 2.615 3.655-1.39.994-3.715-5.192zM88.775 41l.641 1.777-8.85 3.193-.213-.593 3.557-6.969-5.215 1.882-.641-1.778 8.85-3.193.209.58-3.527 6.972L88.775 41zM80.996 49.396l7.51-.577-.226-2.945 1.703-.131.598 7.789-1.703.13-.227-2.959-7.51.577-.145-1.884zM81.121 54.511l9.11 1.551-1.044 6.128-1.684-.287.726-4.264-1.85-.315-.532 3.133-1.588-.27.534-3.133-2.305-.393-.754 4.43-1.684-.286 1.071-6.294zM79.215 62.168l8.36 3.935-1.287 2.736c-.61 1.342-1.512 2.26-2.703 2.751-1.182.496-2.381.447-3.598-.146-1.224-.555-2.032-1.457-2.425-2.704-.393-1.247-.271-2.526.365-3.835l1.288-2.737zm.74 2.438l-.476 1.013c-.397.845-.477 1.638-.238 2.38.248.745.772 1.307 1.575 1.684.81.382 1.567.428 2.27.14.703-.288 1.257-.863 1.663-1.724l.477-1.013-5.27-2.48z" fill="#F98181"/><defs><clipPath id="clip0"><path fill="#fff" transform="translate(38 55)" d="M0 0h32v32H0z"/></clipPath></defs></svg>