<svg width="126" height="126" fill="none" xmlns="http://www.w3.org/2000/svg"><path d="M23 39.837C35.703 17.836 63.836 10.297 85.837 23c22.002 12.703 29.54 40.836 16.837 62.837-12.702 22.002-40.835 29.54-62.837 16.837C17.836 89.972 10.297 61.839 23 39.837z" fill="#FFE5D9"/><g clip-path="url(#clip0)" fill="#FF8F8F"><path d="M80.2 81.02c-1.873-.75-3.647-2.157-5.13-4.067-1.514-1.948-2.733-4.43-3.528-7.18l-.909-3.145a.935.935 0 00-1.795 0l-.91 3.146c-.793 2.748-2.013 5.231-3.526 7.18-1.484 1.91-3.258 3.316-5.13 4.067a.935.935 0 00-.028 1.723l.29.127c3.719 1.628 6.757 5.636 8.337 10.997l.968 3.285a.935.935 0 001.793 0l.968-3.285c1.58-5.361 4.618-9.37 8.336-10.997l.29-.127a.934.934 0 00-.026-1.724zM69.807 93.34l-.071.242-.072-.242c-1.538-5.22-4.397-9.3-7.967-11.449 1.527-.919 2.95-2.205 4.181-3.791 1.657-2.134 2.987-4.834 3.847-7.808l.01-.038.012.038c.859 2.974 2.189 5.674 3.846 7.808 1.232 1.586 2.654 2.872 4.181 3.791-3.57 2.149-6.429 6.229-7.967 11.449zM50.056 75.15l.146.064c1.738.76 3.167 2.664 3.92 5.22l.486 1.648a.934.934 0 001.793 0l.486-1.648c.753-2.556 2.182-4.46 3.92-5.22l.146-.064a.935.935 0 00-.027-1.723c-1.788-.717-3.309-2.713-4.068-5.338l-.455-1.578a.935.935 0 00-1.796 0l-.456 1.578c-.759 2.625-2.28 4.62-4.068 5.338a.935.935 0 00-.027 1.723zm5.449-5.25c.75 1.886 1.857 3.404 3.195 4.398-1.338 1-2.447 2.529-3.195 4.414-.749-1.885-1.858-3.413-3.196-4.414 1.339-.994 2.445-2.512 3.196-4.397zm1.725 20.902c-1.165-.467-2.16-1.786-2.664-3.53l-.317-1.097a.935.935 0 00-1.795 0l-.318 1.098c-.503 1.743-1.499 3.062-2.662 3.529a.935.935 0 00-.027 1.723l.1.044c1.117.489 2.077 1.78 2.57 3.452l.338 1.147a.935.935 0 001.793 0l.338-1.147c.493-1.673 1.453-2.963 2.569-3.451l.101-.045a.934.934 0 00-.027-1.724zm-3.879 3.234c-.462-.958-1.065-1.763-1.768-2.364.703-.596 1.305-1.397 1.768-2.354.464.957 1.066 1.758 1.768 2.355-.702.6-1.305 1.404-1.768 2.363z"/></g><path d="M25.366 71.175l-.604-2.01 10.073.833.177.59-4.81 4.134 6.296.813.177.59-7.947 6.246-.604-2.01 4.637-3.543-6.087-.7-.18-.604 4.666-3.93-5.794-.409zm8.176-4.383l-9.225-.52.35-6.206 1.705.096-.243 4.32 1.873.105.178-3.173 1.608.09-.179 3.173 2.334.132.253-4.487 1.706.096-.36 6.374zm.918-8.106l-8.864-2.61.534-1.812 7.225 2.126 1.143-3.881 1.638.482-1.676 5.695zm1.569-7.013l-8.102-4.442.908-1.657 6.605 3.621 1.945-3.547 1.498.82-2.855 5.205zm.441-8.046l-1.227-.998 2.224-2.738 1.228.997-2.225 2.739zm5.728-1.35l-5.653-7.31 2.393-1.85c1.155-.916 2.374-1.323 3.658-1.219 1.279.097 2.325.687 3.138 1.769.837 1.051 1.146 2.222.928 3.511-.218 1.29-.909 2.373-2.072 3.249l-2.392 1.85zm.45-2.508l.886-.685c.739-.57 1.17-1.24 1.295-2.01.12-.776-.092-1.515-.635-2.217-.548-.709-1.2-1.095-1.958-1.158-.756-.064-1.511.196-2.265.778l-.886.685 3.563 4.607zm4.304-6.861c-.46-1.234-.392-2.462.202-3.684.603-1.226 1.538-2.05 2.805-2.472 1.247-.475 2.493-.429 3.736.139 1.251.564 2.09 1.469 2.514 2.715.46 1.233.383 2.464-.229 3.693-.603 1.226-1.537 2.05-2.804 2.472-1.248.475-2.493.429-3.736-.139-1.234-.57-2.063-1.478-2.488-2.724zm7.424-2.649c-.295-.826-.806-1.412-1.533-1.756-.722-.357-1.483-.393-2.283-.108-.809.289-1.381.795-1.718 1.52-.336.724-.355 1.504-.057 2.339s.806 1.427 1.525 1.775c.719.348 1.482.378 2.291.09.8-.286 1.368-.791 1.705-1.516.344-.727.368-1.508.07-2.344zm3.665-.937c-.032-1.325.436-2.464 1.407-3.416.97-.963 2.127-1.437 3.47-1.423.878-.009 1.674.188 2.387.591a4.373 4.373 0 011.712 1.663l-1.418 1.023c-.673-1.03-1.56-1.538-2.662-1.527-.858.01-1.57.306-2.133.89-.554.585-.826 1.316-.817 2.193.01.877.297 1.598.863 2.161.575.564 1.292.84 2.15.832 1.102-.012 1.978-.539 2.63-1.582l1.439.994a4.374 4.374 0 01-1.663 1.71c-.714.41-1.515.619-2.401.628-1.353.042-2.525-.403-3.515-1.336-.98-.941-1.463-2.075-1.449-3.4zm11.02 1.069l1.649-5.16 1.8.574-1.691 5.295c-.202.631-.182 1.181.06 1.65.245.46.657.783 1.235.968.587.187 1.109.163 1.566-.073.47-.242.805-.679 1.006-1.31l1.691-5.294 1.8.575-1.648 5.16c-.366 1.148-1.011 1.956-1.935 2.425-.924.469-1.928.53-3.013.184-1.093-.35-1.88-.983-2.362-1.9-.471-.916-.524-1.947-.158-3.094zm20.02 4.094l.493.37-5.649 7.523-1.511-1.135 2.959-3.94-3.607.933-.493-.37-.11-3.724-2.959 3.94-1.511-1.134 5.648-7.523.493.37.123 6.341 6.124-1.651zm-4.027 9.455l7.515-5.377 3.617 5.055-1.39.994-2.517-3.518-1.525 1.092 1.85 2.584-1.31.937-1.85-2.584-1.9 1.36 2.614 3.655-1.389.994-3.715-5.192zm14.558 7.895l.642 1.778-8.85 3.193-.213-.593 3.557-6.969-5.215 1.882-.641-1.778 8.85-3.193.209.58-3.527 6.972 5.188-1.872zm-7.778 8.397l7.51-.577-.226-2.945 1.703-.131.598 7.789-1.703.13-.227-2.959-7.51.577-.145-1.884zm.124 5.115l9.109 1.551-1.043 6.128-1.684-.287.726-4.264-1.85-.315-.533 3.133-1.587-.27.534-3.133-2.305-.393-.755 4.43-1.683-.286 1.071-6.294zm-1.905 7.657l8.36 3.935-1.287 2.736c-.611 1.342-1.512 2.26-2.703 2.75-1.182.497-2.381.448-3.598-.145-1.224-.555-2.032-1.457-2.425-2.704-.393-1.247-.271-2.526.365-3.835l1.288-2.737zm.74 2.438l-.476 1.013c-.398.845-.477 1.638-.238 2.38.248.745.772 1.307 1.575 1.684.81.382 1.567.428 2.27.14.703-.288 1.257-.863 1.662-1.724l.477-1.014-5.27-2.48z" fill="#FF8F8F"/><defs><clipPath id="clip0"><path fill="#fff" transform="translate(48.837 65.836)" d="M0 0h32v32H0z"/></clipPath></defs></svg>