<svg width="28" height="28" viewBox="0 0 28 28" fill="none" xmlns="http://www.w3.org/2000/svg">
<path d="M26.1335 7.03784L14.0024 0V4.86957L26.1335 11.8772L26.1335 7.03784Z" fill="#FF6492"/>
<path d="M26.1335 11.8768L22.4942 13.9996L14.0002 9.08066L9.14683 11.8807L5.50684 9.91309L14.0024 4.86914L26.1335 11.8768Z" fill="#141446"/>
<path d="M9.14684 11.8816L5.50684 9.91406V14.0005L9.14684 11.8816Z" fill="#A14474"/>
<path d="M1.8667 20.9622L14 14L26.1334 20.9622L14 28L1.8667 20.9622Z" fill="#141446"/>
<path d="M26.1333 16.1309L14 9.00586V14.0005L26.1333 20.9626L26.1333 16.1309Z" fill="#FF6492"/>
<path d="M5.5067 14V9.91351L14.0023 4.86957V0L1.8667 7.03784V20.9622L14 14V9.00541L5.5067 14Z" fill="#7A77FF"/>
</svg>
