<?xml version="1.0" standalone="no"?>
<!DOCTYPE svg PUBLIC "-//W3C//DTD SVG 20010904//EN"
 "http://www.w3.org/TR/2001/REC-SVG-20010904/DTD/svg10.dtd">
<svg version="1.0" xmlns="http://www.w3.org/2000/svg"
 width="700.000000pt" height="700.000000pt" viewBox="0 0 700.000000 700.000000"
 preserveAspectRatio="xMidYMid meet">
<metadata>
Created by potrace 1.14, written by Peter Selinger 2001-2017
</metadata>
<g transform="translate(0.000000,700.000000) scale(0.100000,-0.100000)"
fill="#000000" stroke="none">
<path d="M3459 6974 c-18 -13 -36 -24 -40 -24 -6 0 -214 -120 -564 -325 -143
-84 -1015 -589 -1065 -617 -25 -14 -126 -72 -225 -130 -99 -58 -263 -154 -365
-213 -102 -59 -207 -120 -235 -136 -106 -59 -481 -278 -490 -286 -10 -9 -14
-3478 -4 -3486 4 -3 562 -326 635 -367 29 -17 173 -102 204 -120 97 -60 554
-320 561 -320 5 0 9 -4 9 -8 0 -4 12 -13 28 -20 15 -6 43 -21 62 -33 40 -24
457 -267 510 -296 19 -11 98 -57 174 -102 76 -44 140 -81 142 -81 1 0 39 -22
84 -50 45 -27 83 -50 85 -50 2 0 28 -14 57 -32 29 -17 149 -87 266 -154 l213
-124 122 72 c67 39 136 78 152 88 75 43 429 248 510 295 50 29 205 119 345
201 283 163 300 173 520 301 85 49 232 134 325 188 94 54 244 142 335 195 91
53 172 99 180 103 8 4 29 16 45 26 17 10 134 78 260 151 127 73 232 135 234
137 5 4 8 1157 3 1193 -3 16 -15 31 -35 41 -18 8 -169 96 -337 195 -168 99
-355 209 -417 244 -62 36 -112 68 -113 71 0 3 15 13 33 22 69 37 147 83 159
95 7 7 16 12 20 12 5 0 41 20 81 44 39 24 187 110 327 191 140 81 261 154 269
161 12 11 15 105 15 610 1 328 -1 599 -4 603 -3 4 -93 57 -200 119 -107 62
-202 117 -210 122 -27 16 -184 108 -220 128 -19 11 -181 105 -360 209 -179
104 -494 287 -700 407 -206 120 -382 222 -390 226 -24 15 -551 321 -590 342
-212 121 -269 154 -291 169 -54 37 -74 40 -110 13z"/>
</g>
</svg>
