<svg viewBox="0 0 235 40" xmlns="http://www.w3.org/2000/svg" fill-rule="evenodd" clip-rule="evenodd" stroke-linejoin="round" stroke-miterlimit="2"><path d="M205.993 25.658v-7.946h-13.541l-7.947 7.946h21.488z" fill="#ff8b00" fill-rule="nonzero"/><path d="M221.25 5.95h-16.974l-8.01 7.947h24.984V5.951z" fill="#55b2c6" fill-rule="nonzero"/><path d="M176.622 33.605l4.07-4.069h13.73v7.947h-17.8v-3.878z" fill="red" fill-rule="nonzero"/><path d="M179.61 21.78h8.773l8.01-7.946H179.61v7.946zM170.01 33.605h6.612l7.883-7.947h-14.494v7.947zM204.276 5.95l-4.068 4.07H174.27V2.072h30.006V5.95z" fill="#b4bbbf" fill-rule="nonzero"/><path d="M33.84 32.206H21.378l-2.162 5.34H13.75l11.507-26.954h4.768L41.53 37.546h-5.53l-2.162-5.34zm-1.717-4.26L27.609 16.95l-4.514 10.998h9.028zM117.437 20.509c1.589-2.352 5.594-2.607 7.247-2.607v4.578c-2.034 0-4.069.063-5.277.953-1.207.89-1.843 2.098-1.843 3.56v10.553h-4.959V17.902h4.768l.064 2.607z" fill="#fff" fill-rule="nonzero"/><path fill="#fff" d="M127.418 17.902h4.958v19.644h-4.958zM127.418 9.13h4.958v5.848h-4.958z"/><path d="M156.979 9.13v28.416h-4.768l-.127-2.988a8.31 8.31 0 0 1-2.67 2.48c-1.081.572-2.416.89-3.942.89-1.335 0-2.606-.255-3.687-.7-1.144-.508-2.162-1.144-2.988-2.034a9.573 9.573 0 0 1-1.97-3.179c-.51-1.207-.7-2.606-.7-4.132 0-1.525.254-2.924.7-4.196.508-1.271 1.144-2.352 1.97-3.242.826-.89 1.844-1.589 2.988-2.098 1.144-.508 2.352-.762 3.687-.762 1.526 0 2.797.254 3.878.826 1.08.572 1.97 1.335 2.67 2.416V9.193h4.959v-.064zm-10.426 24.538c1.653 0 2.924-.572 3.941-1.653 1.017-1.08 1.526-2.542 1.526-4.322 0-1.78-.509-3.18-1.526-4.323-1.017-1.081-2.288-1.653-3.941-1.653-1.59 0-2.925.572-3.878 1.653-1.017 1.08-1.526 2.543-1.526 4.323 0 1.78.509 3.178 1.526 4.259 1.017 1.144 2.288 1.716 3.878 1.716M70.202 22.352H57.933v4.26h6.993c-.19 2.161-1.017 3.814-2.416 5.15-1.398 1.27-3.178 1.906-5.467 1.906-1.271 0-2.48-.254-3.497-.699a7.025 7.025 0 0 1-2.733-1.97c-.763-.827-1.335-1.844-1.78-3.052-.445-1.208-.636-2.48-.636-3.942 0-1.462.19-2.733.636-3.941.381-1.208 1.017-2.162 1.78-3.052.763-.826 1.653-1.462 2.733-1.97a9.115 9.115 0 0 1 3.56-.7c2.67 0 4.705.636 6.103 1.908l3.306-3.306c-2.48-1.907-5.658-2.925-9.408-2.925-2.098 0-4.006.318-5.722 1.018-1.716.699-3.179 1.589-4.386 2.797A12.074 12.074 0 0 0 44.2 18.22c-.635 1.717-.953 3.624-.953 5.658 0 2.035.318 3.942 1.017 5.658.7 1.717 1.59 3.179 2.797 4.387a12.074 12.074 0 0 0 4.387 2.797c1.716.7 3.623 1.017 5.658 1.017 2.034 0 3.877-.318 5.53-1.017 1.653-.7 3.052-1.59 4.196-2.797 1.144-1.208 2.034-2.67 2.67-4.387.636-1.716.954-3.623.954-5.658v-.826c-.191-.127-.255-.445-.255-.7M108.982 22.352h-12.27v4.26h6.993c-.19 2.161-1.017 3.814-2.416 5.15-1.398 1.27-3.178 1.906-5.467 1.906-1.271 0-2.48-.254-3.496-.699a7.025 7.025 0 0 1-2.734-1.97c-.763-.827-1.335-1.844-1.78-3.052-.445-1.208-.636-2.48-.636-3.942 0-1.462.191-2.733.636-3.941.381-1.208 1.017-2.162 1.78-3.052.763-.826 1.653-1.462 2.734-1.97a9.115 9.115 0 0 1 3.56-.7c2.67 0 4.704.636 6.103 1.908l3.305-3.306c-2.479-1.907-5.658-2.925-9.408-2.925-2.098 0-4.005.318-5.722 1.018-1.716.699-3.178 1.589-4.386 2.797a12.074 12.074 0 0 0-2.798 4.386c-.635 1.717-.953 3.624-.953 5.658 0 2.035.318 3.942 1.017 5.658.7 1.717 1.59 3.179 2.797 4.387a12.074 12.074 0 0 0 4.387 2.797c1.716.7 3.623 1.017 5.658 1.017 2.034 0 3.878-.318 5.53-1.017 1.653-.7 3.052-1.59 4.196-2.797 1.145-1.208 2.035-2.67 2.67-4.387.636-1.716.954-3.623.954-5.658v-.826c-.19-.127-.254-.445-.254-.7" fill="#fff" fill-rule="nonzero"/></svg>