<svg width="58" height="18" viewBox="0 0 58 18" fill="none" xmlns="http://www.w3.org/2000/svg">
<g clip-path="url(#clip0)">
<path d="M30.3963 4.52252C30.3963 5.17117 29.8738 5.69369 29.2251 5.69369C28.5765 5.69369 28.054 5.17117 28.054 4.52252C28.054 3.87387 28.5585 3.35135 29.2251 3.35135C29.8918 3.36937 30.3963 3.89189 30.3963 4.52252ZM25.5675 6.88288C25.5675 6.99099 25.5675 7.17117 25.5675 7.17117C25.5675 7.17117 25.0089 6.45045 23.8197 6.45045C21.8558 6.45045 20.3242 7.94595 20.3242 10.018C20.3242 12.0721 21.8378 13.5856 23.8197 13.5856C25.0269 13.5856 25.5675 12.8468 25.5675 12.8468V13.1532C25.5675 13.2973 25.6756 13.4054 25.8197 13.4054H27.2792V6.63063C27.2792 6.63063 25.9459 6.63063 25.8197 6.63063C25.6756 6.63063 25.5675 6.75676 25.5675 6.88288ZM25.5675 11.2252C25.2972 11.6216 24.7567 11.964 24.108 11.964C22.9549 11.964 22.072 11.2432 22.072 10.018C22.072 8.79279 22.9549 8.07207 24.108 8.07207C24.7387 8.07207 25.3152 8.43243 25.5675 8.81081V11.2252ZM28.3603 6.63063H30.09V13.4054H28.3603V6.63063ZM54.1981 6.45045C53.0089 6.45045 52.4504 7.17117 52.4504 7.17117V3.36937H50.7206V13.4054C50.7206 13.4054 52.054 13.4054 52.1801 13.4054C52.3242 13.4054 52.4323 13.2793 52.4323 13.1532V12.8468C52.4323 12.8468 52.9909 13.5856 54.1801 13.5856C56.1441 13.5856 57.6756 12.0721 57.6756 10.018C57.6756 7.96396 56.1441 6.45045 54.1981 6.45045ZM53.9098 11.9459C53.2432 11.9459 52.7206 11.6036 52.4504 11.2072V8.79279C52.7206 8.43243 53.2972 8.05405 53.9098 8.05405C55.063 8.05405 55.9459 8.77477 55.9459 10C55.9459 11.2252 55.063 11.9459 53.9098 11.9459ZM49.8197 9.38739V13.4234H48.09V9.58559C48.09 8.46847 47.7296 8.01802 46.7567 8.01802C46.2341 8.01802 45.6936 8.28829 45.3513 8.68468V13.4054H43.6215V6.63063H44.9909C45.135 6.63063 45.2432 6.75676 45.2432 6.88288V7.17117C45.7477 6.64865 46.4143 6.45045 47.081 6.45045C47.8377 6.45045 48.4684 6.66667 48.9729 7.0991C49.5855 7.6036 49.8197 8.25225 49.8197 9.38739ZM39.4233 6.45045C38.2341 6.45045 37.6756 7.17117 37.6756 7.17117V3.36937H35.9459V13.4054C35.9459 13.4054 37.2792 13.4054 37.4053 13.4054C37.5495 13.4054 37.6576 13.2793 37.6576 13.1532V12.8468C37.6576 12.8468 38.2161 13.5856 39.4053 13.5856C41.3693 13.5856 42.9008 12.0721 42.9008 10.018C42.9188 7.96396 41.3873 6.45045 39.4233 6.45045ZM39.135 11.9459C38.4684 11.9459 37.9459 11.6036 37.6756 11.2072V8.79279C37.9459 8.43243 38.5224 8.05405 39.135 8.05405C40.2882 8.05405 41.1711 8.77477 41.1711 10C41.1711 11.2252 40.2882 11.9459 39.135 11.9459ZM34.4504 6.45045C34.9729 6.45045 35.2432 6.54054 35.2432 6.54054V8.14414C35.2432 8.14414 33.8017 7.65766 32.9008 8.68468V13.4234H31.1711V6.63063C31.1711 6.63063 32.5044 6.63063 32.6305 6.63063C32.7747 6.63063 32.8828 6.75676 32.8828 6.88288V7.17117C33.2071 6.79279 33.9098 6.45045 34.4504 6.45045ZM16.4864 12.7928C16.3963 12.5766 16.3062 12.3423 16.2161 12.1441C16.072 11.8198 15.9278 11.5135 15.8017 11.2252L15.7837 11.2072C14.5405 8.5045 13.2071 5.76577 11.8017 3.06306L11.7477 2.95495C11.6035 2.68468 11.4594 2.3964 11.3152 2.10811C11.135 1.78378 10.9549 1.44144 10.6666 1.11712C10.09 0.396396 9.26118 0 8.37829 0C7.47739 0 6.66658 0.396396 6.07199 1.08108C5.80172 1.40541 5.60352 1.74775 5.42334 2.07207C5.27919 2.36036 5.13505 2.64865 4.99091 2.91892L4.93685 3.02703C3.54946 5.72973 2.19811 8.46847 0.95487 11.1712L0.936851 11.2072C0.810725 11.4955 0.666581 11.8018 0.522437 12.1261C0.432347 12.3243 0.342257 12.5405 0.252167 12.7748C0.0179326 13.4414 -0.0541395 14.0721 0.0359506 14.7207C0.234149 16.0721 1.13505 17.2072 2.37829 17.7117C2.84676 17.9099 3.33325 18 3.83775 18C3.9819 18 4.16208 17.982 4.30622 17.964C4.90082 17.8919 5.51343 17.6937 6.10802 17.3514C6.84676 16.9369 7.54946 16.3423 8.34226 15.4775C9.13505 16.3423 9.85577 16.9369 10.5765 17.3514C11.1711 17.6937 11.7837 17.8919 12.3783 17.964C12.5224 17.982 12.7026 18 12.8468 18C13.3513 18 13.8558 17.9099 14.3062 17.7117C15.5675 17.2072 16.4504 16.0541 16.6486 14.7207C16.7927 14.0901 16.7206 13.4595 16.4864 12.7928ZM8.36028 13.7297C7.3873 12.5045 6.75667 11.3514 6.54046 10.3784C6.45037 9.96396 6.43235 9.6036 6.4864 9.27928C6.52244 8.99099 6.63055 8.73874 6.77469 8.52252C7.11703 8.03604 7.69361 7.72973 8.36028 7.72973C9.02694 7.72973 9.62154 8.01802 9.94586 8.52252C10.09 8.73874 10.1981 8.99099 10.2341 9.27928C10.2882 9.6036 10.2702 9.98198 10.1801 10.3784C9.96388 11.3333 9.33325 12.4865 8.36028 13.7297ZM15.5495 14.5766C15.4233 15.5135 14.7927 16.3243 13.9098 16.6847C13.4774 16.8649 13.0089 16.9189 12.5405 16.8649C12.09 16.8108 11.6396 16.6667 11.1711 16.3964C10.5224 16.036 9.87379 15.4775 9.11703 14.6486C10.3062 13.1892 11.0269 11.8559 11.2972 10.6667C11.4233 10.1081 11.4414 9.6036 11.3873 9.13513C11.3152 8.68468 11.1531 8.27027 10.9008 7.90991C10.3423 7.0991 9.40532 6.63063 8.36028 6.63063C7.31523 6.63063 6.37829 7.11712 5.81973 7.90991C5.56748 8.27027 5.40532 8.68468 5.33325 9.13513C5.26118 9.6036 5.27919 10.1261 5.42334 10.6667C5.69361 11.8559 6.43235 13.2072 7.60352 14.6667C6.86478 15.4955 6.19811 16.0541 5.54946 16.4144C5.081 16.6847 4.63055 16.8288 4.18009 16.8829C3.69361 16.9369 3.22514 16.8649 2.81073 16.7027C1.92784 16.3423 1.29721 15.5315 1.17109 14.5946C1.11703 14.1441 1.15307 13.6937 1.33325 13.1892C1.3873 13.009 1.47739 12.8288 1.56748 12.6126C1.69361 12.3243 1.83775 12.018 1.9819 11.7117L1.99991 11.6757C3.24316 8.99099 4.57649 6.25225 5.96388 3.58559L6.01793 3.47748C6.16208 3.20721 6.30622 2.91892 6.45037 2.64865C6.59451 2.36036 6.75667 2.09009 6.95487 1.85586C7.33325 1.42342 7.83775 1.18919 8.39631 1.18919C8.95487 1.18919 9.45937 1.42342 9.83775 1.85586C10.036 2.09009 10.1981 2.36036 10.3423 2.64865C10.4864 2.91892 10.6305 3.20721 10.7747 3.47748L10.8287 3.58559C12.1981 6.27027 13.5314 9.00901 14.7747 11.6937V11.7117C14.9188 12 15.045 12.3243 15.1891 12.6126C15.2792 12.8288 15.3693 13.009 15.4233 13.1892C15.5675 13.6577 15.6215 14.1081 15.5495 14.5766Z" fill="#FF5A5F"/>
</g>
<defs>
<clipPath id="clip0">
<rect width="57.6757" height="18" fill="white"/>
</clipPath>
</defs>
</svg>
