<svg width="200" height="200" viewBox="0 0 200 200" fill="none" xmlns="http://www.w3.org/2000/svg">
<rect width="200" height="200" fill="white"/>
<path d="M45.1386 50.0148C45.0267 50.0148 44.9147 50.0148 44.796 50.0234C44.6106 50.0283 44.5202 50.0347 44.4299 50.0425C44.2445 50.0596 44.1347 50.0728 44.0258 50.0884C43.8612 50.114 43.7761 50.1286 43.691 50.1449C43.4884 50.1844 43.3831 50.2068 43.279 50.2324C43.1525 50.2644 43.0585 50.29 42.9655 50.3166C42.789 50.371 42.7144 50.3952 42.6398 50.4201C42.4569 50.4834 42.3621 50.5189 42.2681 50.5566C42.1024 50.6252 42.0374 50.6529 41.9725 50.6814L41.8605 50.7315C41.7859 50.767 41.7113 50.8026 41.6366 50.8381L41.5146 50.9021C41.453 50.9352 41.3914 50.9682 41.331 51.0024L41.2101 51.0728L41.0589 51.1655L40.947 51.2381C40.8723 51.2871 40.7977 51.3372 40.7231 51.3884L40.5921 51.4876L40.4734 51.5761L40.3458 51.6753L40.2338 51.7681C40.1592 51.8285 40.0879 51.8904 40.02 51.9537L39.9282 52.0369C39.8841 52.0774 39.8409 52.1186 39.7983 52.1606L39.7188 52.2395C39.6278 52.3312 39.5393 52.425 39.4535 52.521C39.3852 52.5989 39.3426 52.6479 39.3012 52.6981L39.2408 52.7717C39.1993 52.8228 39.1579 52.8783 39.1187 52.9252C39.0098 53.0706 38.9329 53.1773 38.859 53.2846L38.8165 53.3475C38.7791 53.4037 38.7418 53.4606 38.7045 53.5182L38.6642 53.5843L38.6328 53.6376L53.4178 62.289L56.5481 65.6281C56.2208 65.1331 56.1928 64.5101 56.4744 63.9903C56.756 63.4704 57.3053 63.1312 57.9184 63.0984H108.294C108.472 63.1112 108.65 63.1197 108.832 63.1197C112.587 63.0666 115.605 60.1572 115.616 56.5798C115.627 53.0024 112.627 50.0762 108.872 50.0021L45.1386 50.0148Z" fill="url(#paint0_linear_82_6)"/>
<path d="M126.336 94.2087L101.358 137.227C101.062 137.731 100.526 138.049 99.9391 138.068C99.3521 138.087 98.7963 137.806 98.4668 137.323L82.5955 109.993C82.4653 109.682 82.3119 109.381 82.1365 109.093L55.7325 63.5138C54.2139 60.783 54.2072 57.4692 55.7149 54.7325C57.2225 51.9957 60.0344 50.2173 63.1662 50.0198L45.2395 50.0033C44.1183 49.9698 43.0041 50.1908 41.9816 50.6495C41.8154 50.7256 41.6841 50.7899 41.5546 50.8579C41.2082 51.0492 41.1273 51.0986 41.0471 51.1498L40.6588 51.4131C40.4591 51.5626 40.3981 51.6109 40.3378 51.6599C40.1837 51.7886 40.1285 51.8369 40.0741 51.8859C39.9351 52.0121 39.8645 52.0801 39.7961 52.1492C39.6607 52.2863 39.5997 52.3514 39.5401 52.418C39.4364 52.5332 39.3691 52.6133 39.3029 52.6944C39.1816 52.8425 39.1198 52.9237 39.0591 53.006C38.983 53.1091 38.9212 53.2002 38.8605 53.2923C38.7546 53.4547 38.6961 53.5491 38.6399 53.6467C37.1235 55.9754 37.1551 58.8024 38.5262 61.0695L39.176 62.1973L93.3808 155.558C93.9132 156.54 94.6637 157.388 95.5752 158.039C95.7241 158.143 95.8458 158.224 95.9701 158.302C96.314 158.499 96.3975 158.544 96.4821 158.587L96.9013 158.786C97.1326 158.883 97.2062 158.911 97.2797 158.939C97.4691 159.006 97.5386 159.03 97.6085 159.052C97.7883 159.108 97.8821 159.134 97.977 159.16C98.1652 159.206 98.2524 159.226 98.3399 159.245C98.4911 159.277 98.5948 159.295 98.6985 159.311C98.8882 159.339 98.9897 159.353 99.0923 159.363C99.2225 159.374 99.3328 159.381 99.4432 159.388C99.6362 159.388 99.7466 159.397 99.8569 159.397C100.009 159.397 100.102 159.397 100.193 159.39C100.39 159.385 100.49 159.377 100.594 159.366C100.723 159.355 100.833 159.341 100.935 159.325C101.118 159.297 101.212 159.28 101.304 159.262C101.449 159.233 101.549 159.209 101.65 159.185C101.827 159.139 101.909 159.115 101.989 159.091C102.151 159.041 102.243 159.009 102.336 158.977C102.513 158.912 102.58 158.886 102.646 158.858C102.826 158.782 102.91 158.745 102.992 158.709L103.27 158.569C103.493 158.449 103.554 158.415 103.612 158.38C103.951 158.166 104.038 158.107 104.124 158.045C104.206 157.987 104.304 157.913 104.418 157.825C104.585 157.693 104.745 157.554 104.9 157.409C105.1 157.219 105.255 157.058 105.402 156.889C105.568 156.698 105.713 156.515 105.849 156.325C105.986 156.133 106.114 155.934 106.233 155.728L107.7 153.23L108.02 152.682L138.026 101.009C139.333 98.9324 139.403 96.3135 138.209 94.1701C137.015 92.0268 134.745 90.6969 132.281 90.697C129.805 90.7029 127.525 92.047 126.336 94.2087Z" fill="url(#paint1_linear_82_6)"/>
<path d="M155.247 50H130.012C126.358 50.0716 123.43 53.3099 123.43 57.28C123.43 61.2501 126.358 64.4884 130.012 64.56C130.189 64.56 130.362 64.5505 130.535 64.5363H141.962C142.799 64.6611 143.423 65.4379 143.423 66.3557C143.423 66.5639 143.39 66.7705 143.326 66.9665L137.302 78.3009C135.529 81.8312 136.727 86.2541 139.977 88.1798C143.227 90.1054 147.299 88.8046 149.072 85.2743L161.534 61.8303C161.649 61.6164 161.753 61.3963 161.849 61.1698L161.861 61.1402C161.92 60.9989 161.975 60.8557 162.027 60.7105L162.036 60.688C162.059 60.6217 162.082 60.5542 162.103 60.4868L162.136 60.3826C162.165 60.2887 162.192 60.1936 162.218 60.0973C162.233 60.0429 162.247 59.9872 162.261 59.9328C162.275 59.8783 162.286 59.8274 162.298 59.7753C162.31 59.7232 162.328 59.6392 162.342 59.5705C162.352 59.522 162.362 59.4735 162.37 59.4249C162.387 59.3326 162.402 59.2395 162.416 59.1456C162.422 59.1069 162.427 59.0674 162.432 59.0272C162.446 58.9278 162.457 58.8272 162.467 58.7265C162.467 58.7123 162.467 58.6993 162.467 58.6851C162.478 58.5667 162.486 58.4484 162.491 58.3371C162.491 58.3071 162.491 58.2767 162.491 58.2459C162.491 58.1276 162.5 58.0092 162.5 57.8908C162.503 53.5366 159.256 50.0039 155.247 50Z" fill="url(#paint2_linear_82_6)"/>
<path d="M115.177 78.9502C114.593 77.9595 113.513 77.3491 112.344 77.3492H87.6312C86.4624 77.3489 85.3822 77.959 84.7978 78.9496C84.2133 79.9402 84.2134 81.1607 84.798 82.1512L97.1557 103.098C97.74 104.088 98.8198 104.698 99.9883 104.698C101.157 104.698 102.237 104.088 102.821 103.098L115.177 82.1523C115.762 81.1619 115.762 79.9417 115.177 78.9513V78.9502Z" fill="url(#paint3_linear_82_6)"/>
<defs>
<linearGradient id="paint0_linear_82_6" x1="38.6359" y1="57.814" x2="115.717" y2="57.814" gradientUnits="userSpaceOnUse">
<stop stop-color="#6500FF"/>
<stop offset="0.16" stop-color="#6A09FF"/>
<stop offset="0.43" stop-color="#7623FF"/>
<stop offset="0.77" stop-color="#8A4CFF"/>
<stop offset="0.99" stop-color="#996BFF"/>
</linearGradient>
<linearGradient id="paint1_linear_82_6" x1="88.283" y1="159.41" x2="88.283" y2="50" gradientUnits="userSpaceOnUse">
<stop stop-color="#6500FF"/>
<stop offset="0.16" stop-color="#6909FF"/>
<stop offset="0.43" stop-color="#7523FF"/>
<stop offset="0.77" stop-color="#894CFF"/>
<stop offset="0.99" stop-color="#976BFF"/>
</linearGradient>
<linearGradient id="paint2_linear_82_6" x1="142.908" y1="89.1699" x2="142.908" y2="50" gradientUnits="userSpaceOnUse">
<stop stop-color="#FF6E06"/>
<stop offset="0.28" stop-color="#FF770C"/>
<stop offset="0.75" stop-color="#FF911C"/>
<stop offset="1" stop-color="#FFA126"/>
</linearGradient>
<linearGradient id="paint3_linear_82_6" x1="18010.1" y1="16448.6" x2="18010.1" y2="9655.85" gradientUnits="userSpaceOnUse">
<stop stop-color="#FF6E06"/>
<stop offset="0.28" stop-color="#FF770C"/>
<stop offset="0.75" stop-color="#FF911C"/>
<stop offset="1" stop-color="#FFA126"/>
</linearGradient>
</defs>
</svg>
