<svg width="60" height="60" viewBox="0 0 60 60" fill="none" xmlns="http://www.w3.org/2000/svg">
<rect x="12.053" y="12.0531" width="40.3125" height="40.3125" fill="#FE6C2D"/>
<path d="M8.20093 8.20099H48.5134V48.5135H8.20093V8.20099Z" fill="white"/>
<path fill-rule="evenodd" clip-rule="evenodd" d="M48.0447 8.66974H8.66968V48.0447H48.0447V8.66974ZM8.20093 8.20099V48.5135H48.5134V8.20099H8.20093Z" fill="black"/>
<path d="M16.0118 21.1371C16.988 19.9187 18.6639 19.3095 21.0395 19.3095C22.5858 19.3095 23.9593 19.6099 25.1601 20.2106C26.3609 20.8114 26.9613 21.9452 26.9613 23.612V29.958C26.9613 30.3979 26.9699 30.931 26.9872 31.5571C27.031 32.3577 27.4851 33.4736 27.4851 33.4736H24.119C24.119 33.4736 23.888 32.5484 23.8349 31.9067C22.3642 33.4693 21.0326 33.8222 18.9403 33.8222C17.6618 33.8222 16.6088 33.3529 15.7708 32.6421C14.9415 31.9229 14.4178 31.127 14.4178 29.8155C14.4178 28.1148 15.1911 26.8612 16.5301 26.0996C17.2644 25.685 18.3172 25.4877 19.7426 25.31C20.4981 25.2185 21.8344 25.1881 22.478 25.0589C23.1217 24.9297 23.7173 24.5958 23.7173 23.7887C23.7173 22.1704 22.4696 21.9309 21.1761 21.9309C20.3036 21.9309 19.423 22.1626 18.9819 22.677C18.5826 23.1426 18.5124 23.5867 18.4261 24.1197H14.9752C15.0529 22.9098 15.3985 21.9156 16.0118 21.1371ZM20.0236 31.3038C20.8184 31.3038 21.6846 31.1728 22.3497 30.7159C23.5813 29.8808 23.7173 28.1865 23.7173 26.8816C22.4404 27.669 20.1383 27.2427 18.8605 27.9808C18.2904 28.3107 17.9659 28.859 17.9659 29.5528C17.9659 30.6225 18.9631 31.3038 20.0236 31.3038Z" fill="black"/>
<rect x="29.5565" y="35.3134" width="13.1945" height="2.69763" fill="black"/>
</svg>
