<svg width="60" height="60" viewBox="0 0 60 60" fill="none" xmlns="http://www.w3.org/2000/svg">
<path d="M10.476 32.8761C10.0451 32.8761 9.6459 32.7745 9.27852 32.5713C8.91114 32.3681 8.62501 32.1058 8.42013 31.7846V32.7778H7.77368V25.5994H8.49431V28.7264C8.74158 28.379 9.03831 28.1004 9.38449 27.8906C9.73068 27.6743 10.1369 27.5661 10.6032 27.5661C10.9847 27.5661 11.3309 27.6415 11.6418 27.7923C11.9526 27.9431 12.214 28.1463 12.426 28.4019C12.645 28.6511 12.811 28.9362 12.924 29.2574C13.0441 29.5721 13.1042 29.8966 13.1042 30.2309C13.1042 30.5915 13.0371 30.9324 12.9028 31.2536C12.7686 31.5748 12.5814 31.8567 12.3412 32.0993C12.108 32.3353 11.829 32.5254 11.504 32.6696C11.1861 32.8073 10.8434 32.8761 10.476 32.8761ZM10.3065 32.2861C10.6103 32.2861 10.8858 32.2304 11.1331 32.1189C11.3874 32.0009 11.6029 31.8469 11.7795 31.6568C11.9632 31.4601 12.1045 31.2405 12.2034 30.9979C12.3094 30.7488 12.3624 30.4932 12.3624 30.2309C12.3624 29.9622 12.3129 29.7032 12.214 29.4541C12.1222 29.205 11.9879 28.9854 11.8113 28.7953C11.6418 28.5986 11.4369 28.4446 11.1967 28.3331C10.9564 28.2151 10.6915 28.1561 10.4019 28.1561C10.1828 28.1561 9.97795 28.1922 9.7872 28.2643C9.59644 28.3298 9.41982 28.4216 9.25732 28.5396C9.09483 28.6576 8.94647 28.7953 8.81223 28.9526C8.68506 29.1034 8.57909 29.264 8.49431 29.4344V31.0274C8.52257 31.2044 8.59675 31.3716 8.71685 31.5289C8.84402 31.6797 8.99592 31.8108 9.17255 31.9223C9.34917 32.0337 9.53639 32.1222 9.73421 32.1878C9.93203 32.2533 10.1228 32.2861 10.3065 32.2861Z" fill="black"/>
<path d="M22.1512 32.8761C21.7202 32.8761 21.3211 32.7745 20.9537 32.5713C20.5863 32.3681 20.3002 32.1058 20.0953 31.7846V32.7778H19.4489V25.5994H20.1695V28.7264C20.4168 28.379 20.7135 28.1004 21.0597 27.8906C21.4058 27.6743 21.8121 27.5661 22.2784 27.5661C22.6599 27.5661 23.0061 27.6415 23.3169 27.7923C23.6278 27.9431 23.8892 28.1463 24.1011 28.4019C24.3202 28.6511 24.4862 28.9362 24.5992 29.2574C24.7193 29.5721 24.7794 29.8966 24.7794 30.2309C24.7794 30.5915 24.7123 30.9324 24.578 31.2536C24.4438 31.5748 24.2566 31.8567 24.0164 32.0993C23.7832 32.3353 23.5041 32.5254 23.1792 32.6696C22.8612 32.8073 22.5186 32.8761 22.1512 32.8761ZM21.9816 32.2861C22.2854 32.2861 22.561 32.2304 22.8082 32.1189C23.0626 32.0009 23.2781 31.8469 23.4547 31.6568C23.6384 31.4601 23.7797 31.2405 23.8786 30.9979C23.9846 30.7488 24.0376 30.4932 24.0376 30.2309C24.0376 29.9622 23.9881 29.7032 23.8892 29.4541C23.7973 29.205 23.6631 28.9854 23.4865 28.7953C23.3169 28.5986 23.112 28.4446 22.8718 28.3331C22.6316 28.2151 22.3667 28.1561 22.077 28.1561C21.858 28.1561 21.6531 28.1922 21.4624 28.2643C21.2716 28.3298 21.095 28.4216 20.9325 28.5396C20.77 28.6576 20.6216 28.7953 20.4874 28.9526C20.3602 29.1034 20.2543 29.264 20.1695 29.4344V31.0274C20.1977 31.2044 20.2719 31.3716 20.392 31.5289C20.5192 31.6797 20.6711 31.8108 20.8477 31.9223C21.0243 32.0337 21.2116 32.1222 21.4094 32.1878C21.6072 32.2533 21.798 32.2861 21.9816 32.2861Z" fill="black"/>
<path d="M27.8743 32.8761C27.4716 32.8761 27.1006 32.8073 26.7615 32.6696C26.4295 32.5254 26.1398 32.332 25.8925 32.0894C25.6523 31.8469 25.4651 31.565 25.3309 31.2438C25.1966 30.9225 25.1295 30.5849 25.1295 30.2309C25.1295 29.8704 25.1966 29.5295 25.3309 29.2083C25.4722 28.887 25.6629 28.6052 25.9031 28.3626C26.1504 28.12 26.4401 27.9267 26.7721 27.7824C27.1112 27.6382 27.4786 27.5661 27.8743 27.5661C28.2699 27.5661 28.6337 27.6382 28.9658 27.7824C29.3049 27.9267 29.5946 28.12 29.8348 28.3626C30.0821 28.6052 30.2728 28.887 30.4071 29.2083C30.5484 29.5295 30.619 29.8704 30.619 30.2309C30.619 30.5849 30.5484 30.9225 30.4071 31.2438C30.2728 31.565 30.0821 31.8469 29.8348 32.0894C29.5946 32.332 29.3049 32.5254 28.9658 32.6696C28.6337 32.8073 28.2699 32.8761 27.8743 32.8761ZM25.8713 30.2408C25.8713 30.5292 25.9208 30.798 26.0197 31.0471C26.1257 31.2897 26.267 31.506 26.4436 31.6961C26.6273 31.8797 26.8392 32.0239 27.0794 32.1288C27.3267 32.2337 27.5881 32.2861 27.8637 32.2861C28.1392 32.2861 28.3971 32.2337 28.6373 32.1288C28.8845 32.0173 29.1 31.8698 29.2837 31.6863C29.4674 31.4962 29.6122 31.2765 29.7182 31.0274C29.8242 30.7783 29.8772 30.5095 29.8772 30.2211C29.8772 29.9392 29.8242 29.6737 29.7182 29.4246C29.6122 29.1689 29.4674 28.9493 29.2837 28.7658C29.1 28.5757 28.8881 28.4282 28.6479 28.3233C28.4077 28.2118 28.1498 28.1561 27.8743 28.1561C27.5987 28.1561 27.3373 28.2118 27.09 28.3233C26.8498 28.4282 26.6379 28.5757 26.4542 28.7658C26.2776 28.9559 26.1363 29.1788 26.0303 29.4344C25.9243 29.6835 25.8713 29.9523 25.8713 30.2408Z" fill="black"/>
<path d="M32.7862 32.8761C32.5036 32.8761 32.2458 32.8368 32.0126 32.7581C31.7795 32.6729 31.5781 32.5582 31.4086 32.4139C31.2461 32.2697 31.1189 32.1025 31.0271 31.9124C30.9352 31.7223 30.8893 31.5224 30.8893 31.3126C30.8893 31.0766 30.9458 30.8635 31.0588 30.6734C31.1719 30.4768 31.3308 30.3096 31.5357 30.1719C31.7406 30.0343 31.9844 29.9294 32.267 29.8573C32.5566 29.7786 32.8745 29.7393 33.2207 29.7393C33.4963 29.7393 33.7789 29.7622 34.0685 29.8081C34.3582 29.854 34.6161 29.9195 34.8421 30.0048V29.5426C34.8421 29.0903 34.7008 28.733 34.4182 28.4708C34.1427 28.202 33.7683 28.0676 33.2949 28.0676C32.9982 28.0676 32.7014 28.12 32.4047 28.2249C32.1151 28.3298 31.8183 28.4806 31.5145 28.6773L31.2602 28.2348C31.6205 28.0119 31.9702 27.8447 32.3093 27.7333C32.6485 27.6218 33.0017 27.5661 33.3691 27.5661C34.0403 27.5661 34.5737 27.7464 34.9693 28.1069C35.3649 28.4675 35.5628 28.9657 35.5628 29.6016V31.9124C35.5628 32.096 35.6475 32.1878 35.8171 32.1878V32.7778C35.7606 32.7843 35.7076 32.7876 35.6581 32.7876C35.6087 32.7942 35.5663 32.7974 35.531 32.7974C35.3897 32.7974 35.259 32.7581 35.1389 32.6794C35.0258 32.6008 34.9622 32.4828 34.9481 32.3254L34.9269 31.9223C34.6867 32.2238 34.3688 32.4598 33.9731 32.6303C33.5846 32.7942 33.1889 32.8761 32.7862 32.8761ZM32.9664 32.3648C33.2843 32.3648 33.5987 32.3025 33.9096 32.1779C34.2275 32.0468 34.4783 31.8698 34.662 31.6469C34.7114 31.5879 34.7538 31.5257 34.7891 31.4601C34.8245 31.388 34.8421 31.3224 34.8421 31.2634V30.4276C34.6019 30.3424 34.3511 30.2768 34.0897 30.2309C33.8283 30.185 33.574 30.1621 33.3267 30.1621C32.811 30.1621 32.3906 30.2604 32.0656 30.4571C31.7477 30.6472 31.5887 30.9127 31.5887 31.2536C31.5887 31.3913 31.617 31.5257 31.6735 31.6568C31.73 31.7879 31.8148 31.9059 31.9278 32.0108C32.0479 32.1157 32.1928 32.2009 32.3623 32.2664C32.5319 32.332 32.7332 32.3648 32.9664 32.3648Z" fill="black"/>
<path d="M39.4162 28.2446C38.9287 28.2577 38.5048 28.3823 38.1445 28.6183C37.7842 28.8543 37.5299 29.1788 37.3815 29.5918V32.7778H36.6609V27.6546H37.3391V28.8838C37.5299 28.5232 37.7807 28.2249 38.0915 27.9889C38.4024 27.7464 38.738 27.6251 39.0983 27.6251C39.1619 27.6251 39.2219 27.6251 39.2785 27.6251C39.335 27.6251 39.3809 27.6284 39.4162 27.6349V28.2446Z" fill="black"/>
<path d="M41.9483 32.8761C41.5668 32.8761 41.2136 32.804 40.8886 32.6598C40.5636 32.509 40.281 32.3123 40.0408 32.0698C39.8076 31.8272 39.6239 31.5486 39.4897 31.2339C39.3625 30.9127 39.299 30.5784 39.299 30.2309C39.299 29.8704 39.3625 29.5295 39.4897 29.2083C39.6169 28.8805 39.79 28.5953 40.009 28.3528C40.2351 28.1102 40.5 27.9201 40.8038 27.7824C41.1146 27.6382 41.4538 27.5661 41.8211 27.5661C42.2874 27.5661 42.7007 27.6808 43.061 27.9103C43.4214 28.1332 43.7075 28.4052 43.9194 28.7264V25.5994H44.6401V31.9124C44.6401 32.096 44.7248 32.1878 44.8944 32.1878V32.7778C44.7743 32.7974 44.6789 32.8073 44.6083 32.8073C44.4317 32.8073 44.2868 32.7614 44.1738 32.6696C44.0607 32.5713 44.0042 32.4566 44.0042 32.3254V31.7846C43.7781 32.1189 43.4779 32.3844 43.1034 32.5811C42.7361 32.7778 42.351 32.8761 41.9483 32.8761ZM42.0967 32.2861C42.2804 32.2861 42.4711 32.2533 42.6689 32.1878C42.8738 32.1222 43.061 32.0337 43.2306 31.9223C43.4072 31.8043 43.5591 31.6699 43.6863 31.5191C43.8135 31.3618 43.8912 31.1946 43.9194 31.0176V29.4344C43.8488 29.2574 43.7428 29.0936 43.6015 28.9428C43.4673 28.7854 43.3119 28.6478 43.1352 28.5298C42.9657 28.4118 42.782 28.32 42.5842 28.2544C42.3934 28.1889 42.2027 28.1561 42.0119 28.1561C41.7152 28.1561 41.4432 28.2151 41.1959 28.3331C40.9557 28.4511 40.7508 28.6084 40.5812 28.8051C40.4117 28.9952 40.2774 29.2148 40.1785 29.4639C40.0867 29.7131 40.0408 29.9687 40.0408 30.2309C40.0408 30.5063 40.0938 30.7685 40.1997 31.0176C40.3057 31.2667 40.4505 31.4863 40.6342 31.6764C40.8179 31.86 41.0334 32.0075 41.2807 32.1189C41.535 32.2304 41.807 32.2861 42.0967 32.2861Z" fill="black"/>
<path d="M45.7087 32.7778V31.8141H46.3234V32.7778H45.7087Z" fill="black"/>
<path d="M46.4109 34.5576C46.1777 34.5576 45.9587 34.5281 45.7538 34.4691C45.5489 34.4101 45.3653 34.3118 45.2028 34.1741L45.5525 33.7218C45.6655 33.8136 45.7892 33.8758 45.9234 33.9086C46.0576 33.9414 46.1919 33.9578 46.3261 33.9578C46.4533 33.9578 46.5734 33.9348 46.6864 33.8889C46.8065 33.8431 46.9125 33.7775 47.0043 33.6923C47.0962 33.6136 47.1704 33.5186 47.2269 33.4071C47.2834 33.2957 47.3117 33.1744 47.3117 33.0433V27.6546H48.0323V33.0039C48.0323 33.2334 47.9864 33.4432 47.8945 33.6333C47.8027 33.8234 47.679 33.9873 47.5236 34.1249C47.3752 34.2626 47.2021 34.3675 47.0043 34.4396C46.8136 34.5183 46.6158 34.5576 46.4109 34.5576ZM47.3117 26.5828V25.5994H48.0323V26.5828H47.3117Z" fill="black"/>
<path d="M50.9642 32.8761C50.5332 32.8761 50.1128 32.8105 49.7031 32.6794C49.2933 32.5483 48.94 32.3582 48.6433 32.1091L48.9718 31.6568C49.2827 31.8928 49.5971 32.0698 49.915 32.1878C50.24 32.3058 50.5862 32.3648 50.9536 32.3648C51.3986 32.3648 51.7519 32.2828 52.0133 32.1189C52.2818 31.9485 52.416 31.7092 52.416 31.4011C52.416 31.2569 52.3807 31.1389 52.31 31.0471C52.2394 30.9488 52.1334 30.8635 51.9921 30.7914C51.8579 30.7193 51.6848 30.657 51.4728 30.6046C51.2679 30.5456 51.0277 30.4866 50.7522 30.4276C50.4343 30.3555 50.1587 30.2834 49.9256 30.2113C49.6925 30.1392 49.4982 30.0572 49.3427 29.9654C49.1944 29.8737 49.0813 29.7622 49.0036 29.6311C48.933 29.4934 48.8977 29.323 48.8977 29.1198C48.8977 28.8641 48.9506 28.6379 49.0566 28.4413C49.1697 28.2446 49.318 28.084 49.5017 27.9594C49.6925 27.8283 49.9115 27.73 50.1587 27.6644C50.4131 27.5989 50.6816 27.5661 50.9642 27.5661C51.3881 27.5661 51.7731 27.6317 52.1193 27.7628C52.4655 27.8873 52.7445 28.0545 52.9565 28.2643L52.6068 28.6576C52.4019 28.4609 52.1511 28.3134 51.8543 28.2151C51.5647 28.1168 51.2609 28.0676 50.943 28.0676C50.7522 28.0676 50.5756 28.0873 50.4131 28.1266C50.2506 28.1594 50.1058 28.2151 49.9786 28.2938C49.8585 28.3724 49.7631 28.474 49.6925 28.5986C49.6218 28.7166 49.5865 28.8575 49.5865 29.0214C49.5865 29.1591 49.6112 29.2705 49.6607 29.3558C49.7101 29.441 49.7914 29.5164 49.9044 29.5819C50.0174 29.6409 50.1587 29.6967 50.3283 29.7491C50.5049 29.795 50.7169 29.8442 50.9642 29.8966C51.3174 29.9753 51.6283 30.0539 51.8967 30.1326C52.1652 30.2113 52.3877 30.303 52.5644 30.4079C52.7481 30.5128 52.8858 30.6407 52.9777 30.7914C53.0695 30.9422 53.1154 31.1258 53.1154 31.3421C53.1154 31.8141 52.9211 32.1878 52.5326 32.4631C52.144 32.7384 51.6212 32.8761 50.9642 32.8761Z" fill="black"/>
<path d="M15.3438 27.4833H13.7632V32.7278H15.3438V27.4833Z" fill="#2ACEFD"/>
<path d="M16.9149 25.5056H15.3342V32.7278H16.9149V25.5056Z" fill="#F87070"/>
<path d="M18.4957 25.5056H16.915V32.7278H18.4957V25.5056Z" fill="#1F77B4"/>
</svg>
