<svg width="60" height="60" viewBox="0 0 60 60" fill="none" xmlns="http://www.w3.org/2000/svg">
<path d="M14.82 36.22C17.22 36.22 19.24 35.06 20.3 33.38L19.14 32.46C18.16 33.9 16.68 34.78 14.84 34.78C11.86 34.78 9.58 32.48 9.58 29.4C9.58 26.32 11.86 24.02 14.84 24.02C16.68 24.02 18.16 24.9 19.14 26.34L20.3 25.42C19.2 23.74 17.22 22.58 14.82 22.58C11 22.58 7.96 25.54 7.96 29.4C7.96 33.26 11 36.22 14.82 36.22ZM27.1369 27.76L30.6369 23.26V22.8H22.7169V24.24H28.1769L24.7169 28.66V29.12H26.0169C28.1569 29.12 29.3569 30.14 29.3569 31.84C29.3569 33.6 28.0769 34.78 26.2769 34.78C24.6369 34.78 23.6369 33.78 22.9169 32.7L21.8169 33.48C22.6169 34.92 24.1169 36.22 26.2969 36.22C28.7569 36.22 30.9769 34.56 30.9769 31.82C30.9769 29.26 29.0369 27.94 27.1369 27.76ZM34.8586 36.22C35.5386 36.22 36.1186 35.7 36.1186 34.96C36.1186 34.22 35.5386 33.7 34.8586 33.7C34.1786 33.7 33.5986 34.22 33.5986 34.96C33.5986 35.7 34.1786 36.22 34.8586 36.22ZM41.3355 23.66C41.9555 23.66 42.4755 23.18 42.4755 22.54C42.4755 21.92 41.9555 21.42 41.3355 21.42C40.6955 21.42 40.1755 21.92 40.1755 22.54C40.1755 23.18 40.6955 23.66 41.3355 23.66ZM38.8955 39.82C40.7555 39.82 42.0955 38.88 42.0955 36.66V26.26H40.5555V36.56C40.5555 38 39.7355 38.42 38.5555 38.42C38.2355 38.42 37.9955 38.4 37.6555 38.36V39.66C38.0155 39.76 38.3955 39.82 38.8955 39.82ZM48.3573 36.22C50.1573 36.22 51.7773 35.26 51.7773 33.36C51.7773 31.98 50.9373 31.22 49.1973 30.48L48.2973 30.1C47.2173 29.64 46.7173 29.34 46.7173 28.68C46.7173 27.88 47.4173 27.46 48.3373 27.46C49.2573 27.46 50.0973 27.88 50.7373 28.54L51.6773 27.58C50.9173 26.64 49.8173 26.04 48.4173 26.04C46.6373 26.04 45.1373 27 45.1373 28.76C45.1373 30.14 46.0773 30.84 47.5573 31.46L48.4973 31.86C49.4773 32.26 50.1973 32.58 50.1973 33.42C50.1973 34.3 49.3573 34.8 48.3373 34.8C47.1573 34.8 46.3373 34.14 45.5373 33.3L44.5573 34.32C45.3373 35.36 46.6373 36.22 48.3573 36.22Z" fill="black"/>
</svg>
