<?xml version="1.0" encoding="UTF-8"?>
<!-- Generator: Adobe Illustrator 18.1.1, SVG Export Plug-In . SVG Version: 6.00 Build 0)  -->
<svg version="1.1" id="Layer_1" xmlns="http://www.w3.org/2000/svg" xmlns:xlink="http://www.w3.org/1999/xlink" x="0px" y="0px" viewBox="0 0 139.583 57.625" enable-background="new 0 0 139.583 57.625" xml:space="preserve"><script xmlns="" id="__gaOptOutExtension"/>
<rect x="0" fill="#FFFFFF" width="139.583" height="57.625"/>
<g>
	<g>
		<g>
			<path fill="#221F1F" d="M43.55,33.393c-0.673,0.765-1.483,1.346-2.431,1.742c-0.948,0.398-1.942,0.597-2.981,0.597     c-0.963,0-1.873-0.176-2.728-0.527c-0.855-0.352-1.598-0.837-2.228-1.456c-0.63-0.619-1.127-1.356-1.492-2.213     c-0.365-0.855-0.546-1.781-0.546-2.775c0-0.978,0.182-1.892,0.546-2.74c0.364-0.849,0.858-1.586,1.481-2.213     c0.622-0.626,1.361-1.12,2.216-1.479c0.856-0.359,1.773-0.539,2.751-0.539c1.009,0,1.968,0.184,2.878,0.55     c0.909,0.367,1.7,0.925,2.373,1.674l-2.224,2.27c-0.336-0.443-0.745-0.81-1.227-1.101c-0.481-0.29-1.066-0.435-1.754-0.435     c-0.505,0-0.983,0.107-1.434,0.321c-0.451,0.214-0.848,0.501-1.192,0.86c-0.344,0.359-0.616,0.784-0.814,1.273     c-0.199,0.489-0.298,1.009-0.298,1.559c0,0.55,0.1,1.07,0.298,1.56c0.198,0.488,0.466,0.913,0.803,1.272     c0.336,0.359,0.734,0.646,1.192,0.861c0.458,0.213,0.94,0.32,1.445,0.32c0.657,0,1.253-0.156,1.789-0.471     c0.535-0.313,0.963-0.714,1.284-1.203L43.55,33.393z"/>
			<path fill="#221F1F" d="M55.933,35.388h-3.302v-0.711c-0.581,0.397-1.196,0.673-1.846,0.825c-0.65,0.152-1.319,0.229-2.007,0.229     c-0.642,0-1.223-0.095-1.743-0.286c-0.52-0.191-0.971-0.467-1.353-0.826c-0.382-0.359-0.676-0.783-0.883-1.272     c-0.207-0.489-0.31-1.032-0.31-1.628c0-0.749,0.164-1.402,0.493-1.961c0.329-0.558,0.775-1.024,1.341-1.399     c0.565-0.374,1.227-0.653,1.983-0.837c0.757-0.183,1.571-0.275,2.442-0.275h1.903c0-0.78-0.252-1.399-0.757-1.858     c-0.504-0.459-1.23-0.688-2.178-0.688c-0.459,0-0.933,0.084-1.422,0.252c-0.489,0.169-0.979,0.474-1.468,0.917l-1.949-1.972     c0.703-0.672,1.517-1.192,2.442-1.559c0.925-0.367,1.876-0.55,2.855-0.55c0.917,0,1.734,0.146,2.45,0.436     c0.716,0.291,1.294,0.665,1.734,1.124c0.577,0.581,0.983,1.23,1.218,1.949c0.235,0.719,0.353,1.636,0.353,2.751V35.388z      M52.631,32.086v-2.454h-1.513c-0.459,0-0.891,0.03-1.296,0.092c-0.405,0.062-0.757,0.165-1.055,0.31     c-0.298,0.146-0.536,0.332-0.711,0.562c-0.176,0.229-0.264,0.505-0.264,0.825c0,0.459,0.179,0.834,0.539,1.124     c0.359,0.291,0.822,0.437,1.388,0.437c0.489,0,0.975-0.077,1.456-0.23C51.656,32.598,52.141,32.376,52.631,32.086z"/>
			<path fill="#221F1F" d="M70.54,35.388h-3.302v-7.912c0-0.474-0.073-0.89-0.219-1.25c-0.146-0.359-0.342-0.657-0.587-0.895     c-0.246-0.237-0.526-0.413-0.84-0.527c-0.315-0.115-0.641-0.172-0.979-0.172c-0.506,0-1.005,0.088-1.497,0.264     s-0.937,0.455-1.335,0.837v9.654h-3.302V22.133h3.302l0.023,0.986c0.198-0.198,0.443-0.382,0.734-0.55     c0.29-0.168,0.592-0.309,0.906-0.424c0.313-0.115,0.634-0.202,0.963-0.264c0.329-0.061,0.646-0.092,0.952-0.092     c0.672,0,1.319,0.107,1.938,0.321c0.619,0.214,1.169,0.542,1.651,0.986c0.481,0.444,0.868,1.017,1.158,1.72     c0.29,0.703,0.436,1.536,0.436,2.5V35.388z"/>
			<path fill="#221F1F" d="M85.263,22.133L80.286,35.41h-3.256l-5-13.277h3.623l3.004,8.898l3.004-8.898H85.263z"/>
			<path fill="#221F1F" d="M97.507,35.388h-3.301v-0.711c-0.582,0.397-1.197,0.673-1.848,0.825     c-0.648,0.152-1.318,0.229-2.006,0.229c-0.642,0-1.223-0.095-1.742-0.286c-0.52-0.191-0.971-0.467-1.354-0.826     c-0.383-0.359-0.676-0.783-0.883-1.272c-0.207-0.489-0.311-1.032-0.311-1.628c0-0.749,0.166-1.402,0.494-1.961     c0.328-0.558,0.775-1.024,1.342-1.399c0.565-0.374,1.227-0.653,1.982-0.837c0.758-0.183,1.572-0.275,2.443-0.275h1.902     c0-0.78-0.252-1.399-0.756-1.858c-0.504-0.459-1.23-0.688-2.18-0.688c-0.457,0-0.932,0.084-1.422,0.252     c-0.488,0.169-0.979,0.474-1.467,0.917l-1.949-1.972c0.703-0.672,1.518-1.192,2.441-1.559c0.926-0.367,1.877-0.55,2.856-0.55     c0.918,0,1.734,0.146,2.451,0.436c0.715,0.291,1.293,0.665,1.734,1.124c0.576,0.581,0.982,1.23,1.219,1.949     c0.234,0.719,0.352,1.636,0.352,2.751V35.388z M94.206,32.086v-2.454h-1.514c-0.459,0-0.891,0.03-1.297,0.092     c-0.404,0.062-0.756,0.165-1.055,0.31c-0.297,0.146-0.535,0.332-0.711,0.562c-0.176,0.229-0.264,0.505-0.264,0.825     c0,0.459,0.18,0.834,0.539,1.124c0.359,0.291,0.822,0.437,1.387,0.437c0.49,0,0.975-0.077,1.457-0.23     C93.232,32.598,93.716,32.376,94.206,32.086z"/>
			<path fill="#221F1F" d="M109.775,31.673c0,0.657-0.152,1.242-0.459,1.755c-0.307,0.512-0.705,0.939-1.195,1.283     c-0.49,0.344-1.041,0.604-1.654,0.779c-0.613,0.176-1.219,0.264-1.816,0.264c-1.012,0-1.941-0.186-2.793-0.56     c-0.85-0.375-1.596-0.975-2.24-1.801l1.996-2.018c0.396,0.504,0.855,0.898,1.375,1.181c0.52,0.283,1.078,0.425,1.674,0.425     c0.52,0,0.951-0.096,1.297-0.287c0.344-0.191,0.516-0.478,0.516-0.859c0-0.399-0.246-0.73-0.734-0.998     c-0.49-0.267-1.178-0.531-2.064-0.791c-0.52-0.152-1.023-0.348-1.514-0.585c-0.488-0.237-0.924-0.527-1.307-0.872     c-0.383-0.344-0.687-0.737-0.916-1.181c-0.23-0.443-0.346-0.955-0.346-1.536c0-0.642,0.15-1.219,0.449-1.731     c0.299-0.512,0.689-0.94,1.172-1.284c0.482-0.344,1.031-0.608,1.642-0.791c0.613-0.184,1.234-0.275,1.863-0.275     c2.021,0,3.676,0.765,4.963,2.293l-1.971,1.995c-0.383-0.474-0.818-0.849-1.309-1.124c-0.488-0.275-1.023-0.413-1.604-0.413     c-0.199,0-0.41,0.027-0.631,0.08c-0.223,0.054-0.428,0.13-0.619,0.229c-0.191,0.1-0.348,0.229-0.471,0.39     c-0.123,0.161-0.184,0.34-0.184,0.539c0,0.352,0.232,0.658,0.699,0.917c0.467,0.26,1.135,0.519,2.008,0.779     c0.565,0.168,1.1,0.382,1.604,0.642c0.506,0.26,0.949,0.562,1.33,0.906c0.383,0.344,0.686,0.734,0.906,1.17     C109.665,30.629,109.775,31.123,109.775,31.673z"/>
			<path fill="#221F1F" d="M122.388,29.242c0,1.238-0.219,2.269-0.654,3.096c-0.436,0.825-0.967,1.49-1.594,1.995     c-0.627,0.505-1.295,0.864-2.006,1.077c-0.711,0.215-1.35,0.321-1.916,0.321c-1.039,0-2.029-0.245-2.969-0.733     c-0.939-0.489-1.725-1.139-2.35-1.949l2.338-2.316c0.307,0.49,0.703,0.871,1.193,1.146c0.488,0.275,0.992,0.413,1.514,0.413     c0.352,0,0.695-0.065,1.031-0.194c0.336-0.131,0.639-0.318,0.906-0.562c0.268-0.244,0.481-0.543,0.641-0.895     c0.162-0.351,0.242-0.756,0.242-1.215v-12.36h3.623V29.242z"/>
			<path fill="#221F1F" d="M137.843,30.572c0,0.688-0.148,1.342-0.447,1.961c-0.297,0.619-0.715,1.166-1.25,1.639     c-0.535,0.475-1.168,0.853-1.902,1.136c-0.734,0.282-1.545,0.424-2.432,0.424c-0.795,0-1.51-0.046-2.143-0.138     c-0.635-0.092-1.232-0.236-1.789-0.436c-0.559-0.198-1.094-0.455-1.605-0.768c-0.512-0.313-1.043-0.691-1.594-1.136l2.521-2.546     c0.734,0.612,1.453,1.044,2.156,1.297c0.703,0.252,1.467,0.378,2.293,0.378c0.336,0,0.654-0.05,0.951-0.149     c0.299-0.1,0.559-0.232,0.781-0.4c0.221-0.169,0.396-0.367,0.527-0.598c0.129-0.229,0.193-0.48,0.193-0.756     c0-0.291-0.053-0.551-0.16-0.779c-0.107-0.23-0.297-0.451-0.572-0.666c-0.275-0.214-0.658-0.432-1.147-0.654     c-0.49-0.221-1.117-0.47-1.881-0.745c-0.674-0.244-1.318-0.523-1.938-0.837c-0.619-0.313-1.162-0.691-1.629-1.135     c-0.467-0.443-0.84-0.963-1.123-1.559c-0.283-0.596-0.424-1.299-0.424-2.11c0-0.78,0.156-1.498,0.469-2.156     c0.314-0.657,0.742-1.219,1.285-1.685c0.543-0.466,1.178-0.829,1.902-1.089c0.727-0.26,1.51-0.39,2.352-0.39     c1.406,0,2.592,0.184,3.555,0.55c0.963,0.367,1.818,0.902,2.568,1.606l-2.477,2.5c-0.459-0.443-0.973-0.783-1.537-1.021     c-0.566-0.237-1.23-0.356-1.994-0.356c-0.354,0-0.678,0.054-0.975,0.161c-0.299,0.107-0.555,0.249-0.77,0.424     c-0.213,0.176-0.387,0.382-0.516,0.619c-0.131,0.237-0.195,0.485-0.195,0.745c0,0.291,0.061,0.554,0.184,0.791     c0.123,0.237,0.328,0.467,0.619,0.688c0.291,0.222,0.678,0.444,1.158,0.665c0.482,0.222,1.082,0.463,1.801,0.723     c0.916,0.321,1.703,0.673,2.361,1.055c0.658,0.382,1.193,0.803,1.605,1.261c0.412,0.459,0.719,0.975,0.918,1.548     C137.744,29.208,137.843,29.854,137.843,30.572z"/>
		</g>
	</g>
	<g>
		<path fill="#5077B6" d="M31.518,6.169c0,0-0.73,0.248-1.462,0.498c-0.372,0.107-0.721,0.272-0.983,0.395    c-0.263,0.119-0.439,0.201-0.439,0.201l4.608,10.244c0.482-0.213,0.979-0.394,1.492-0.545L31.518,6.169z"/>
		<path fill="#5077B6" d="M37.579,10.104c0,0-0.153,0.006-0.382,0.014c-0.229,0.016-0.537-0.008-0.838,0.055    c-0.606,0.08-1.21,0.16-1.21,0.16l1.048,6.303c0.521-0.086,1.052-0.139,1.593-0.156L37.579,10.104z"/>
		<path fill="#5077B6" d="M44.42,1.124c0,0-0.226-0.055-0.564-0.139c-0.344-0.055-0.803-0.127-1.26-0.201    c-0.459-0.07-0.918-0.141-1.263-0.193c-0.346-0.041-0.579-0.046-0.579-0.046l-1.453,15.968c0.541,0.047,1.071,0.129,1.59,0.244    L44.42,1.124z"/>
		<path fill="#5077B6" d="M48.887,8.017c0,0-0.69-0.328-1.382-0.658c-0.337-0.18-0.705-0.293-0.974-0.393    c-0.27-0.096-0.451-0.162-0.451-0.162l-3.74,10.375c0.505,0.18,0.995,0.389,1.467,0.629L48.887,8.017z"/>
		<path fill="#DE4032" d="M42.581,40.354l3.403,9.147c0,0,0.175-0.057,0.438-0.145c0.25-0.115,0.586-0.27,0.919-0.422    c0.335-0.152,0.671-0.305,0.924-0.418c0.255-0.107,0.4-0.225,0.406-0.217l-4.587-8.62C43.603,39.939,43.098,40.158,42.581,40.354z    "/>
		<path fill="#DE4032" d="M40.66,53.114c0,0,0.805-0.105,1.613-0.215c0.407-0.035,0.798-0.154,1.097-0.215    c0.295-0.07,0.496-0.117,0.496-0.117l-2.769-11.757c-0.532,0.127-1.073,0.232-1.63,0.289L40.66,53.114z"/>
		<path fill="#DE4032" d="M35.518,45.584c0,0,0.141,0.021,0.353,0.057c0.211,0.029,0.49,0.1,0.777,0.094    c0.568,0.035,1.138,0.072,1.138,0.072l0.117-4.66c-0.565-0.014-1.118-0.068-1.662-0.156L35.518,45.584z"/>
		<path fill="#DE4032" d="M26.315,55.735c0,0,0.218,0.111,0.558,0.25c0.345,0.125,0.804,0.295,1.264,0.461    c0.461,0.162,0.921,0.328,1.266,0.455c0.352,0.104,0.589,0.158,0.589,0.158l4.719-16.407c-0.534-0.158-1.05-0.354-1.55-0.578    L26.315,55.735z"/>
		<path fill="#30A14E" d="M17.905,54.235c0,0,0.868,0.648,1.736,1.293c0.425,0.338,0.91,0.582,1.25,0.807    c0.347,0.207,0.58,0.35,0.58,0.35l10.323-17.337c-0.469-0.285-0.921-0.594-1.346-0.938L17.905,54.235z"/>
		<path fill="#30A14E" d="M20.808,41.678c-0.068,0.057,1.862,2.197,1.86,2.197l6.64-6.518c-0.385-0.4-0.739-0.828-1.068-1.279    L20.808,41.678z"/>
		<path fill="#30A14E" d="M14.014,38.498c0,0,0.357,0.787,0.714,1.572c0.164,0.4,0.382,0.771,0.548,1.053    c0.163,0.277,0.272,0.467,0.272,0.467l11.847-6.818c-0.262-0.475-0.486-0.973-0.685-1.482L14.014,38.498z"/>
		<path fill="#30A14E" d="M6.628,32.791c0,0,0.035,0.262,0.088,0.65c0.056,0.391,0.111,0.916,0.246,1.428    c0.239,1.024,0.479,2.049,0.479,2.049l18.806-5.086c-0.132-0.523-0.238-1.055-0.3-1.602L6.628,32.791z"/>
		<path fill="#ECB215" d="M0.792,23.937c0,0-0.056,0.305-0.1,0.77c-0.03,0.463-0.071,1.084-0.113,1.701    c-0.033,0.623-0.064,1.244-0.088,1.707c0.01,0.467,0.015,0.777,0.015,0.777l25.359-0.197c0.005-0.555,0.056-1.096,0.132-1.631    L0.792,23.937z"/>
		<path fill="#ECB215" d="M18.364,20.655c0,0-0.239,0.662-0.479,1.326c-0.139,0.326-0.196,0.678-0.268,0.934    c-0.066,0.254-0.109,0.426-0.109,0.426l8.797,2.221c0.143-0.525,0.308-1.043,0.516-1.537L18.364,20.655z"/>
		<path fill="#ECB215" d="M14.203,10.849c0,0-0.147,0.199-0.367,0.496c-0.224,0.295-0.517,0.691-0.761,1.121    c-0.506,0.848-1.016,1.693-1.016,1.693l15.444,8.512c0.267-0.463,0.564-0.906,0.887-1.328L14.203,10.849z"/>
		<path fill="#ECB215" d="M19.09,1.477c0,0-0.871,0.682-1.74,1.361c-0.886,0.662-1.672,1.449-1.672,1.449L29.95,19.647    c0.414-0.375,0.846-0.729,1.308-1.045L19.09,1.477z"/>
	</g>
</g>
</svg>