<svg width="60" height="60" viewBox="0 0 60 60" fill="none" xmlns="http://www.w3.org/2000/svg">
<rect x="0.5" y="0.5" width="59" height="59" rx="15.5" fill="white"/>
<path d="M47.8479 30.1105C41.7228 30.2307 42.9985 34.1082 38.6818 35.0888C34.2967 36.085 33.6044 24.3789 29.2204 24.3789C24.8358 24.3789 23.8645 35.7501 18.3744 43.5565L18.2178 43.7775L29.9885 50.5721L47.8479 40.262V30.1105Z" fill="#36A2EB"/>
<path d="M47.8478 29.7584C45.7973 27.1269 44.4065 24.1016 41.4143 24.1016C36.1192 24.1016 37.5125 32.7396 31.6604 32.7396C25.8078 32.7396 25.1925 23.4482 18.5625 32.1824C16.4498 34.9653 14.7493 38.0684 13.4136 41.0047L29.9884 50.5733L47.8478 40.2632V29.7584Z" fill="#FFCE56"/>
<path opacity="0.8" d="M12.1284 33.333C14.1378 27.7685 15.005 23.2617 18.8412 23.2617C24.6932 23.2617 26.0862 39.7024 31.1031 38.0298C36.1192 36.358 35.5617 27.441 43.3651 27.441C44.8504 27.441 46.3668 28.3509 47.848 29.8228V40.2593L29.9886 50.5694L12.1287 40.2593V33.333H12.1284Z" fill="#FE6184"/>
<path d="M29.9744 51.864L11 40.911V19.0041L29.9744 8.05078L48.9489 19.0041V40.9107L29.9744 51.864ZM13.2293 39.624L29.9744 49.2906L46.7196 39.624V20.2911L29.9744 10.6245L13.2293 20.2911V39.624Z" fill="#E7E9ED"/>
<rect x="0.5" y="0.5" width="59" height="59" rx="15.5" stroke="#DADADA"/>
</svg>
