<svg width="60" height="60" fill="none" xmlns="http://www.w3.org/2000/svg"><path d="M47.848 30.11c-6.125.12-4.85 3.997-9.166 4.978-4.385.996-5.078-10.71-9.462-10.71-4.384 0-5.355 11.371-10.846 19.178l-.156.22 11.77 6.795 17.86-10.31V30.11z" fill="#36A2EB"/><path d="M47.848 29.757c-2.05-2.632-3.441-5.657-6.434-5.657-5.295 0-3.901 8.638-9.754 8.638-5.852 0-6.468-9.291-13.098-.557-2.112 2.783-3.813 5.886-5.148 8.822l16.574 9.569 17.86-10.31V29.756z" fill="#FFCE56"/><path opacity=".8" d="M12.128 33.335c2.01-5.565 2.877-10.072 6.713-10.072 5.852 0 7.245 16.441 12.262 14.769 5.016-1.672 4.459-10.59 12.262-10.59 1.485 0 3.002.91 4.483 2.383V40.26l-17.86 10.31-17.86-10.31v-6.926z" fill="#FE6184"/><path d="M29.974 51.864L11 40.911V19.004L29.974 8.051 48.95 19.004v21.907L29.974 51.864zM13.23 39.624l16.745 9.667 16.746-9.667V20.291l-16.746-9.667-16.745 9.667v19.333z" fill="#E7E9ED"/></svg>