<svg width="60" height="60" fill="none" xmlns="http://www.w3.org/2000/svg"><rect x=".5" y=".5" width="59" height="59" rx="15.5" fill="#fff"/><path d="M47.848 30.11c-6.125.12-4.85 3.998-9.166 4.979-4.385.996-5.078-10.71-9.462-10.71-4.384 0-5.355 11.371-10.846 19.177l-.156.222 11.77 6.794 17.86-10.31V30.11z" fill="#36A2EB"/><path d="M47.848 29.758c-2.05-2.631-3.441-5.656-6.434-5.656-5.295 0-3.901 8.638-9.754 8.638-5.852 0-6.468-9.292-13.098-.558-2.112 2.783-3.813 5.886-5.148 8.823l16.574 9.568 17.86-10.31V29.758z" fill="#FFCE56"/><path opacity=".8" d="M12.128 33.333c2.01-5.564 2.877-10.071 6.713-10.071 5.852 0 7.245 16.44 12.262 14.768 5.016-1.672 4.459-10.589 12.262-10.589 1.485 0 3.002.91 4.483 2.382v10.436l-17.86 10.31-17.86-10.31v-6.926z" fill="#FE6184"/><path d="M29.974 51.864L11 40.911V19.004L29.974 8.051 48.95 19.004v21.907L29.974 51.864zM13.23 39.624l16.745 9.667 16.746-9.667V20.291l-16.746-9.667-16.745 9.667v19.333z" fill="#E7E9ED"/><rect x=".5" y=".5" width="59" height="59" rx="15.5" stroke="#DADADA"/></svg>