<svg width="64" height="64" viewBox="0 0 64 64" fill="none" xmlns="http://www.w3.org/2000/svg">
<path d="M59.7331 16.0865L32.0049 0V11.1304L59.733 27.1478L59.7331 16.0865Z" fill="#FF6492"/>
<path d="M59.7335 27.1463L51.4151 31.9985L32.0002 20.7552L20.9069 27.1552L12.5869 22.6579L32.0054 11.1289L59.7335 27.1463Z" fill="#43436B"/>
<path d="M20.9069 27.1575L12.5869 22.6602V32.0007L20.9069 27.1575Z" fill="#A14474"/>
<path d="M4.2666 47.9135L31.9999 32L59.7333 47.9135L31.9999 64L4.2666 47.9135Z" fill="#43436B"/>
<path d="M59.7333 36.8678L32 20.582V31.9982L59.7333 47.9118L59.7333 36.8678Z" fill="#FF6492"/>
<path d="M12.5866 32V22.6595L32.0051 11.1304V0L4.2666 16.0865V47.9135L31.9999 32V20.5838L12.5866 32Z" fill="#7A77FF"/>
</svg>
