<svg width="83" height="25" viewBox="0 0 83 25" fill="none" xmlns="http://www.w3.org/2000/svg">
<path d="M22.1337 7.03243L11.8594 1V5.17391L22.1336 11.1804L22.1337 7.03243Z" fill="#FF6492"/>
<path d="M22.1336 11.1823L19.0513 13.0019L11.8574 8.78565L7.74692 11.1857L4.66406 9.49917L11.8593 5.17578L22.1336 11.1823Z" fill="#141446"/>
<path d="M7.74692 11.1826L4.66406 9.49609V12.9988L7.74692 11.1826Z" fill="#A14474"/>
<path d="M1.58105 18.9676L11.8572 13L22.1334 18.9676L11.8572 25L1.58105 18.9676Z" fill="#141446"/>
<path d="M22.1336 14.8259L11.8574 8.71875V12.9998L22.1336 18.9674L22.1336 14.8259Z" fill="#FF6492"/>
<path d="M4.66391 13V9.4973L11.8592 5.17391V1L1.58105 7.03243V18.9676L11.8573 13V8.71892L4.66391 13Z" fill="#7A77FF"/>
<path d="M28.457 13.5404C28.457 9.93239 31.2797 7.125 34.837 7.125C37.1194 7.125 38.8852 8.25283 39.9165 9.98113L38.1011 11.4344C37.3154 10.3066 36.3097 9.55471 34.8626 9.55471C32.6535 9.55471 31.0837 11.3091 31.0837 13.5387C31.0837 15.8187 32.6535 17.547 34.8626 17.547C36.2858 17.547 37.2915 16.8212 38.1011 15.6934L39.9165 17.1223C38.8614 18.8506 37.0938 19.9784 34.837 19.9784C31.2797 19.9802 28.457 17.1728 28.457 13.5404Z" fill="#141446"/>
<path d="M42.1494 14.5435V7.40234H44.7011V14.7437C44.7011 16.472 45.9027 17.5493 47.4249 17.5493C48.8976 17.5493 50.0754 16.472 50.0754 14.7437V7.40234H52.6526V14.5435C52.6526 17.8765 50.3703 19.9808 47.4266 19.9808C44.4317 19.9808 42.1494 17.8765 42.1494 14.5435Z" fill="#141446"/>
<path d="M68.285 13.5634C68.285 17.2219 65.8067 19.9788 62.3959 19.9788C60.6284 19.9788 59.0824 19.2531 58.1756 17.9999V19.7038H55.7705V0.910156H58.3477V8.90417C59.2562 7.77634 60.7034 7.1254 62.3721 7.1254C65.8067 7.12366 68.285 9.90495 68.285 13.5634ZM65.6345 13.5391C65.6345 11.1581 64.0152 9.53075 61.9528 9.53075C60.1375 9.53075 58.3205 10.7839 58.3205 13.5652C58.3205 16.3708 60.1613 17.5735 61.9528 17.5735C64.0391 17.5735 65.6345 15.92 65.6345 13.5391Z" fill="#141446"/>
<path d="M81.6087 14.4176H72.6276C72.9719 16.447 74.4924 17.6497 76.5531 17.6497C77.9525 17.6497 79.0553 17.0979 80.0627 16.1964L81.29 18.0012C80.0133 19.2283 78.394 19.9802 76.4798 19.9802C72.7504 19.9802 70.001 17.1989 70.001 13.5648C70.001 9.95676 72.7248 7.125 76.2344 7.125C79.4491 7.125 81.8047 9.53034 81.8047 12.7624C81.8047 13.4395 81.682 14.0921 81.6087 14.4176ZM72.6771 12.3621H79.2292C79.1798 10.4319 77.7821 9.35455 76.1372 9.35455C74.4429 9.35629 73.0691 10.5329 72.6771 12.3621Z" fill="#141446"/>
</svg>
