<svg width="263" height="28" fill="none" xmlns="http://www.w3.org/2000/svg"><path d="M26.134 7.038L14.002 0v4.87l12.132 7.007v-4.84z" fill="#FF6492"/><path d="M26.134 11.877L22.494 14 14 9.08l-4.853 2.8-3.64-1.967 8.495-5.044 12.132 7.008z" fill="#141446"/><path d="M9.147 11.882l-3.64-1.968v4.087l3.64-2.12z" fill="#A14474"/><path d="M1.867 20.962L14 14l12.133 6.962L14 28 1.867 20.962z" fill="#141446"/><path d="M26.133 16.13L14 9.007V14l12.133 6.962V16.13z" fill="#FF6492"/><path d="M5.507 14V9.914l8.495-5.044V0L1.867 7.038v13.924L14 14V9.005L5.507 14z" fill="#7A77FF"/><path d="M43.32 20.764c2.208 0 3.936-1.08 4.968-2.736l-1.776-1.368c-.792 1.08-1.776 1.776-3.168 1.776-2.16 0-3.696-1.656-3.696-3.84 0-2.136 1.536-3.816 3.696-3.816 1.416 0 2.4.72 3.168 1.8l1.776-1.392c-1.008-1.656-2.736-2.736-4.968-2.736-3.48 0-6.24 2.688-6.24 6.144 0 3.48 2.76 6.168 6.24 6.168zm12.306 0c2.88 0 5.112-2.016 5.112-5.208v-6.84h-2.52v7.032c0 1.656-1.152 2.688-2.592 2.688-1.488 0-2.664-1.032-2.664-2.688V8.716h-2.496v6.84c0 3.192 2.232 5.208 5.16 5.208zM70.25 8.452c-1.632 0-3.048.624-3.936 1.704V2.5h-2.52v18h2.352v-1.632c.888 1.2 2.4 1.896 4.128 1.896 3.336 0 5.76-2.64 5.76-6.144S73.61 8.452 70.25 8.452zm-.408 10.008c-1.752 0-3.552-1.152-3.552-3.84 0-2.664 1.776-3.864 3.552-3.864 2.016 0 3.6 1.56 3.6 3.84s-1.56 3.864-3.6 3.864zm19.412-4.608c0-3.096-2.304-5.4-5.448-5.4-3.432 0-6.096 2.712-6.096 6.168 0 3.48 2.688 6.144 6.336 6.144 1.872 0 3.456-.72 4.704-1.896l-1.2-1.728c-.984.864-2.064 1.392-3.432 1.392-2.016 0-3.504-1.152-3.84-3.096h8.784c.072-.312.192-.936.192-1.584zm-5.544-3.264c1.608 0 2.976 1.032 3.024 2.88h-6.408c.384-1.752 1.728-2.88 3.384-2.88z" fill="#141446"/><path d="M105.36 8.452c-1.992 0-3.744.792-4.968 2.52l1.464 1.488c.936-1.104 1.896-1.752 3.264-1.752 1.608 0 2.52.888 2.52 2.52v.768h-3.336c-2.64 0-4.344 1.296-4.344 3.36 0 2.04 1.632 3.408 4.104 3.408 1.632 0 2.928-.576 3.768-1.584v1.32h2.352v-7.128c0-3.264-1.992-4.92-4.824-4.92zm-.768 10.368c-1.152 0-2.064-.528-2.064-1.56 0-.96.744-1.44 2.088-1.44h3.024v.216c0 1.608-1.392 2.784-3.048 2.784zM128.27 8.716l-3.048 7.608-3.624-7.872h-.864l-3.576 7.968-3.096-7.704h-2.688l5.232 12.048h.864l3.696-7.848 3.696 7.848h.864l5.232-12.048h-2.688zm14.808 5.136c0-3.096-2.304-5.4-5.448-5.4-3.432 0-6.096 2.712-6.096 6.168 0 3.48 2.688 6.144 6.336 6.144 1.872 0 3.456-.72 4.704-1.896l-1.2-1.728c-.984.864-2.064 1.392-3.432 1.392-2.016 0-3.504-1.152-3.84-3.096h8.784c.072-.312.192-.936.192-1.584zm-5.544-3.264c1.608 0 2.976 1.032 3.024 2.88h-6.408c.384-1.752 1.728-2.88 3.384-2.88zm11.6 10.176c2.352 0 4.368-1.224 4.368-3.6 0-1.728-1.08-2.664-3.216-3.552l-1.128-.456c-1.08-.456-1.56-.768-1.56-1.392 0-.768.672-1.128 1.608-1.128 1.032 0 2.016.432 2.76 1.2l1.368-1.56c-.984-1.176-2.376-1.824-4.08-1.824-2.328 0-4.152 1.224-4.152 3.408 0 1.776 1.176 2.64 3.072 3.432l1.2.504c.96.384 1.656.696 1.656 1.464 0 .888-.864 1.32-1.896 1.32-1.344 0-2.376-.696-3.312-1.68l-1.44 1.584c1.008 1.32 2.664 2.28 4.752 2.28zm12.265 0c3.504 0 6.264-2.736 6.264-6.168s-2.76-6.144-6.264-6.144c-3.48 0-6.216 2.688-6.216 6.144 0 3.432 2.736 6.168 6.216 6.168zm0-2.328c-2.088 0-3.648-1.632-3.648-3.816 0-2.208 1.56-3.864 3.672-3.864 2.064 0 3.648 1.656 3.648 3.864 0 2.16-1.584 3.816-3.672 3.816zm21.993-9.984c-1.728 0-3.144.768-3.984 1.848-.696-1.128-1.896-1.848-3.576-1.848-1.416 0-2.592.504-3.408 1.368V8.716h-2.352V20.5h2.52v-7.008c0-1.632 1.056-2.736 2.592-2.736 1.512 0 2.472 1.104 2.472 2.736V20.5h2.52v-7.128c0-1.488 1.056-2.616 2.592-2.616s2.448 1.104 2.448 2.736V20.5h2.544v-7.368c0-2.76-1.584-4.68-4.368-4.68zm18.188 5.4c0-3.096-2.304-5.4-5.448-5.4-3.432 0-6.096 2.712-6.096 6.168 0 3.48 2.688 6.144 6.336 6.144 1.872 0 3.456-.72 4.704-1.896l-1.2-1.728c-.984.864-2.064 1.392-3.432 1.392-2.016 0-3.504-1.152-3.84-3.096h8.784c.072-.312.192-.936.192-1.584zm-5.544-3.264c1.608 0 2.976 1.032 3.024 2.88h-6.408c.384-1.752 1.728-2.88 3.384-2.88zm19.646 7.896c-1.464 0-2.328-.48-2.328-2.04V10.9h3.504V8.716h-3.504V5.62h-2.544v3.096h-1.92V10.9h1.92v5.76c0 2.856 1.728 4.104 4.344 4.104.792 0 1.44-.12 2.088-.264v-2.136c-.624.072-1.128.12-1.56.12zm8.872 2.28c3.504 0 6.264-2.736 6.264-6.168s-2.76-6.144-6.264-6.144c-3.48 0-6.216 2.688-6.216 6.144 0 3.432 2.736 6.168 6.216 6.168zm0-2.328c-2.088 0-3.648-1.632-3.648-3.816 0-2.208 1.56-3.864 3.672-3.864 2.064 0 3.648 1.656 3.648 3.864 0 2.16-1.584 3.816-3.672 3.816zm14.145 2.328c3.504 0 6.264-2.736 6.264-6.168s-2.76-6.144-6.264-6.144c-3.48 0-6.216 2.688-6.216 6.144 0 3.432 2.736 6.168 6.216 6.168zm0-2.328c-2.088 0-3.648-1.632-3.648-3.816 0-2.208 1.56-3.864 3.672-3.864 2.064 0 3.648 1.656 3.648 3.864 0 2.16-1.584 3.816-3.672 3.816zm8.673 2.064h2.52v-18h-2.52v18zm9.332.264c2.352 0 4.368-1.224 4.368-3.6 0-1.728-1.08-2.664-3.216-3.552l-1.128-.456c-1.08-.456-1.56-.768-1.56-1.392 0-.768.672-1.128 1.608-1.128 1.032 0 2.016.432 2.76 1.2l1.368-1.56c-.984-1.176-2.376-1.824-4.08-1.824-2.328 0-4.152 1.224-4.152 3.408 0 1.776 1.176 2.64 3.072 3.432l1.2.504c.96.384 1.656.696 1.656 1.464 0 .888-.864 1.32-1.896 1.32-1.344 0-2.376-.696-3.312-1.68l-1.44 1.584c1.008 1.32 2.664 2.28 4.752 2.28z" fill="#A1A1B5"/></svg>