<svg width="163" height="19" viewBox="0 0 163 19" fill="none" xmlns="http://www.w3.org/2000/svg">
<path d="M6.36 6.452C4.368 6.452 2.616 7.244 1.392 8.972L2.856 10.46C3.792 9.356 4.752 8.708 6.12 8.708C7.728 8.708 8.64 9.596 8.64 11.228V11.996H5.304C2.664 11.996 0.96 13.292 0.96 15.356C0.96 17.396 2.592 18.764 5.064 18.764C6.696 18.764 7.992 18.188 8.832 17.18V18.5H11.184V11.372C11.184 8.108 9.192 6.452 6.36 6.452ZM5.592 16.82C4.44 16.82 3.528 16.292 3.528 15.26C3.528 14.3 4.272 13.82 5.616 13.82H8.64V14.036C8.64 15.644 7.248 16.82 5.592 16.82ZM29.2704 6.716L26.2224 14.324L22.5984 6.452H21.7344L18.1584 14.42L15.0624 6.716H12.3744L17.6064 18.764H18.4704L22.1664 10.916L25.8624 18.764H26.7264L31.9584 6.716H29.2704ZM44.0781 11.852C44.0781 8.756 41.7741 6.452 38.6301 6.452C35.1981 6.452 32.5341 9.164 32.5341 12.62C32.5341 16.1 35.2221 18.764 38.8701 18.764C40.7421 18.764 42.3261 18.044 43.5741 16.868L42.3741 15.14C41.3901 16.004 40.3101 16.532 38.9421 16.532C36.9261 16.532 35.4381 15.38 35.1021 13.436H43.8861C43.9581 13.124 44.0781 12.5 44.0781 11.852ZM38.5341 8.588C40.1421 8.588 41.5101 9.62 41.5581 11.468H35.1501C35.5341 9.716 36.8781 8.588 38.5341 8.588ZM50.1336 18.764C52.4856 18.764 54.5016 17.54 54.5016 15.164C54.5016 13.436 53.4216 12.5 51.2856 11.612L50.1576 11.156C49.0776 10.7 48.5976 10.388 48.5976 9.764C48.5976 8.996 49.2696 8.636 50.2056 8.636C51.2376 8.636 52.2216 9.068 52.9656 9.836L54.3336 8.276C53.3496 7.1 51.9576 6.452 50.2536 6.452C47.9256 6.452 46.1016 7.676 46.1016 9.86C46.1016 11.636 47.2776 12.5 49.1736 13.292L50.3736 13.796C51.3336 14.18 52.0296 14.492 52.0296 15.26C52.0296 16.148 51.1656 16.58 50.1336 16.58C48.7896 16.58 47.7576 15.884 46.8216 14.9L45.3816 16.484C46.3896 17.804 48.0456 18.764 50.1336 18.764ZM62.3994 18.764C65.9034 18.764 68.6634 16.028 68.6634 12.596C68.6634 9.164 65.9034 6.452 62.3994 6.452C58.9194 6.452 56.1834 9.14 56.1834 12.596C56.1834 16.028 58.9194 18.764 62.3994 18.764ZM62.3994 16.436C60.3114 16.436 58.7514 14.804 58.7514 12.62C58.7514 10.412 60.3114 8.756 62.4234 8.756C64.4874 8.756 66.0714 10.412 66.0714 12.62C66.0714 14.78 64.4874 16.436 62.3994 16.436ZM84.3924 6.452C82.6644 6.452 81.2484 7.22 80.4084 8.3C79.7124 7.172 78.5124 6.452 76.8324 6.452C75.4164 6.452 74.2404 6.956 73.4244 7.82V6.716H71.0724V18.5H73.5924V11.492C73.5924 9.86 74.6484 8.756 76.1844 8.756C77.6964 8.756 78.6564 9.86 78.6564 11.492V18.5H81.1764V11.372C81.1764 9.884 82.2324 8.756 83.7684 8.756C85.3044 8.756 86.2164 9.86 86.2164 11.492V18.5H88.7604V11.132C88.7604 8.372 87.1764 6.452 84.3924 6.452ZM102.58 11.852C102.58 8.756 100.276 6.452 97.1319 6.452C93.6999 6.452 91.0359 9.164 91.0359 12.62C91.0359 16.1 93.7239 18.764 97.3719 18.764C99.2439 18.764 100.828 18.044 102.076 16.868L100.876 15.14C99.8919 16.004 98.8119 16.532 97.4439 16.532C95.4279 16.532 93.9399 15.38 93.6039 13.436H102.388C102.46 13.124 102.58 12.5 102.58 11.852ZM97.0359 8.588C98.6439 8.588 100.012 9.62 100.06 11.468H93.6519C94.0359 9.716 95.3799 8.588 97.0359 8.588ZM116.682 16.484C115.218 16.484 114.354 16.004 114.354 14.444V8.9H117.858V6.716H114.354V3.62H111.81V6.716H109.89V8.9H111.81V14.66C111.81 17.516 113.538 18.764 116.154 18.764C116.946 18.764 117.594 18.644 118.242 18.5V16.364C117.618 16.436 117.114 16.484 116.682 16.484ZM125.554 18.764C129.058 18.764 131.818 16.028 131.818 12.596C131.818 9.164 129.058 6.452 125.554 6.452C122.074 6.452 119.338 9.14 119.338 12.596C119.338 16.028 122.074 18.764 125.554 18.764ZM125.554 16.436C123.466 16.436 121.906 14.804 121.906 12.62C121.906 10.412 123.466 8.756 125.578 8.756C127.642 8.756 129.226 10.412 129.226 12.62C129.226 14.78 127.642 16.436 125.554 16.436ZM139.699 18.764C143.203 18.764 145.963 16.028 145.963 12.596C145.963 9.164 143.203 6.452 139.699 6.452C136.219 6.452 133.483 9.14 133.483 12.596C133.483 16.028 136.219 18.764 139.699 18.764ZM139.699 16.436C137.611 16.436 136.051 14.804 136.051 12.62C136.051 10.412 137.611 8.756 139.723 8.756C141.787 8.756 143.371 10.412 143.371 12.62C143.371 14.78 141.787 16.436 139.699 16.436ZM148.372 18.5H150.892V0.499999H148.372V18.5ZM157.704 18.764C160.056 18.764 162.072 17.54 162.072 15.164C162.072 13.436 160.992 12.5 158.856 11.612L157.728 11.156C156.648 10.7 156.168 10.388 156.168 9.764C156.168 8.996 156.84 8.636 157.776 8.636C158.808 8.636 159.792 9.068 160.536 9.836L161.904 8.276C160.92 7.1 159.528 6.452 157.824 6.452C155.496 6.452 153.672 7.676 153.672 9.86C153.672 11.636 154.848 12.5 156.744 13.292L157.944 13.796C158.904 14.18 159.6 14.492 159.6 15.26C159.6 16.148 158.736 16.58 157.704 16.58C156.36 16.58 155.328 15.884 154.392 14.9L152.952 16.484C153.96 17.804 155.616 18.764 157.704 18.764Z" fill="#A1A1B5"/>
</svg>
