<svg width="300" height="300" viewBox="0 0 300 300" fill="none" xmlns="http://www.w3.org/2000/svg">
<g clip-path="url(#clip0_1_2)">
<rect width="300" height="300" fill="white"/>
<path d="M262.5 150C262.5 169.814 257.267 189.277 247.33 206.42C237.393 223.562 223.104 237.776 205.91 247.623C188.716 257.471 169.226 262.602 149.412 262.498C129.598 262.395 110.162 257.06 93.0721 247.033L150 150H262.5Z" fill="#990099"/>
<path d="M93.75 52.5721C110.91 42.665 130.382 37.4656 150.196 37.5002C170.01 37.5347 189.464 42.8019 206.589 52.7688C223.714 62.7358 237.903 77.0489 247.721 94.2602C257.538 111.472 262.635 130.97 262.497 150.784L150 150L93.75 52.5721Z" fill="#FF9900"/>
<path d="M93.75 247.428C76.5902 237.521 62.3515 223.257 52.4742 206.08C42.597 188.903 37.4316 169.422 37.5007 149.608C37.5698 129.794 42.8708 110.349 52.8676 93.2413C62.8644 76.1336 77.2022 61.9696 94.4306 52.1823L150 150L93.75 247.428Z" fill="#66AA33"/>
<circle cx="150" cy="150" r="105" stroke="black" stroke-width="15"/>
</g>
<defs>
<clipPath id="clip0_1_2">
<rect width="300" height="300" fill="white"/>
</clipPath>
</defs>
</svg>
