<svg width="102" height="18" viewBox="0 0 102 18" fill="none" xmlns="http://www.w3.org/2000/svg">
<path d="M12.0149 6.29727L13.6495 3.4384C13.7018 3.34725 13.7018 3.23669 13.6495 3.14554L11.9308 0.143197V0.136726C11.9241 0.130255 11.9176 0.123785 11.9176 0.110844L11.9111 0.104092C11.9047 0.0976212 11.8982 0.0843987 11.8914 0.0782095C11.885 0.0717389 11.872 0.064987 11.8655 0.0585165L11.8591 0.0520459C11.8526 0.0455753 11.8461 0.0391047 11.8394 0.0391047C11.8394 0.0391047 11.8329 0.0391047 11.8329 0.0326342C11.8132 0.0194117 11.7938 0.0129411 11.7679 0.00647057H11.7615C11.755 0.00647057 11.7418 0 11.7353 0H1.96023H1.95376C1.94701 0 1.93407 0 1.9276 0.00647057H1.92113C1.90143 0.0129411 1.87555 0.0194117 1.85586 0.0326342C1.85586 0.0326342 1.84939 0.0326342 1.84939 0.0391047C1.84292 0.0455753 1.83645 0.0455753 1.82969 0.0520459L1.82351 0.0585165C1.81675 0.064987 1.80381 0.0717389 1.79734 0.0782095C1.79087 0.0846801 1.7844 0.0979025 1.77765 0.104092L1.77118 0.110844C1.76471 0.117314 1.75824 0.123785 1.75824 0.136726V0.143478L0.0390344 3.14582C-0.0130115 3.23697 -0.0130115 3.34754 0.0390344 3.43869L1.71913 6.37576V16.0464C1.71913 16.0529 1.71913 16.0661 1.7256 16.0726V16.0791C1.73236 16.0988 1.73882 16.1247 1.75177 16.1441C1.75177 16.1441 1.75177 16.1505 1.75824 16.1505C1.76471 16.1573 1.76471 16.1638 1.77118 16.1702L1.77793 16.1767C1.7844 16.1832 1.79087 16.1964 1.79734 16.2029C1.80381 16.2093 1.81704 16.2158 1.82351 16.2223L1.82997 16.2288C1.83645 16.2352 1.84292 16.2417 1.85586 16.2417H1.86233L4.86467 17.9612C4.91025 17.9871 4.9623 18 5.00787 18C5.05992 18 5.10549 17.9871 5.15135 17.9612L8.15313 16.2417H8.15988C8.16635 16.2352 8.17282 16.2288 8.18576 16.2288L8.19223 16.2223C8.19899 16.2158 8.21193 16.2093 8.2184 16.2026C8.22487 16.1961 8.23134 16.1832 8.23809 16.1767L8.24456 16.1702C8.25103 16.1638 8.2575 16.1573 8.2575 16.1505C8.2575 16.1505 8.2575 16.1441 8.26397 16.1441C8.27691 16.1244 8.28367 16.105 8.29014 16.0791V16.0726C8.29014 16.0659 8.29661 16.0529 8.29661 16.0464V16.04V12.5948H11.7415C11.748 12.5948 11.7612 12.5948 11.7676 12.5884H11.7741C11.7938 12.5819 11.8197 12.5754 11.8391 12.5625C11.8391 12.5625 11.8459 12.5625 11.8459 12.556C11.8523 12.5492 11.8588 12.5492 11.8653 12.5428L11.8717 12.5363C11.8782 12.5298 11.8914 12.5234 11.8979 12.5166C11.9044 12.5104 11.9108 12.5037 11.9176 12.4907L11.9238 12.4843C11.9305 12.4778 11.937 12.4713 11.937 12.4581V12.4516L13.6559 9.44956C13.7083 9.35841 13.7083 9.24757 13.6559 9.15642L12.0149 6.29727ZM9.78793 9.00647H4.98846C4.91672 9 4.84498 9.02616 4.78646 9.07146L4.77999 9.07821L4.76705 9.09115C4.71472 9.1432 4.68237 9.21494 4.68237 9.29933V14.1185L2.25985 15.5055V6.58423H11.1684L9.78793 9.00647ZM7.6909 15.5057L5.26838 14.1188V10.0029L7.6909 12.4252V15.5057ZM9.78793 2.99559H3.86173L2.47478 0.573067H11.1749L9.78793 2.99559ZM3.86173 3.5816H9.78793L11.1749 6.00441H2.4745L3.86173 3.5816ZM11.6765 5.70479L10.2957 3.28874L11.6765 0.872683L13.057 3.28874L11.6765 5.70479ZM1.97317 0.872683L3.35365 3.28874L1.97317 5.70479L0.592691 3.28874L1.97317 0.872683ZM4.97523 17.3878L2.55918 16.0071L4.97523 14.6266L7.39129 16.0071L4.97523 17.3878ZM8.10108 12.015L5.67884 9.59276H9.78793L11.1749 12.015H8.10108ZM11.6765 11.7157L10.2957 9.29962L11.6765 6.88356L13.057 9.29962L11.6765 11.7157Z" fill="#F04D21"/>
<path d="M23.009 3.61391C23.009 3.39744 23.0995 3.30696 23.3159 3.30696H29.9251C30.1415 3.30696 30.232 3.39744 30.232 3.61391V4.589C30.232 4.74268 30.1688 4.80586 30.0152 4.80586H24.6889V7.80328H28.9141C29.131 7.80328 29.2211 7.89377 29.2211 8.11024V8.99523C29.2211 9.2117 29.131 9.30219 28.9141 9.30219H24.6795V13.6718C24.6795 13.8886 24.589 13.9787 24.3725 13.9787H23.307C23.0901 13.9787 23 13.8886 23 13.6718V3.61391H23.009ZM30.1142 10.3853C30.1142 8.08333 31.6857 6.65658 33.843 6.65658C36.001 6.65658 37.5721 8.08333 37.5721 10.3853C37.5721 12.8503 35.8657 14.1141 33.8434 14.1141C31.821 14.1141 30.1142 12.8593 30.1142 10.3853ZM35.9562 10.4036C35.9562 8.86886 35.008 8.00181 33.8434 8.00181C32.6694 8.00181 31.7305 8.86886 31.7305 10.4036C31.7305 11.8031 32.525 12.7782 33.8434 12.7782C35.1707 12.7782 35.9562 11.8031 35.9562 10.4036ZM38.8541 7.11721C38.8541 6.90035 38.9446 6.81025 39.1611 6.81025H40.1089C40.3258 6.81025 40.4162 6.90035 40.4162 7.11721V7.75804C40.9217 7.11721 41.68 6.66594 42.7276 6.66594C44.0997 6.66594 44.9484 7.5053 44.9484 8.77837C44.9484 8.99523 44.84 9.08533 44.6415 9.08533H43.6843C43.5127 9.08533 43.4589 9.02214 43.4406 8.84156C43.3774 8.32671 43.0615 8.00181 42.4023 8.00181C41.7977 8.00181 41.2739 8.4172 40.9397 8.8868C40.6058 9.3564 40.4073 9.93404 40.4073 10.8459V13.6628C40.4073 13.8796 40.3168 13.9697 40.1003 13.9697H39.1521C38.9353 13.9697 38.8452 13.8796 38.8452 13.6628V7.11721H38.8541ZM45.9777 7.11721C45.9777 6.90035 46.0682 6.81025 46.2847 6.81025H47.2325C47.4494 6.81025 47.5398 6.90035 47.5398 7.11721V7.76701C48.0274 7.08094 48.6503 6.65658 49.6523 6.65658C50.5642 6.65658 51.1874 7.01775 51.4671 7.65897C51.9546 7.08094 52.7039 6.65658 53.7695 6.65658C55.0332 6.65658 55.9186 7.34304 55.9186 8.7694V13.6538C55.9186 13.8707 55.8281 13.9608 55.6112 13.9608H54.6451C54.4286 13.9608 54.3382 13.8707 54.3382 13.6538V8.97729C54.3382 8.33607 54.0675 7.98387 53.4446 7.98387C52.9839 7.98387 52.5596 8.20073 52.1984 8.63406C51.8193 9.0943 51.6477 9.51866 51.6477 10.2773V13.6448C51.6477 13.8613 51.5576 13.9518 51.3407 13.9518H50.4019C50.1851 13.9518 50.095 13.8613 50.095 13.6448V8.95896C50.095 8.31774 49.8239 7.98387 49.201 7.98387C48.7766 7.98387 48.3343 8.22764 48.0184 8.63406C47.7025 9.04905 47.5309 9.34704 47.5309 10.1415V13.6448C47.5309 13.8613 47.4404 13.9518 47.2235 13.9518H46.2757C46.0589 13.9518 45.9688 13.8613 45.9688 13.6448V7.11721H45.9777ZM58.3469 3.587C58.9246 3.587 59.3852 4.04724 59.3852 4.62528C59.3852 5.20292 58.925 5.66355 58.3469 5.66355C57.7693 5.66355 57.3087 5.20331 57.3087 4.62528C57.3087 4.03827 57.7689 3.587 58.3469 3.587ZM57.5708 7.11682C57.5708 6.90035 57.6605 6.81025 57.8773 6.81025H58.8251C59.042 6.81025 59.1325 6.90035 59.1325 7.11721V13.6628C59.1325 13.8796 59.042 13.9697 58.8255 13.9697H57.8777C57.6609 13.9697 57.5704 13.8796 57.5704 13.6628V7.11721L57.5708 7.11682ZM66.2198 13.3379C65.6238 13.8434 65.1094 14.1141 64.0169 14.1141C62.2204 14.1141 60.7125 12.8683 60.7125 10.3853C60.7125 8.03808 62.3105 6.65658 64.1975 6.65658C65.0914 6.65658 65.7771 6.9456 66.2198 7.4152V3.30696C66.2198 3.09049 66.3103 3 66.5267 3H67.466C67.6824 3 67.7729 3.09049 67.7729 3.30696V13.6538C67.7729 13.8707 67.6824 13.9608 67.4839 13.9608H66.7346C66.5178 13.9608 66.4187 13.8886 66.3372 13.6538L66.2198 13.3379ZM66.2198 9.7987C66.2198 9.3291 66.1297 9.02214 65.8044 8.66994C65.4705 8.29083 64.965 8.00181 64.3418 8.00181C63.1861 8.00181 62.3194 8.91371 62.3194 10.4036C62.3194 11.7758 63.0956 12.7782 64.3328 12.7782C65.0193 12.7782 65.5517 12.4892 65.8586 12.0917C66.1476 11.7305 66.2198 11.4056 66.2198 10.9091V9.7987ZM75.0502 13.2657C74.4538 13.8254 73.8762 14.1144 72.7837 14.1144C70.8515 14.1144 69.2266 12.8683 69.2266 10.3857C69.2266 8.03769 70.8694 6.65697 72.8832 6.65697C73.9663 6.65697 74.6797 7.03569 75.0588 7.49633V7.11721C75.0588 6.90035 75.1493 6.81025 75.3657 6.81025H76.3135C76.5304 6.81025 76.6209 6.90035 76.6209 7.11721V13.6628C76.6209 13.8796 76.5304 13.9697 76.3139 13.9697H75.5646C75.3657 13.9697 75.2487 13.8976 75.1851 13.6628L75.0502 13.2657ZM75.0502 9.73552C75.0502 9.27527 74.9414 8.9769 74.6075 8.62509C74.2916 8.30916 73.7677 8.00181 73.0544 8.00181C71.7907 8.00181 70.8335 8.89577 70.8335 10.4036C70.8335 11.8663 71.7454 12.7782 73.0275 12.7782C73.822 12.7782 74.3817 12.3987 74.6976 12.0016C74.9597 11.6494 75.0498 11.3514 75.0498 10.8639L75.0502 9.73552ZM78.2914 3.31593C78.2914 3.09946 78.3811 3.00897 78.5979 3.00897H79.5457C79.7626 3.00897 79.8531 3.09946 79.8531 3.31593V7.88441C80.4128 7.21628 81.3157 6.66555 82.3809 6.66555C84.4395 6.66555 85.514 8.04705 85.514 10.3674C85.514 12.5165 84.223 14.1234 81.9838 14.1234C81.0989 14.1234 80.4307 13.8976 79.8531 13.5185V13.6718C79.8531 13.8886 79.7626 13.9787 79.5461 13.9787H78.5983C78.3815 13.9787 78.291 13.8886 78.291 13.6718V3.31632L78.2914 3.31593ZM79.8437 11.5593C79.8437 11.9205 80.0247 12.1101 80.2416 12.2723C80.7018 12.6066 81.2436 12.7782 81.776 12.7782C83.1485 12.7782 83.8888 11.7305 83.8888 10.3763C83.8888 8.7967 83.0943 8.00181 82.065 8.00181C81.0719 8.00181 80.467 8.66994 80.1511 9.20273C79.9705 9.51866 79.8441 9.7987 79.8441 10.3405L79.8437 11.5593ZM86.823 3.31593C86.823 3.09946 86.9135 3.00897 87.13 3.00897H88.0778C88.2946 3.00897 88.3851 3.09946 88.3851 3.31593V12.0196C88.3851 12.5703 88.6289 12.7782 88.9811 12.7782C89.3149 12.7782 89.4686 12.6245 89.6219 12.6245C89.7124 12.6245 89.7756 12.6967 89.7756 12.8234V13.7349C89.7756 13.8707 89.7124 13.9339 89.6219 13.9612C89.3781 14.0509 88.9354 14.1144 88.5747 14.1144C87.7349 14.1144 86.8413 13.6269 86.8413 12.3807V3.31632L86.823 3.31593ZM97.2693 12.4439C97.3142 12.4892 97.3415 12.5524 97.3415 12.6155C97.3415 12.6787 97.3142 12.7325 97.251 12.7961C96.258 13.7892 95.527 14.1234 94.1272 14.1234C92.2223 14.1234 90.4164 12.7961 90.4164 10.3947C90.4164 8.12857 92.0596 6.66594 94.073 6.66594C96.5107 6.66594 97.6301 8.55254 97.6301 10.2862V10.5932C97.6301 10.8097 97.5404 10.9002 97.3235 10.9002H91.9695C92.168 12.0558 92.9895 12.7872 94.2083 12.7872C95.2107 12.7872 95.7614 12.408 96.231 11.8752C96.3032 11.7848 96.3664 11.7399 96.4565 11.7399C96.5197 11.7399 96.5739 11.7672 96.6554 11.8479L97.2693 12.4439ZM96.0863 9.60915C95.8246 8.49832 95.0028 7.99284 94.1089 7.99284C93.1338 7.99284 92.2223 8.58881 91.9785 9.60915H96.0863Z" fill="#383838"/>
<path d="M99.6493 7.98581C100.395 7.98581 101 7.38108 101 6.63511C101 5.88915 100.395 5.28442 99.6493 5.28442C98.9033 5.28442 98.2986 5.88915 98.2986 6.63511C98.2986 7.38108 98.9033 7.98581 99.6493 7.98581Z" stroke="#383838" stroke-width="0.3"/>
<path d="M99.5568 6.5123C99.6492 6.5123 99.7105 6.48149 99.7413 6.45067C99.7717 6.42025 99.8025 6.35863 99.8025 6.29739C99.8025 6.23616 99.7717 6.17453 99.7413 6.14372C99.7101 6.11329 99.6492 6.11329 99.5568 6.11329H99.3727V6.5123H99.5568ZM99.4035 6.78844V7.40236H99.0045V5.80634H99.6184C99.833 5.80634 99.9866 5.83676 100.079 5.89838C100.171 5.95962 100.232 6.08248 100.232 6.23615C100.232 6.3282 100.202 6.42025 100.171 6.48188C100.109 6.54311 100.048 6.60435 99.9562 6.63516C100.017 6.63516 100.048 6.66558 100.109 6.72721C100.171 6.78844 100.202 6.85007 100.232 6.94173L100.447 7.40236H100.017L99.8333 7.00335C99.8025 6.91131 99.7413 6.88049 99.7105 6.85007C99.6797 6.81887 99.6184 6.81887 99.5568 6.81887H99.4035" fill="#383838"/>
</svg>
