<svg width="24" height="24" viewBox="0 0 24 24" fill="none" xmlns="http://www.w3.org/2000/svg">
<path d="M10.854 1C12.8709 1 14.7286 1.46699 16.4536 2.37502C18.1785 3.28305 19.5054 4.55429 20.4873 6.13686C21.4958 7.79725 22 9.58737 22 11.5591C22 13.9459 21.31 16.0992 19.93 17.9931C18.5501 19.887 16.772 21.1842 14.5428 21.9106C14.304 21.9625 14.1182 21.9366 13.9855 21.8328C13.8528 21.729 13.7732 21.5734 13.7732 21.3918V17.7596C13.7732 16.8257 13.5344 16.1771 13.0302 15.762C14.1182 15.6582 14.9409 15.5025 15.4717 15.3209C16.2943 15.0356 16.9312 14.5945 17.3824 14.0237C17.8866 13.2714 18.1255 12.2336 18.1255 10.9364C18.1255 10.3916 18.0193 9.8987 17.807 9.50954C17.6478 9.22416 17.3824 8.86095 16.9578 8.4199C17.0639 8.13452 17.1435 7.77131 17.1701 7.38216C17.1966 6.73356 17.0905 6.11091 16.8516 5.46232C16.6128 5.41043 16.1882 5.48826 15.6574 5.69581C15.3124 5.85148 14.8878 6.03308 14.4101 6.29252L13.8263 6.68167C12.8975 6.42224 11.9686 6.29252 11.0133 6.29252C10.0579 6.29252 9.12907 6.42224 8.25332 6.68167L7.66948 6.29252C7.1918 6.03308 6.76719 5.82553 6.39566 5.69581C5.8649 5.48826 5.46683 5.43638 5.20145 5.51421C4.93607 6.1628 4.82992 6.78545 4.88299 7.43404C4.88299 7.84914 4.93607 8.16047 5.06876 8.4199C4.72376 8.86095 4.45838 9.2501 4.29916 9.61332C4.13993 9.97653 4.06031 10.4176 4.06031 10.9883C4.06031 12.2855 4.29916 13.2973 4.77684 14.0237C5.20145 14.6205 5.81182 15.0874 6.6345 15.3728C7.16526 15.5544 7.9614 15.6841 9.02292 15.8139C8.65139 16.1511 8.41254 16.6441 8.30639 17.2927C7.80217 17.5261 7.32449 17.604 6.8468 17.5521C6.0772 17.5002 5.49337 17.111 5.06876 16.3846C4.88299 16.0733 4.64415 15.8139 4.35223 15.6063C4.13993 15.5025 3.92762 15.3988 3.68878 15.295L3.37033 15.2431C3.05187 15.2431 2.8661 15.295 2.8661 15.3988C2.83957 15.5025 2.91918 15.6063 3.07841 15.736L3.29071 15.9176C3.50302 16.0214 3.71532 16.229 3.90109 16.4884C4.08685 16.696 4.21954 16.9294 4.35223 17.1889L4.538 17.5261C4.69723 17.9672 4.9626 18.3045 5.38721 18.512C5.73221 18.7196 6.18335 18.8493 6.66104 18.9012C7.00603 18.9271 7.37756 18.9271 7.77563 18.8493L8.25332 18.7974L8.30639 21.4437C8.30639 21.6253 8.22678 21.755 8.09409 21.8847C7.9614 21.9885 7.77563 22.0404 7.53679 21.9625C5.28106 21.2361 3.47648 19.9389 2.06996 18.045C0.689988 16.1252 0 13.9719 0 11.585C0 9.61331 0.477684 7.8232 1.40651 6.21469C2.36188 4.60618 3.66224 3.33493 5.3076 2.40096C6.97949 1.46699 8.83715 1 10.854 1ZM3.82147 15.6063C3.87455 15.5544 3.95416 15.5285 4.03378 15.5804C4.11339 15.6323 4.13993 15.6841 4.11339 15.762C4.08685 15.8398 4.00724 15.8398 3.90109 15.7879C3.79493 15.736 3.79493 15.6582 3.82147 15.6063ZM4.29916 15.9695C4.35223 15.9176 4.43185 15.9176 4.51146 16.0214C4.59107 16.0992 4.61761 16.1771 4.56454 16.229C4.51146 16.2809 4.43185 16.2809 4.35223 16.1771C4.24608 16.0992 4.24608 16.0214 4.29916 15.9695ZM4.7503 16.5143C4.80338 16.4884 4.85645 16.4884 4.90953 16.4884C4.96261 16.5143 4.98914 16.5403 5.01568 16.5922C5.0953 16.6959 5.0953 16.7997 5.01568 16.8516C4.98914 16.8776 4.93607 16.8776 4.90953 16.8516C4.88299 16.8257 4.80338 16.7997 4.7503 16.7738C4.69723 16.6441 4.69723 16.5403 4.7503 16.5143ZM5.28106 17.137C5.3076 17.111 5.36067 17.111 5.41375 17.111C5.46683 17.137 5.5199 17.1629 5.57298 17.1889C5.62606 17.2408 5.65259 17.2927 5.65259 17.3445C5.67913 17.3964 5.65259 17.4483 5.62606 17.4743C5.54644 17.5521 5.44029 17.5521 5.3076 17.4224C5.25452 17.3705 5.22799 17.3186 5.22799 17.2408C5.22799 17.1629 5.25452 17.1629 5.28106 17.137ZM5.99759 17.6818C6.02413 17.578 6.10374 17.5261 6.26297 17.578C6.4222 17.6299 6.47527 17.6818 6.47527 17.7596C6.44873 17.8375 6.4222 17.8894 6.36912 17.9153C6.31604 17.9412 6.26297 17.9412 6.18335 17.9153C6.10374 17.8894 6.0772 17.8375 6.02413 17.8115C5.97105 17.7596 5.97105 17.7337 5.99759 17.6818ZM7.35103 17.8634C7.35103 17.8375 7.32449 17.8115 7.27141 17.7856C7.21833 17.7596 7.16526 17.7337 7.05911 17.7337C6.89988 17.7337 6.8468 17.7856 6.8468 17.9153C6.8468 18.0191 6.92642 18.071 7.08564 18.071C7.27141 18.045 7.35103 17.9931 7.35103 17.8634ZM7.93486 17.604C8.09409 17.604 8.1737 17.6559 8.1737 17.7337C8.20024 17.8115 8.12063 17.8894 7.9614 17.9412C7.90832 17.9412 7.85525 17.9412 7.80217 17.9153C7.74909 17.8894 7.72256 17.8375 7.72256 17.7596C7.72256 17.6818 7.80217 17.6299 7.93486 17.604Z" fill="#43436B"/>
</svg>
