<svg width="16" height="16" fill="none" xmlns="http://www.w3.org/2000/svg"><path d="M7.907 1c1.284 0 2.466.29 3.563.851a6.502 6.502 0 012.567 2.329A6.192 6.192 0 0115 7.537c0 1.477-.44 2.81-1.317 3.983-.878 1.172-2.01 1.975-3.428 2.425-.153.032-.27.016-.355-.049a.337.337 0 01-.135-.273v-2.248c0-.578-.152-.98-.473-1.237.692-.064 1.216-.16 1.554-.273.523-.176.928-.45 1.216-.803.32-.465.472-1.108.472-1.91 0-.338-.067-.643-.202-.884a3.408 3.408 0 00-.54-.675 2.29 2.29 0 00.134-.642 2.94 2.94 0 00-.202-1.189c-.152-.032-.422.016-.76.145-.22.096-.49.209-.794.37l-.371.24a6.767 6.767 0 00-1.79-.24 6.34 6.34 0 00-1.757.24l-.371-.24a5.841 5.841 0 00-.811-.37c-.338-.129-.591-.16-.76-.112a2.462 2.462 0 00-.203 1.188c0 .257.034.45.119.61-.22.273-.389.514-.49.739-.102.225-.152.498-.152.851 0 .803.152 1.43.456 1.88.27.369.658.658 1.182.834.338.113.844.193 1.52.274-.237.208-.389.513-.456.915a1.757 1.757 0 01-.929.16c-.49-.032-.861-.273-1.131-.722a1.591 1.591 0 00-.456-.482c-.135-.064-.27-.128-.423-.193l-.202-.032c-.203 0-.321.032-.321.097-.017.064.034.128.135.208l.135.113c.135.064.27.193.389.353.118.129.202.273.287.434l.118.208c.101.274.27.482.54.61.22.13.507.21.81.242.22.016.457.016.71-.032l.304-.033.034 1.639c0 .112-.05.192-.135.273a.375.375 0 01-.355.048c-1.435-.45-2.584-1.253-3.479-2.425a6.565 6.565 0 01-1.317-4c0-1.22.304-2.328.895-3.324a6.578 6.578 0 012.483-2.36C5.44 1.288 6.624 1 7.908 1zm-4.475 9.042c.034-.032.084-.048.135-.016.05.032.067.064.05.112-.016.049-.067.049-.134.016-.068-.032-.068-.08-.051-.112zm.304.225c.034-.032.084-.032.135.032.05.048.067.096.034.129-.034.032-.085.032-.135-.033-.068-.048-.068-.096-.034-.128zm.287.337c.034-.016.067-.016.101-.016.034.016.05.032.068.064.05.065.05.129 0 .16-.017.017-.05.017-.068 0-.017-.015-.067-.031-.101-.047-.034-.08-.034-.145 0-.16zm.338.386c.017-.017.05-.017.084-.017l.101.049c.034.032.051.064.051.096.017.032 0 .064-.017.08-.05.048-.118.048-.202-.032a.142.142 0 01-.051-.112c0-.048.017-.048.034-.064zm.456.337c.017-.064.067-.097.169-.064.1.032.135.064.135.112-.017.048-.034.08-.068.096s-.067.016-.118 0c-.05-.016-.068-.048-.101-.064-.034-.032-.034-.048-.017-.08zm.86.112c0-.016-.016-.032-.05-.048a.272.272 0 00-.135-.032c-.101 0-.135.032-.135.112 0 .065.05.097.152.097.118-.016.169-.048.169-.129zm.372-.16c.102 0 .152.032.152.08.017.048-.033.096-.135.128-.033 0-.067 0-.101-.016s-.05-.048-.05-.096.05-.08.134-.096z" fill="#43436B"/></svg>