<svg width="59" height="18" viewBox="0 0 59 18" fill="none" xmlns="http://www.w3.org/2000/svg">
<g clip-path="url(#clip0)">
<path d="M25.2483 9.61006C25.2483 12.2373 23.0624 14.1733 20.3798 14.1733C17.6971 14.1733 15.5112 12.2373 15.5112 9.61006C15.5112 6.96432 17.6971 5.04688 20.3798 5.04688C23.0624 5.04688 25.2483 6.96432 25.2483 9.61006ZM23.1171 9.61006C23.1171 7.9683 21.8502 6.84499 20.3798 6.84499C18.9094 6.84499 17.6424 7.9683 17.6424 9.61006C17.6424 11.2354 18.9094 12.3751 20.3798 12.3751C21.8502 12.3751 23.1171 11.2333 23.1171 9.61006Z" fill="#EA4335"/>
<path d="M35.7512 9.61006C35.7512 12.2373 33.5653 14.1733 30.8827 14.1733C28.2001 14.1733 26.0142 12.2373 26.0142 9.61006C26.0142 6.96638 28.2001 5.04688 30.8827 5.04688C33.5653 5.04688 35.7512 6.96432 35.7512 9.61006ZM33.62 9.61006C33.62 7.9683 32.3531 6.84499 30.8827 6.84499C29.4123 6.84499 28.1454 7.9683 28.1454 9.61006C28.1454 11.2354 29.4123 12.3751 30.8827 12.3751C32.3531 12.3751 33.62 11.2333 33.62 9.61006Z" fill="#FBBC05"/>
<path d="M45.8165 5.32256V13.5149C45.8165 16.8848 43.7028 18.2612 41.204 18.2612C38.8518 18.2612 37.4361 16.782 36.9022 15.5722L38.7577 14.846C39.0881 15.5887 39.8977 16.4651 41.2018 16.4651C42.8013 16.4651 43.7925 15.5373 43.7925 13.7906V13.1343H43.7181C43.2411 13.6877 42.3221 14.1712 41.1624 14.1712C38.7358 14.1712 36.5127 12.1838 36.5127 9.62652C36.5127 7.05073 38.7358 5.04688 41.1624 5.04688C42.3199 5.04688 43.2389 5.53035 43.7181 6.06732H43.7925V5.32462H45.8165V5.32256ZM43.9435 9.62652C43.9435 8.01974 42.8035 6.84499 41.3528 6.84499C39.8824 6.84499 38.6505 8.01974 38.6505 9.62652C38.6505 11.2168 39.8824 12.3751 41.3528 12.3751C42.8035 12.3751 43.9435 11.2168 43.9435 9.62652Z" fill="#4285F4"/>
<path d="M49.1534 0.519913V13.8927H47.0747V0.519913H49.1534Z" fill="#34A853"/>
<path d="M57.2537 11.1101L58.9079 12.147C58.3741 12.8897 57.0875 14.1693 54.8643 14.1693C52.1073 14.1693 50.0483 12.1655 50.0483 9.60616C50.0483 6.89252 52.1248 5.04297 54.6258 5.04297C57.1443 5.04297 58.3762 6.9275 58.7789 7.94588L58.9999 8.46433L52.5121 10.9908C53.0088 11.9063 53.7812 12.3733 54.8643 12.3733C55.9496 12.3733 56.7023 11.8713 57.2537 11.1101ZM52.162 9.46832L56.4989 7.77512C56.2604 7.20524 55.5427 6.80817 54.698 6.80817C53.6149 6.80817 52.1073 7.70723 52.162 9.46832Z" fill="#EA4335"/>
<path d="M7.64304 8.42277V6.48681H14.5815C14.6493 6.82421 14.6844 7.22334 14.6844 7.65538C14.6844 9.10786 14.2621 10.9039 12.9011 12.1836C11.5772 13.4797 9.88585 14.171 7.64523 14.171C3.49221 14.171 0 10.9903 0 7.08549C0 3.18065 3.49221 0 7.64523 0C9.94274 0 11.5794 0.847626 12.8092 1.95242L11.3563 3.3185C10.4744 2.54082 9.27974 1.93596 7.64304 1.93596C4.61033 1.93596 2.23843 4.23401 2.23843 7.08549C2.23843 9.93697 4.61033 12.235 7.64304 12.235C9.61015 12.235 10.7305 11.4923 11.4482 10.8175C12.0302 10.2703 12.4131 9.48847 12.5641 8.42071L7.64304 8.42277Z" fill="#4285F4"/>
</g>
<defs>
<clipPath id="clip0">
<rect width="59" height="18" fill="white"/>
</clipPath>
</defs>
</svg>
