<svg width="59" height="18" fill="none" xmlns="http://www.w3.org/2000/svg"><g clip-path="url(#clip0)"><path d="M25.249 9.61c0 2.627-2.186 4.563-4.869 4.563-2.682 0-4.868-1.936-4.868-4.563 0-2.646 2.186-4.563 4.868-4.563 2.683 0 4.869 1.917 4.869 4.563zm-2.131 0c0-1.642-1.267-2.765-2.738-2.765-1.47 0-2.737 1.123-2.737 2.765a2.715 2.715 0 002.737 2.765 2.717 2.717 0 002.738-2.765z" fill="#EA4335"/><path d="M35.75 9.61c0 2.627-2.185 4.563-4.868 4.563-2.682 0-4.868-1.936-4.868-4.563 0-2.644 2.186-4.563 4.868-4.563 2.683 0 4.869 1.917 4.869 4.563zm-2.13 0c0-1.642-1.267-2.765-2.738-2.765-1.47 0-2.737 1.123-2.737 2.765a2.715 2.715 0 002.737 2.765A2.717 2.717 0 0033.62 9.61z" fill="#FBBC05"/><path d="M45.816 5.323v8.192c0 3.37-2.113 4.746-4.612 4.746-2.352 0-3.768-1.479-4.302-2.689l1.856-.726c.33.743 1.14 1.62 2.444 1.62 1.6 0 2.59-.929 2.59-2.675v-.657h-.074c-.477.554-1.396 1.037-2.556 1.037-2.426 0-4.65-1.987-4.65-4.544 0-2.576 2.224-4.58 4.65-4.58 1.158 0 2.077.483 2.556 1.02h.074v-.742h2.024v-.002zm-1.873 4.304c0-1.607-1.14-2.782-2.59-2.782-1.47 0-2.703 1.175-2.703 2.782 0 1.59 1.232 2.748 2.703 2.748 1.45 0 2.59-1.158 2.59-2.748z" fill="#4285F4"/><path d="M49.153.52v13.372h-2.079V.52h2.079z" fill="#34A853"/><path d="M57.254 11.11l1.654 1.037a4.902 4.902 0 01-4.043 2.022c-2.757 0-4.816-2.004-4.816-4.563 0-2.713 2.076-4.563 4.577-4.563 2.519 0 3.75 1.885 4.153 2.903l.221.518-6.487 2.527c.496.915 1.269 1.382 2.352 1.382 1.085 0 1.838-.502 2.39-1.263zm-5.091-1.642l4.336-1.693c-.238-.57-.956-.967-1.8-.967-1.084 0-2.591.9-2.536 2.66z" fill="#EA4335"/><path d="M7.643 8.423V6.487h6.939c.067.337.102.736.102 1.168 0 1.453-.422 3.249-1.783 4.529-1.324 1.296-3.015 1.987-5.256 1.987C3.492 14.171 0 10.991 0 7.085 0 3.181 3.492 0 7.645 0c2.298 0 3.934.848 5.164 1.952l-1.453 1.366c-.882-.777-2.076-1.382-3.713-1.382-3.033 0-5.405 2.298-5.405 5.15 0 2.851 2.372 5.149 5.405 5.149 1.967 0 3.087-.743 3.805-1.417.582-.548.965-1.33 1.116-2.397l-4.921.002z" fill="#4285F4"/></g><defs><clipPath id="clip0"><path fill="#fff" d="M0 0h59v18H0z"/></clipPath></defs></svg>