<svg width="60" height="60" viewBox="0 0 60 60" fill="none" xmlns="http://www.w3.org/2000/svg">
<path d="M34.7005 6L26.9456 24.6484L16.7559 49.153L40.4489 38.8463L52.9988 33.3877L34.7005 6Z" fill="#8087E8"/>
<path d="M38.6525 28.5715L40.4502 38.842L53.0001 33.3834L38.6525 28.5715Z" fill="#30426B"/>
<path d="M34.6997 6L38.6511 28.5765L52.9981 33.3877L34.6997 6Z" fill="#6699A1"/>
<path d="M38.6518 28.574L52.9995 33.3859L26.9463 24.6458L16.7559 49.1512L40.4496 38.8445L38.6518 28.574Z" fill="#78758C"/>
<path d="M16.7556 49.1513L26.9453 24.6466L6 17.6205L16.7556 49.1513Z" fill="#A3EDBA"/>
<path d="M40.45 38.8522L42.748 51.9758L52.9998 33.3936L40.45 38.8522Z" fill="#6699A1"/>
<path d="M34.6997 6L26.9448 24.6484L38.6511 28.5765L34.6997 6Z" fill="#8087E8"/>
</svg>
