<svg width="109" height="20" fill="none" xmlns="http://www.w3.org/2000/svg"><g clip-path="url(#clip0)"><path d="M11.791.5L8.605 8.161 4.42 18.23l9.734-4.235 5.156-2.242L11.79.5z" fill="#8087E8"/><path d="M13.415 9.773l.738 4.22 5.156-2.243-5.894-1.977z" fill="#30426B"/><path d="M11.791.5l1.623 9.275 5.895 1.977L11.79.5z" fill="#6699A1"/><path d="M13.415 9.774l5.894 1.977L8.606 8.16 4.419 18.227l9.734-4.235-.738-4.219z" fill="#78758C"/><path d="M4.419 18.227L8.605 8.16 0 5.273l4.419 12.954z" fill="#A3EDBA"/><path d="M14.153 13.996l.944 5.392 4.212-7.634-5.156 2.242z" fill="#6699A1"/><path d="M11.791.5L8.605 8.161l4.81 1.614L11.79.5z" fill="#8087E8"/><path d="M33.706 10.83h-4.831v2.856c0 .303-.231.541-.525.541a.528.528 0 01-.525-.54v-6.36c0-.304.23-.542.525-.542.294 0 .525.238.525.542v2.465h4.83V7.327c0-.304.232-.542.526-.542.294 0 .525.238.525.542v6.358a.528.528 0 01-.525.541.528.528 0 01-.525-.54V10.83zM38.957 13.685a.528.528 0 01-.526.541.528.528 0 01-.526-.54v-6.36c0-.303.231-.54.526-.54.295 0 .526.237.526.54v6.36zM46.664 11.026a.51.51 0 01.526-.518c.293 0 .525.237.525.54v1.71a.7.7 0 01-.169.432 3.577 3.577 0 01-2.604 1.103c-2.038 0-3.676-1.687-3.676-3.785 0-2.1 1.638-3.785 3.676-3.785 1.03 0 1.932.41 2.604 1.102.21.216.21.541 0 .758-.21.215-.545.237-.755.02-.484-.496-1.114-.8-1.85-.8-1.448 0-2.625 1.212-2.625 2.705 0 1.492 1.177 2.704 2.626 2.704.672 0 1.26-.238 1.722-.65v-1.536zM56.325 10.83h-4.83v2.856a.529.529 0 01-.526.541.527.527 0 01-.525-.54v-6.36c0-.304.23-.542.525-.542.293 0 .525.238.525.542v2.465h4.831V7.327c0-.304.231-.542.525-.542.294 0 .526.238.526.542v6.358c0 .303-.23.541-.526.541a.528.528 0 01-.525-.54V10.83zM63.361 14.293c-2.038 0-3.675-1.687-3.675-3.785 0-2.1 1.637-3.785 3.675-3.785 1.03 0 1.933.41 2.605 1.102.21.216.21.541 0 .758-.21.215-.547.237-.757.02-.482-.496-1.113-.8-1.848-.8-1.45 0-2.625 1.212-2.625 2.705 0 1.492 1.176 2.704 2.625 2.704.735 0 1.387-.282 1.87-.78a.497.497 0 01.735 0c.21.217.21.542 0 .758a3.58 3.58 0 01-2.605 1.103zM74.324 10.83h-4.831v2.856c0 .303-.231.541-.526.541a.528.528 0 01-.525-.54v-6.36c0-.304.23-.542.525-.542.294 0 .526.238.526.542v2.465h4.83V7.327c0-.304.232-.542.527-.542.293 0 .525.238.525.542v6.358c0 .303-.231.541-.525.541a.528.528 0 01-.526-.54V10.83zM82.041 7.261l2.983 6.035c.063.13.126.303.126.454 0 .303-.19.476-.483.476-.21 0-.42-.065-.568-.368l-.924-1.882H79.33l-.903 1.882c-.147.303-.357.368-.566.368-.295 0-.484-.173-.484-.476 0-.151.063-.324.126-.454l2.982-6.035c.19-.41.568-.476.778-.476.211 0 .588.065.778.476zm-2.206 3.677h2.835l-1.407-2.92-1.428 2.92zM90.955 6.832c1.26 0 2.289.951 2.289 2.249 0 1.147-.799 2.012-1.848 2.207l1.91 2.076c.189.195.253.541.042.736-.209.216-.609.152-.82-.087l-2.477-2.682h-1.848v2.38a.51.51 0 01-.526.518.528.528 0 01-.526-.54V7.372c0-.303.231-.541.526-.541h3.278zm-2.75 1.038v2.423h2.75c.735 0 1.24-.52 1.24-1.212 0-.691-.505-1.211-1.24-1.211h-2.75zM98.02 7.87h-2.626a.51.51 0 01-.525-.52.51.51 0 01.525-.518h6.302a.51.51 0 01.526.518.51.51 0 01-.526.52H99.07v5.818c0 .303-.23.54-.524.54a.529.529 0 01-.527-.54V7.869zM104.74 9.75c0-2.703 1.617-3.027 2.836-3.027.293 0 .525.237.525.54a.528.528 0 01-.525.541c-.988 0-1.786.216-1.786 1.947v1.514c0 2.704-1.617 3.028-2.835 3.028a.528.528 0 01-.525-.54c0-.304.231-.541.525-.541.987 0 1.785-.217 1.785-1.947V9.75z" fill="#43436B"/><path d="M108.155 14.224a.765.765 0 00.754-.776.765.765 0 00-.754-.776.765.765 0 00-.753.776c0 .429.337.776.753.776z" stroke="#43436B" stroke-width=".6"/><path d="M108.109 13.378c.047 0 .081-.01.102-.028.02-.017.031-.047.031-.09 0-.04-.011-.07-.031-.088-.021-.017-.055-.026-.102-.026h-.095v.232h.095zm-.095.16v.343h-.226v-.904h.345c.116 0 .2.02.254.06.055.04.081.103.081.19 0 .06-.014.108-.042.147a.24.24 0 01-.127.084.174.174 0 01.084.05.432.432 0 01.074.117l.123.256h-.241l-.107-.225a.24.24 0 00-.065-.092.147.147 0 00-.089-.025h-.064z" fill="#43436B"/></g><defs><clipPath id="clip0"><path fill="#fff" transform="translate(0 .5)" d="M0 0h109v19H0z"/></clipPath></defs></svg>