<svg width="14" height="14" viewBox="0 0 14 14" fill="none" xmlns="http://www.w3.org/2000/svg">
<g clip-path="url(#clip0)">
<path d="M13.9112 0.148438H0.146484V13.9132H13.9112V0.148438Z" fill="#F7DF1E"/>
<path d="M9.39167 10.9019C9.66893 11.3547 10.0297 11.6874 10.6676 11.6874C11.2036 11.6874 11.546 11.4195 11.546 11.0494C11.546 10.6059 11.1942 10.4488 10.6043 10.1908L10.2809 10.052C9.34754 9.65438 8.72747 9.15622 8.72747 8.10311C8.72747 7.13302 9.46661 6.39453 10.6218 6.39453C11.4441 6.39453 12.0354 6.68075 12.4614 7.43017L11.4542 8.07689C11.2324 7.67924 10.9932 7.52259 10.6218 7.52259C10.2429 7.52259 10.0028 7.76292 10.0028 8.07689C10.0028 8.46493 10.2431 8.62202 10.7981 8.86236L11.1214 9.00088C12.2204 9.47216 12.8409 9.95261 12.8409 11.0328C12.8409 12.1974 11.9261 12.8353 10.6976 12.8353C9.49633 12.8353 8.72026 12.2629 8.34052 11.5126L9.39167 10.9019ZM4.82243 11.014C5.02562 11.3745 5.21046 11.6793 5.65487 11.6793C6.07983 11.6793 6.34791 11.5131 6.34791 10.8665V6.46838H7.64136V10.884C7.64136 12.2234 6.85611 12.8329 5.70993 12.8329C4.67429 12.8329 4.07454 12.297 3.76953 11.6515L4.82243 11.014Z" fill="#383838"/>
</g>
<defs>
<clipPath id="clip0">
<rect x="0.146484" y="0.148438" width="13.7648" height="13.7648" rx="1.14706" fill="white"/>
</clipPath>
</defs>
</svg>
