<svg width="60" height="60" viewBox="0 0 60 60" fill="none" xmlns="http://www.w3.org/2000/svg">
<path d="M8.82 36H16.64V34.6H10.38V22.8H8.82V36ZM22.3172 26.04C20.7572 26.04 19.2772 26.7 18.3572 28.18L19.3772 29.02C20.1372 28.04 20.9972 27.46 22.2172 27.46C23.6572 27.46 24.5772 28.28 24.5772 29.92V30.76H21.4972C19.3772 30.76 17.9972 31.84 17.9972 33.48C17.9972 35.18 19.4372 36.22 21.3972 36.22C22.8372 36.22 23.9772 35.68 24.6772 34.74V36H26.1172V30C26.1172 27.38 24.5372 26.04 22.3172 26.04ZM21.5972 34.94C20.5172 34.94 19.5772 34.44 19.5772 33.4C19.5772 32.48 20.3172 32.02 21.6772 32.02H24.5772V32.26C24.5772 33.78 23.1972 34.94 21.5972 34.94ZM33.3036 36.22C35.5436 36.22 37.3236 34.62 37.3236 32.12V26.26H35.7836V32.22C35.7836 33.82 34.6636 34.8 33.3036 34.8C31.9036 34.8 30.7836 33.82 30.7836 32.22V26.26H29.2636V32.12C29.2636 34.62 31.0236 36.22 33.3036 36.22ZM49.295 30.44C49.295 27.84 47.355 26.04 44.855 26.04C42.055 26.04 39.875 28.3 39.875 31.14C39.875 34 42.095 36.22 45.035 36.22C46.635 36.22 47.955 35.56 48.935 34.52L48.035 33.48C47.235 34.28 46.275 34.8 45.055 34.8C43.135 34.8 41.675 33.54 41.475 31.6H49.175C49.215 31.4 49.295 30.96 49.295 30.44ZM44.815 27.44C46.355 27.44 47.695 28.44 47.715 30.24H41.535C41.875 28.56 43.175 27.44 44.815 27.44Z" fill="black"/>
</svg>
