<svg width="300" height="300" viewBox="0 0 300 300" fill="none" xmlns="http://www.w3.org/2000/svg">
<rect width="300" height="300" fill="white"/>
<g clip-path="url(#clip0_1_2)">
<g style="mix-blend-mode:multiply">
<path d="M250.698 89.2925C231 141.552 200.901 165.156 178.316 172.67C177.805 176.246 176.034 179.522 173.322 181.908C170.609 184.294 167.133 185.632 163.521 185.682C161.517 185.648 159.539 185.221 157.7 184.423C155.861 183.625 154.197 182.473 152.803 181.032C151.41 179.591 150.314 177.89 149.578 176.025C148.842 174.161 148.48 172.169 148.514 170.165C148.514 167.724 149.045 165.41 150 163.373L128.54 141.085C125.896 143.094 122.646 144.141 119.327 144.052C116.008 143.963 112.818 142.744 110.285 140.597L56.6674 181.988C67.4505 196.125 81.2689 207.736 96.6156 214.847L97.1462 215.101H97.8255C98.0948 215.097 98.3638 215.083 98.6321 215.059C99.184 215.038 99.9481 214.953 100.946 214.847C103.721 214.455 106.46 213.844 109.139 213.021C116.473 210.75 123.416 207.371 129.729 203.002C127.262 210.524 122.449 217.056 115.995 221.639L122.151 222.913C148.96 228.474 180.46 219.962 204.849 199.606C227.476 180.715 243.863 153.311 244.861 115.868C252.587 102.241 258.382 84.8774 261.142 76.5991L261.29 76.1958L254.498 79.3797C253.326 82.7295 252.052 86.0424 250.677 89.3137L250.698 89.2925Z" fill="#2196F3"/>
</g>
<g style="mix-blend-mode:multiply">
<path d="M53.2288 177.276C46.6535 167.798 41.5043 157.407 37.9458 146.434L37.5 145.075L38.1368 143.844C62.908 97.5071 117.884 79.7406 160.401 95.9363L162.014 96.5731L162.248 98.4198C163.025 105.22 165.309 111.761 168.934 117.566C170.946 120.405 173.314 122.973 175.981 125.208C169.613 111.347 170.993 100.564 170.993 100.564L174.941 103.111C192.708 113.809 216.927 116.738 237.559 104.045C219.453 141.828 196.019 159.976 178.083 166.514C177.354 163.18 175.519 160.19 172.875 158.032C170.231 155.873 166.934 154.673 163.521 154.627C159.799 154.629 156.216 156.048 153.502 158.597L132.403 136.733C133.892 134.26 134.677 131.427 134.675 128.54C134.711 126.536 134.352 124.544 133.619 122.678C132.886 120.813 131.792 119.11 130.4 117.667C129.009 116.224 127.346 115.069 125.509 114.269C123.671 113.469 121.693 113.038 119.689 113.002C117.684 113.038 115.707 113.469 113.869 114.269C112.031 115.069 110.369 116.224 108.977 117.667C107.585 119.11 106.492 120.813 105.758 122.678C105.025 124.544 104.666 126.536 104.703 128.54C104.703 131.278 105.382 133.847 106.592 136.075L53.2075 177.276H53.2288Z" fill="#2196F3"/>
</g>
<g style="mix-blend-mode:multiply">
<path d="M128.986 128.54C128.986 133.847 124.804 138.134 119.689 138.134C117.187 138.09 114.805 137.054 113.066 135.256C111.327 133.457 110.373 131.042 110.413 128.54C110.413 123.233 114.573 118.925 119.689 118.925C120.929 118.947 122.153 119.213 123.291 119.708C124.428 120.203 125.457 120.918 126.319 121.811C127.18 122.704 127.857 123.758 128.311 124.912C128.765 126.067 128.987 127.3 128.965 128.54H128.986ZM172.5 170.165C172.575 172.626 171.672 175.017 169.99 176.814C168.307 178.612 165.982 179.671 163.521 179.759C161.057 179.676 158.726 178.62 157.039 176.822C155.352 175.023 154.447 172.63 154.521 170.165C154.441 167.697 155.344 165.298 157.031 163.495C158.719 161.692 161.053 160.633 163.521 160.55C168.212 160.55 172.521 164.583 172.521 170.165H172.5Z" fill="#2196F3"/>
</g>
</g>
<defs>
<clipPath id="clip0_1_2">
<rect width="225" height="150.708" fill="white" transform="translate(37.5 74.6462)"/>
</clipPath>
</defs>
</svg>
