<svg width="76" height="18" fill="none" xmlns="http://www.w3.org/2000/svg"><g clip-path="url(#clip0)" fill="#43436B"><path d="M56.486 5.204c-.94 0-1.843.387-2.498 1.067V2.673a.21.21 0 00-.21-.208h-1.272a.21.21 0 00-.21.208V12.4a.21.21 0 00.21.208h1.273a.21.21 0 00.209-.208v-.67a3.46 3.46 0 002.498 1.067c1.986 0 3.591-1.7 3.591-3.797 0-2.096-1.605-3.796-3.59-3.796zm-.294 6.073c-1.207 0-2.185-1.002-2.195-2.248v-.057c.02-1.247.988-2.248 2.195-2.248 1.216 0 2.194 1.02 2.194 2.276 0 1.257-.988 2.277-2.194 2.277zM64.76 5.203c-2.147 0-3.885 1.7-3.885 3.797 0 2.097 1.739 3.796 3.885 3.796 2.147 0 3.886-1.7 3.886-3.796 0-2.097-1.739-3.797-3.886-3.797zm-.009 6.073c-1.216 0-2.195-1.02-2.195-2.276 0-1.256.989-2.276 2.195-2.276S66.945 7.744 66.945 9c0 1.256-.987 2.276-2.194 2.276zM41.001 5.392h-1.273a.21.21 0 00-.209.208v.67a3.46 3.46 0 00-2.498-1.067c-1.986 0-3.591 1.7-3.591 3.797 0 2.097 1.605 3.796 3.59 3.796.941 0 1.844-.387 2.5-1.067v.67a.21.21 0 00.208.209h1.273a.21.21 0 00.21-.208V5.6a.21.21 0 00-.21-.208zm-3.686 5.884c-1.216 0-2.194-1.02-2.194-2.276 0-1.256.988-2.276 2.194-2.276 1.207 0 2.185 1 2.195 2.247v.057c-.01 1.247-.988 2.248-2.195 2.248zM47.356 5.203c-.94 0-1.843.387-2.498 1.067V5.6a.21.21 0 00-.209-.208h-1.273a.21.21 0 00-.209.208v9.728a.21.21 0 00.209.207h1.273a.21.21 0 00.209-.207v-3.599a3.46 3.46 0 002.498 1.068c1.986 0 3.591-1.7 3.591-3.797 0-2.097-1.605-3.797-3.59-3.797zm-.294 6.073c-1.206 0-2.185-1.001-2.194-2.248v-.057c.018-1.246.987-2.247 2.194-2.247 1.216 0 2.195 1.02 2.195 2.276 0 1.256-.979 2.276-2.195 2.276zM29.62 5.203c-.95.01-1.814.557-2.223 1.417a2.686 2.686 0 00-2.394-1.417c-.779 0-1.51.378-1.966 1.001V5.6a.21.21 0 00-.21-.208h-1.272a.21.21 0 00-.21.208v6.8a.21.21 0 00.21.208h1.273a.21.21 0 00.209-.208V8.33c.047-.907.684-1.635 1.463-1.635.807 0 1.482.671 1.482 1.55V12.4a.21.21 0 00.209.208h1.282a.21.21 0 00.21-.208l-.01-4.231c.114-.831.712-1.474 1.444-1.474.807 0 1.482.671 1.482 1.55V12.4a.21.21 0 00.209.208h1.282a.21.21 0 00.21-.208l-.01-4.675c0-1.398-1.197-2.522-2.67-2.522zM75.496 12.315l-2.204-3.334 2.185-3.305a.195.195 0 00-.057-.265.192.192 0 00-.105-.028h-1.472a.32.32 0 00-.276.15l-1.282 2.145-1.283-2.135a.32.32 0 00-.275-.15h-1.473a.19.19 0 00-.19.188c0 .038.01.076.029.104l2.185 3.306-2.204 3.334a.195.195 0 00.057.264.192.192 0 00.104.028h1.473a.32.32 0 00.275-.15l1.311-2.173 1.311 2.172a.32.32 0 00.276.151h1.453a.19.19 0 00.19-.189.25.25 0 00-.028-.113zM8.92.605C4.256.605.475 4.365.475 9.002c0 4.637 3.78 8.396 8.445 8.396 4.665 0 8.446-3.76 8.446-8.396 0-4.638-3.781-8.397-8.446-8.397zm4.01 10.456c-2.889 2.87-8.047 1.954-8.047 1.954s-.931-5.118 1.966-7.999c1.606-1.596 4.266-1.53 5.947.132 1.682 1.662 1.739 4.316.133 5.912z"/><path d="M9.89 5.527l-.827 1.69-1.7.823 1.7.821.826 1.69.827-1.69 1.7-.821-1.7-.822-.827-1.69z"/></g><defs><clipPath id="clip0"><path fill="#fff" transform="translate(0 .5)" d="M0 0h76v17H0z"/></clipPath></defs></svg>