<svg width="60" height="60" viewBox="0 0 60 60" fill="none" xmlns="http://www.w3.org/2000/svg">
<path opacity="0.1" d="M30.0693 20.451L10.2166 35.8539C9.87635 36.1179 9.81453 36.6077 10.0785 36.948C10.1169 36.9974 10.161 37.042 10.21 37.0809L30.0627 52.8261C30.3484 53.0527 30.7531 53.051 31.0369 52.822L50.5473 37.0767C50.8824 36.8063 50.9348 36.3154 50.6644 35.9802C50.6279 35.935 50.5864 35.894 50.5408 35.8579L31.0304 20.455C30.7491 20.2329 30.3525 20.2312 30.0693 20.451Z" fill="url(#paint0_linear)"/>
<path opacity="0.3" d="M30.1639 16.0092L10.2123 31.4889C9.87208 31.7529 9.81026 32.2427 10.0742 32.5829C10.1126 32.6324 10.1568 32.677 10.2058 32.7159L30.1573 48.5395C30.443 48.7661 30.8477 48.7644 31.1315 48.5354L50.7391 32.7117C51.0742 32.4413 51.1266 31.9504 50.8562 31.6152C50.8197 31.57 50.7782 31.529 50.7326 31.4929L31.125 16.0133C30.8437 15.7912 30.4471 15.7895 30.1639 16.0092Z" fill="url(#paint1_linear)"/>
<path d="M29.8264 9.16368L8.48148 25.7244C8.14124 25.9884 8.07942 26.4782 8.3434 26.8184C8.38175 26.8678 8.42592 26.9125 8.47494 26.9514L29.8198 43.88C30.1055 44.1067 30.5102 44.1049 30.794 43.8759L51.7709 26.9472C52.106 26.6767 52.1584 26.1858 51.888 25.8507C51.8515 25.8054 51.81 25.7644 51.7644 25.7284L30.7875 9.16774C30.5062 8.94561 30.1096 8.94394 29.8264 9.16368Z" fill="#002C73"/>
<path d="M29.2872 34.6828L31.4847 32.8849C31.6513 32.7485 31.6759 32.5029 31.5395 32.3363C31.5201 32.3125 31.4979 32.2911 31.4734 32.2726L24.404 26.9092C24.2605 26.8003 24.061 26.804 23.9215 26.9181L21.7241 28.716C21.5574 28.8523 21.5328 29.098 21.6692 29.2646C21.6886 29.2884 21.7108 29.3098 21.7353 29.3283L28.8047 34.6917C28.9483 34.8006 29.1478 34.7969 29.2872 34.6828Z" fill="white"/>
<path d="M38.9298 27.4605L41.1251 25.6644C41.2917 25.528 41.3163 25.2824 41.18 25.1157C41.1594 25.0906 41.1357 25.0681 41.1096 25.0488L31.7097 18.1188C31.5663 18.0131 31.3694 18.0181 31.2315 18.1309L29.0362 19.9271C28.8695 20.0634 28.845 20.309 28.9813 20.4757C29.0019 20.5008 29.0256 20.5233 29.0517 20.5426L38.4516 27.4726C38.595 27.5784 38.7919 27.5734 38.9298 27.4605Z" fill="white"/>
<path d="M33.8391 30.982L36.0309 29.1887C36.1975 29.0524 36.2221 28.8067 36.0857 28.6401C36.0634 28.6128 36.0374 28.5886 36.0086 28.5683L31.8679 25.359C31.7247 25.2582 31.5319 25.2651 31.3964 25.376L29.2046 27.1692C29.038 27.3056 29.0134 27.5512 29.1498 27.7178C29.1721 27.7452 29.1981 27.7693 29.2269 27.7897L33.3677 30.9989C33.5108 31.0998 33.7036 31.0929 33.8391 30.982Z" fill="white"/>
<defs>
<linearGradient id="paint0_linear" x1="44.3929" y1="40.3192" x2="20.372" y2="29.99" gradientUnits="userSpaceOnUse">
<stop stop-color="#002C73"/>
<stop offset="1" stop-color="#002C73"/>
</linearGradient>
<linearGradient id="paint1_linear" x1="44.5524" y1="35.9725" x2="20.4194" y2="25.5936" gradientUnits="userSpaceOnUse">
<stop stop-color="#002C73"/>
<stop offset="1" stop-color="#002C73"/>
</linearGradient>
</defs>
</svg>
