<svg width="60" height="60" viewBox="0 0 60 60" fill="none" xmlns="http://www.w3.org/2000/svg">
<path d="M9.168 26.72V30.28L5.96 26.632H5.664V32H6.512V28.424L9.728 32.088H10.016V26.72H9.168ZM13.8155 32.088C14.9035 32.088 15.8235 31.52 16.2795 30.696V29.208H13.8075V29.96H15.4315V30.528C15.1115 31.008 14.5675 31.328 13.8555 31.328C12.7035 31.328 11.9115 30.488 11.9115 29.352C11.9115 28.24 12.6795 27.408 13.8075 27.408C14.4955 27.408 15.0155 27.72 15.3835 28.24L15.9995 27.736C15.5035 27.04 14.7435 26.632 13.8155 26.632C12.2555 26.632 11.0315 27.816 11.0315 29.36C11.0315 30.904 12.2475 32.088 13.8155 32.088ZM21.172 32L19.412 29.304L21.052 26.72H20.084L18.932 28.584L17.764 26.72H16.788L18.46 29.304L16.676 32H17.652L18.924 30.032L20.204 32H21.172ZM21.4311 29.816H23.3991V29.104H21.4311V29.816ZM26.9091 32.088C27.9011 32.088 28.7331 31.608 29.1731 30.872L28.5331 30.4C28.1651 30.968 27.6211 31.312 26.9171 31.312C25.8291 31.312 25.0131 30.488 25.0131 29.36C25.0131 28.232 25.8291 27.408 26.9171 27.408C27.6211 27.408 28.1651 27.752 28.5331 28.32L29.1731 27.848C28.7251 27.112 27.9011 26.632 26.9091 26.632C25.3651 26.632 24.1331 27.816 24.1331 29.36C24.1331 30.912 25.3651 32.088 26.9091 32.088ZM30.1874 32H31.0354V29.584H33.6914V32H34.5394V26.72H33.6914V28.824H31.0354V26.72H30.1874V32ZM39.4189 32H40.3309L38.0029 26.632H37.7149L35.3869 32H36.2909L36.6669 31.12H39.0429L39.4189 32ZM38.7389 30.392H36.9709L37.8589 28.208L38.7389 30.392ZM45.4598 32L43.8758 29.824C44.5078 29.584 44.8918 29.032 44.8918 28.336C44.8918 27.376 44.1718 26.72 43.0998 26.72H41.1718V32H42.0198V29.96H42.9878L44.4918 32H45.4598ZM42.0198 27.472H43.0838C43.6838 27.472 44.0198 27.832 44.0198 28.344C44.0198 28.848 43.6838 29.208 43.0838 29.208H42.0198V27.472ZM47.2556 32H48.1036V27.48H49.8876V26.72H45.4796V27.48H47.2556V32ZM52.2956 32.088C53.3036 32.088 54.0636 31.496 54.0636 30.56C54.0636 29.832 53.5996 29.424 52.7996 29.056L52.2076 28.784C51.7756 28.576 51.4716 28.432 51.4716 28.032C51.4716 27.6 51.8476 27.392 52.2716 27.392C52.7276 27.392 53.1116 27.624 53.3836 28.032L53.9756 27.576C53.6556 27.032 53.0476 26.632 52.2716 26.632C51.3596 26.632 50.6076 27.192 50.6076 28.064C50.6076 28.84 51.1996 29.232 51.8396 29.528L52.4236 29.8C52.8876 30.016 53.1996 30.176 53.1996 30.592C53.1996 31.048 52.8316 31.328 52.2876 31.328C51.6316 31.328 51.2076 30.928 50.9036 30.488L50.3036 30.944C50.7036 31.64 51.4156 32.088 52.2956 32.088Z" fill="black"/>
</svg>
