<svg width="64" height="64" viewBox="0 0 64 64" fill="none" xmlns="http://www.w3.org/2000/svg">
<path d="M50.5879 42.6303L42.4779 34.5203L46.4554 30.5429C46.8 30.1983 46.9416 29.6999 46.8296 29.2255C46.7176 28.7511 46.3681 28.3686 45.9057 28.2145L22.0414 20.2597C21.5362 20.0913 20.979 20.2228 20.6024 20.5995C20.2257 20.9761 20.0942 21.5332 20.2626 22.0385L28.2174 45.9029C28.3717 46.3653 28.7542 46.7149 29.2284 46.8268C29.7027 46.939 30.2012 46.7973 30.5459 46.4525L34.5233 42.4752L42.6333 50.5851C42.9079 50.8596 43.2678 50.997 43.6276 50.997C43.9874 50.997 44.3474 50.8597 44.6219 50.5851L50.588 44.6189C51.1371 44.0698 51.1371 43.1794 50.5879 42.6303ZM43.6275 47.602L35.5175 39.4921C34.9684 38.943 34.0779 38.943 33.5288 39.4921L30.166 42.855L23.8201 23.8173L42.8578 30.1632L39.495 33.526C38.9462 34.0746 38.9458 34.9656 39.495 35.5147L47.6049 43.6246L43.6275 47.602Z" fill="#43436B"/>
<path d="M21.2822 14.2498C22.0588 14.2498 22.6884 13.6202 22.6884 12.8435V4.40622C22.6884 3.62961 22.0588 3 21.2822 3C20.5056 3 19.876 3.62961 19.876 4.40622V12.8435C19.876 13.6202 20.5056 14.2498 21.2822 14.2498Z" fill="#8381EE"/>
<path d="M10.3439 8.35719C9.79484 7.80802 8.90442 7.80802 8.35524 8.35719C7.80607 8.90637 7.80607 9.7967 8.35524 10.3459L14.3214 16.312C14.8704 16.8612 15.761 16.8612 16.31 16.312C16.8592 15.7628 16.8592 14.8725 16.31 14.3233L10.3439 8.35719Z" fill="#8381EE"/>
<path d="M14.3214 26.2478L8.35524 32.2139C7.80607 32.7631 7.80607 33.6534 8.35524 34.2026C8.90432 34.7518 9.79484 34.7518 10.3439 34.2026L16.31 28.2365C16.8592 27.6873 16.8592 26.797 16.31 26.2478C15.7609 25.6986 14.8704 25.6986 14.3214 26.2478Z" fill="#8381EE"/>
<path d="M28.2424 16.312L34.2085 10.3459C34.7577 9.7967 34.7577 8.90637 34.2085 8.35719C33.6594 7.80802 32.769 7.80802 32.2198 8.35719L26.2537 14.3233C25.7045 14.8725 25.7045 15.7628 26.2537 16.312C26.8028 16.8612 27.6933 16.8612 28.2424 16.312Z" fill="#8381EE"/>
<path d="M14.2498 21.2812C14.2498 20.5046 13.6202 19.875 12.8435 19.875H4.40622C3.62961 19.875 3 20.5046 3 21.2812C3 22.0578 3.62961 22.6874 4.40622 22.6874H12.8435C13.6202 22.6874 14.2498 22.0578 14.2498 21.2812Z" fill="#8381EE"/>
</svg>
