<svg width="22" height="23" viewBox="0 0 22 23" fill="none" xmlns="http://www.w3.org/2000/svg">
<path d="M12.3689 15.468C13.2018 15.1482 13.8966 14.5469 14.3325 13.7684C14.7684 12.9899 14.9181 12.0834 14.7555 11.2061C14.5929 10.3289 14.1283 9.5362 13.4423 8.96569C12.7563 8.39517 11.8922 8.08281 11 8.08281C10.1078 8.08281 9.24371 8.39517 8.55773 8.96569C7.87175 9.5362 7.40714 10.3289 7.24453 11.2061C7.08192 12.0834 7.23157 12.9899 7.66751 13.7684C8.10345 14.5469 8.79816 15.1482 9.63111 15.468L7.05834 22.1718C4.65932 21.251 2.65837 19.5194 1.40271 17.2774C0.147057 15.0354 -0.284059 12.4246 0.184178 9.89794C0.652416 7.37129 1.99045 5.0883 3.96611 3.44514C5.94176 1.80198 8.43034 0.902344 11 0.902344C13.5697 0.902344 16.0582 1.80198 18.0339 3.44514C20.0095 5.0883 21.3476 7.37129 21.8158 9.89794C22.2841 12.4246 21.8529 15.0354 20.5973 17.2774C19.3416 19.5194 17.3407 21.251 14.9417 22.1718L12.3689 15.468Z" fill="currentColor"/>
</svg>
