<svg width="22" height="22" fill="none" xmlns="http://www.w3.org/2000/svg"><g clip-path="url(#clip0)" fill="currentColor"><path d="M5.936 10.808c.804-.371 1.573-.556 2.307-.556h9.741V8.378c0-.718-.257-1.335-.773-1.85a2.524 2.524 0 00-1.85-.773H8.992V5.38c0-.718-.258-1.334-.773-1.85a2.524 2.524 0 00-1.85-.772H2.623c-.718 0-1.335.257-1.85.773A2.523 2.523 0 000 5.38v11.24c0 .03.002.08.006.146.004.067.006.115.006.146l.058-.07 3.946-4.636c.476-.562 1.116-1.029 1.92-1.4z"/><path d="M21.69 11.903a1.584 1.584 0 00-.709-.153H8.242c-.515 0-1.075.139-1.68.416-.605.277-1.075.614-1.41 1.013l-3.934 4.636c-.242.273-.364.531-.364.773a.52.52 0 00.31.504c.208.101.444.152.71.152h12.738c.515 0 1.075-.139 1.68-.416.605-.277 1.075-.614 1.41-1.013l3.935-4.636c.242-.273.363-.53.363-.773a.52.52 0 00-.31-.503z"/></g><defs><clipPath id="clip0"><path fill="#fff" d="M0 0h22v22H0z"/></clipPath></defs></svg>