<svg width="22" height="22" viewBox="0 0 22 22" fill="none" xmlns="http://www.w3.org/2000/svg">
<g clip-path="url(#clip0)">
<g clip-path="url(#clip1)">
<path d="M12.3689 14.468C13.2018 14.1482 13.8966 13.5469 14.3325 12.7684C14.7684 11.9899 14.9181 11.0834 14.7555 10.2061C14.5929 9.32887 14.1283 8.5362 13.4423 7.96569C12.7563 7.39517 11.8922 7.08281 11 7.08281C10.1078 7.08281 9.24371 7.39517 8.55773 7.96569C7.87175 8.5362 7.40714 9.32887 7.24453 10.2061C7.08192 11.0834 7.23157 11.9899 7.66751 12.7684C8.10345 13.5469 8.79816 14.1482 9.63111 14.468L7.05834 21.1718C4.65932 20.251 2.65837 18.5194 1.40271 16.2774C0.147057 14.0354 -0.284059 11.4246 0.184178 8.89794C0.652416 6.37129 1.99045 4.0883 3.96611 2.44514C5.94176 0.801978 8.43034 -0.0976562 11 -0.0976562C13.5697 -0.0976562 16.0582 0.801978 18.0339 2.44514C20.0095 4.0883 21.3476 6.37129 21.8158 8.89794C22.2841 11.4246 21.8529 14.0354 20.5973 16.2774C19.3416 18.5194 17.3407 20.251 14.9417 21.1718L12.3689 14.468Z" fill="#3FA652"/>
</g>
</g>
<defs>
<clipPath id="clip0">
<rect width="22" height="22" fill="white"/>
</clipPath>
<clipPath id="clip1">
<rect width="28" height="28" fill="white" transform="translate(-3 -3)"/>
</clipPath>
</defs>
</svg>
