<svg width="60" height="60" fill="none" xmlns="http://www.w3.org/2000/svg"><path d="M10.86 24.848v1.403h.064c.126-.196.29-.395.494-.597.202-.203.451-.384.746-.545a4.61 4.61 0 012.248-.555c.714 0 1.373.136 1.975.409.602.272 1.12.646 1.555 1.12.434.475.77 1.034 1.009 1.676a5.92 5.92 0 01.357 2.074c0 .74-.116 1.434-.347 2.084-.23.649-.56 1.214-.987 1.696a4.744 4.744 0 01-1.555 1.152c-.61.286-1.3.43-2.07.43-.715 0-1.37-.147-1.965-.44-.596-.294-1.054-.691-1.376-1.195h-.042v6.368H8.444v-15.08h2.417zm5.884 4.985c0-.392-.06-.78-.178-1.163a3.255 3.255 0 00-.536-1.037 2.698 2.698 0 00-.904-.743c-.364-.189-.791-.283-1.281-.283-.463 0-.876.098-1.24.293a3.18 3.18 0 00-1.524 1.802 3.517 3.517 0 000 2.335c.133.384.33.73.589 1.037.259.307.57.555.935.743.364.189.777.283 1.24.283.49 0 .917-.098 1.281-.293.364-.196.665-.447.904-.754.238-.307.416-.656.536-1.048a4.01 4.01 0 00.178-1.172zM41.323 24.367V35.51c0 .6-.05 1.17-.148 1.707a3.588 3.588 0 01-.556 1.403 2.913 2.913 0 01-1.114.953c-.47.238-1.082.356-1.839.356-.21 0-.42-.014-.63-.042a6.332 6.332 0 01-.505-.084l.21-2.136a3.158 3.158 0 00.693.084c.295 0 .533-.056.716-.168.181-.112.322-.266.42-.46.098-.196.16-.423.189-.682.028-.258.042-.533.042-.827V24.367h2.522zM49.917 27.528a2.911 2.911 0 00-.925-.764 2.61 2.61 0 00-1.282-.325 2.46 2.46 0 00-1.113.252c-.337.167-.505.447-.505.837 0 .391.186.668.557.828.371.16.914.324 1.629.492.378.084.76.196 1.145.335.385.14.735.325 1.05.555.316.23.571.517.767.859.196.342.295.758.295 1.246 0 .615-.116 1.135-.347 1.56-.231.427-.54.772-.925 1.038a3.901 3.901 0 01-1.345.576 6.998 6.998 0 01-1.586.178 6.318 6.318 0 01-2.29-.43c-.743-.285-1.36-.694-1.85-1.225l1.66-1.55c.28.363.645.664 1.093.9.449.238.946.357 1.492.357.182 0 .368-.02.557-.063.189-.042.364-.108.525-.199.161-.09.29-.212.389-.366.098-.154.147-.342.147-.566 0-.42-.193-.72-.578-.9-.385-.182-.963-.364-1.733-.545a8.338 8.338 0 01-1.104-.325 3.602 3.602 0 01-.956-.524 2.418 2.418 0 01-.672-.806c-.168-.321-.252-.72-.252-1.194 0-.559.115-1.04.346-1.445.231-.406.536-.736.914-.996a4.11 4.11 0 011.282-.575 5.735 5.735 0 011.471-.189c.728 0 1.44.126 2.133.377.693.252 1.242.636 1.65 1.152l-1.64 1.445zM35.026 32.775l1.502-.452.295.904-1.495.509.928 1.312-.783.566-.977-1.29-.952 1.256-.76-.577.928-1.267-1.507-.542.296-.906 1.513.487v-1.561h1.013v1.56zM29.84 28.041a4.135 4.135 0 00-1.083-1.466 4.816 4.816 0 00-1.628-.91 6.336 6.336 0 00-2.028-.315c-.266 0-.564.014-.893.042-.33.028-.613.077-.85.147l.146-3.205h6.073v-2.262h-8.468l-.253 8.105c.224-.111.48-.216.767-.314.287-.097.581-.185.883-.261.3-.077.61-.136.924-.178.316-.042.613-.063.893-.063a5.3 5.3 0 011.198.136c.392.09.746.251 1.061.482.316.23.57.534.767.91.196.378.294.852.294 1.425 0 .447-.073.849-.22 1.204a2.529 2.529 0 01-.599.89c-.252.238-.546.42-.883.545a3.026 3.026 0 01-1.071.189c-.672 0-1.254-.179-1.744-.535a2.921 2.921 0 01-1.051-1.413l-.028.01-1.825 1.704c.37.6.845 1.102 1.433 1.5.854.58 1.905.87 3.152.87.742 0 1.443-.119 2.1-.356a5.084 5.084 0 001.724-1.027c.49-.446.879-.994 1.166-1.644.287-.649.43-1.385.43-2.21 0-.753-.129-1.42-.388-2z" fill="#FA326E"/></svg>