<svg width="60" height="60" viewBox="0 0 60 60" fill="none" xmlns="http://www.w3.org/2000/svg">
<path fill-rule="evenodd" clip-rule="evenodd" d="M45.1071 47.546H14.8913C13.2956 47.546 12 46.2086 12 44.5599V14.1932C12 12.5437 13.2956 11.2071 14.8921 11.2071H45.1079C46.7052 11.2071 48 12.5437 48 14.1932V44.5599C48 46.2086 46.7044 47.546 45.1079 47.546" fill="#3F4F75"/>
<path fill-rule="evenodd" clip-rule="evenodd" d="M20.9921 25.3919C21.0405 25.4553 21.081 25.5243 21.113 25.5973C21.0143 25.5091 20.8976 25.4436 20.7709 25.4053C20.7448 25.3485 20.6959 25.3003 20.6374 25.2892L20.62 25.2861C20.6039 25.2639 20.5868 25.2426 20.5687 25.2221C20.7196 25.2632 20.8665 25.32 20.9921 25.3919ZM19.9114 26.8668C20.0039 26.8613 20.0955 26.8431 20.1832 26.8107C20.1998 26.8305 20.2179 26.851 20.2369 26.87C20.1248 26.9011 20.0075 26.9084 19.8925 26.8913L19.9114 26.8676V26.8668ZM20.2653 25.7656C20.3013 25.7825 20.3393 25.795 20.3783 25.8027C20.3819 25.8307 20.3838 25.859 20.3838 25.8872C20.3198 25.8027 20.2037 25.7972 20.1176 25.8462L20.1018 25.783L20.2314 25.7435C20.2416 25.7514 20.2527 25.7593 20.2653 25.7656ZM19.6989 25.8785C19.7079 25.9453 19.7246 26.0108 19.7487 26.0737C19.7092 26.0302 19.691 25.9654 19.6989 25.8785ZM20.8144 26.392C20.7965 26.357 20.7786 26.3219 20.7606 26.287C20.7778 26.2561 20.7923 26.2239 20.8041 26.1906C20.8278 26.2601 20.8294 26.3272 20.8144 26.392ZM21.3816 25.1652C21.3524 25.1452 21.3229 25.1257 21.2931 25.1067C21.1949 24.9765 21.0778 24.8617 20.9455 24.7663C20.3783 24.3578 19.5109 24.3183 19.0985 24.9653C19.078 24.9969 19.059 25.0301 19.0417 25.0649C18.7718 25.3004 18.5902 25.6208 18.5266 25.9733C18.486 25.9861 18.4505 26.0115 18.4255 26.0459C18.4004 26.0804 18.3871 26.1219 18.3876 26.1645C18.3757 26.5753 18.5866 26.8968 18.89 27.1117C19.206 27.3961 19.6744 27.5106 20.1326 27.5225C20.8104 27.5407 21.2781 27.1694 21.4882 26.6772L21.4961 26.6669C21.8571 26.193 21.899 25.5349 21.3816 25.1652ZM20.9921 19.4118C21.0405 19.4752 21.081 19.5441 21.113 19.6172C21.0144 19.5289 20.8976 19.4634 20.7709 19.4252C20.7448 19.3676 20.6959 19.3202 20.6374 19.3091L20.62 19.3052C20.6039 19.2833 20.5868 19.2622 20.5687 19.242C20.7196 19.2822 20.8665 19.3391 20.9921 19.4118ZM19.9114 20.8867C20.0039 20.8812 20.0955 20.863 20.1832 20.8298C20.1998 20.8503 20.2179 20.8701 20.2369 20.8891C20.125 20.9212 20.0075 20.9288 19.8925 20.9112L19.9114 20.8867ZM20.2653 19.7855C20.3014 19.8019 20.3394 19.8141 20.3783 19.8218C20.382 19.8501 20.3838 19.8786 20.3838 19.9071C20.3198 19.8226 20.2037 19.8163 20.1176 19.866L20.1018 19.8028L20.2314 19.7633C20.2416 19.7712 20.2527 19.7791 20.2653 19.7855ZM19.6989 19.8968C19.7029 19.9229 19.7068 19.949 19.7139 19.9751C19.7234 20.0146 19.7353 20.0533 19.7487 20.0928C19.7092 20.0493 19.691 19.9845 19.6989 19.8968ZM20.8144 20.4103L20.7606 20.3061C20.778 20.2745 20.7922 20.2429 20.8041 20.2097C20.8278 20.2792 20.8294 20.3463 20.8144 20.4103ZM21.3816 19.1843C21.3525 19.1639 21.323 19.1441 21.2931 19.125C21.195 18.995 21.0778 18.8804 20.9455 18.7853C20.3783 18.3761 19.5109 18.3374 19.0985 18.9844C19.078 19.016 19.059 19.0492 19.0417 19.0832C18.7718 19.3187 18.5902 19.6391 18.5266 19.9916C18.486 20.0044 18.4505 20.0298 18.4255 20.0642C18.4004 20.0987 18.3871 20.1402 18.3876 20.1828C18.3757 20.5936 18.5866 20.9151 18.89 21.1308C19.206 21.4144 19.6744 21.5289 20.1326 21.5416C20.8104 21.5597 21.2781 21.1885 21.4882 20.6963L21.4961 20.686C21.8571 20.212 21.899 19.554 21.3816 19.1843ZM34.1349 25.3919C34.1833 25.4553 34.2239 25.5243 34.2558 25.5973C34.1572 25.5091 34.0404 25.4436 33.9137 25.4053C33.8877 25.3485 33.8387 25.3003 33.7802 25.2892L33.7629 25.2861C33.7468 25.2639 33.7296 25.2426 33.7115 25.2221C33.8632 25.2632 34.0093 25.32 34.1349 25.3919ZM33.0543 26.8668C33.1467 26.8613 33.2383 26.8431 33.326 26.8107C33.3434 26.8305 33.3608 26.851 33.3797 26.87C33.2677 26.9011 33.1503 26.9084 33.0353 26.8913L33.0543 26.8676V26.8668ZM33.4082 25.7656C33.4444 25.7826 33.4826 25.795 33.5219 25.8027C33.5253 25.8308 33.5269 25.859 33.5267 25.8872C33.4635 25.8027 33.3465 25.7972 33.2604 25.8462L33.2446 25.783L33.3742 25.7435C33.3845 25.7514 33.3955 25.7593 33.4082 25.7656ZM32.8418 25.8785C32.8507 25.9453 32.8674 26.0108 32.8915 26.0737C32.852 26.0302 32.8339 25.9654 32.8418 25.8785ZM33.9572 26.392C33.9394 26.357 33.9215 26.3219 33.9035 26.287C33.9209 26.2561 33.9357 26.2239 33.9477 26.1906C33.9706 26.2601 33.9722 26.3272 33.9572 26.392ZM34.5244 25.1652C34.4955 25.1452 34.4663 25.1257 34.4367 25.1067C34.3383 24.9764 34.2209 24.8616 34.0883 24.7663C33.5219 24.3578 32.6537 24.3183 32.2414 24.9653C32.2216 24.9969 32.2019 25.0301 32.1845 25.0649C31.9145 25.3003 31.7328 25.6208 31.6694 25.9733C31.6288 25.9861 31.5933 26.0115 31.5683 26.0459C31.5433 26.0804 31.53 26.1219 31.5304 26.1645C31.5185 26.5753 31.7295 26.8968 32.0328 27.1117C32.3488 27.3961 32.8181 27.5106 33.2754 27.5225C33.9532 27.5407 34.4209 27.1694 34.631 26.6772L34.6389 26.6669C35 26.193 35.0418 25.5349 34.5244 25.1652ZM34.1349 19.4118C34.1833 19.4752 34.2239 19.5441 34.2558 19.6172C34.1572 19.5289 34.0405 19.4634 33.9137 19.4252C33.8877 19.3676 33.8387 19.3202 33.7802 19.3091L33.7629 19.3052C33.7468 19.2833 33.7296 19.2622 33.7115 19.242C33.8632 19.2822 34.0093 19.3391 34.1349 19.4118ZM33.0543 20.8867C33.1467 20.8812 33.2383 20.863 33.326 20.8298C33.3434 20.8503 33.3608 20.8701 33.3797 20.8891C33.2679 20.9212 33.1504 20.9288 33.0353 20.9112L33.0543 20.8867ZM33.4082 19.7855C33.4445 19.802 33.4827 19.8142 33.5219 19.8218C33.5253 19.8501 33.5269 19.8786 33.5267 19.9071C33.4635 19.8226 33.3465 19.8163 33.2604 19.866L33.2446 19.8028L33.3742 19.7633C33.3845 19.7712 33.3955 19.7791 33.4082 19.7855ZM32.8418 19.8976C32.8533 19.9639 32.87 20.0291 32.8915 20.0928C32.852 20.0501 32.8339 19.9853 32.8418 19.8976ZM33.9572 20.4111L33.9035 20.3068C33.9209 20.2752 33.9351 20.2436 33.9477 20.2105C33.9706 20.28 33.9722 20.3471 33.9572 20.4111ZM34.5244 19.1851C34.4956 19.1647 34.4664 19.1449 34.4367 19.1258C34.3384 18.9957 34.2209 18.8812 34.0883 18.7861C33.5219 18.3769 32.6537 18.3382 32.2414 18.9852C32.2216 19.0168 32.2019 19.05 32.1845 19.084C31.9145 19.3194 31.7328 19.6398 31.6694 19.9924C31.6288 20.0052 31.5933 20.0306 31.5683 20.065C31.5433 20.0995 31.53 20.141 31.5304 20.1836C31.5185 20.5944 31.7295 20.9159 32.0328 21.1316C32.3488 21.4152 32.8181 21.5297 33.2754 21.5424C33.9532 21.5605 34.4209 21.1892 34.631 20.6971L34.6389 20.6868C35 20.2128 35.0418 19.5548 34.5244 19.1851Z" fill="#80CFBE"/>
<path fill-rule="evenodd" clip-rule="evenodd" d="M20.4184 30.8064C19.5368 30.8064 18.8226 31.5332 18.8226 32.4306V38.925C18.8226 39.8216 19.5368 40.5484 20.4184 40.5484C21.3 40.5484 22.0141 39.8216 22.0141 38.925V32.4306C22.0141 31.534 21.3 30.8072 20.4184 30.8072V30.8064ZM33.186 30.8064C32.3044 30.8064 31.5902 31.5332 31.5902 32.4306V38.925C31.5902 39.8216 32.3044 40.5484 33.186 40.5484C34.0668 40.5484 34.7817 39.8216 34.7817 38.925V32.4306C34.7817 31.534 34.0668 30.8072 33.186 30.8072V30.8064ZM26.8022 24.3128C25.9206 24.3128 25.2064 25.0396 25.2064 25.9354V38.925C25.2064 39.8216 25.9206 40.5484 26.8022 40.5484C27.6838 40.5484 28.3979 39.8216 28.3979 38.925V25.9354C28.3979 25.0388 27.6838 24.312 26.8022 24.312V24.3128ZM39.5698 24.3128C38.6882 24.3128 37.974 25.0396 37.974 25.9354V38.925C37.974 39.8216 38.6882 40.5484 39.5698 40.5484C40.4506 40.5484 41.1655 39.8216 41.1655 38.925V25.9354C41.1655 25.0388 40.4506 24.312 39.5698 24.312" fill="white"/>
<path fill-rule="evenodd" clip-rule="evenodd" d="M40.5769 20.7208C40.4821 20.8685 40.3692 20.9704 40.2483 21.032C40.3273 20.9088 40.4047 20.7619 40.4719 20.6007C40.4876 20.568 40.5024 20.5348 40.5161 20.5012C40.5667 20.4554 40.5951 20.3874 40.5754 20.3219C40.5769 20.3195 40.5769 20.3163 40.5777 20.314C40.6773 20.2397 40.7476 20.1022 40.7736 19.9545L40.7902 19.9284C40.7981 20.2057 40.7286 20.4838 40.5769 20.7208ZM38.4788 20.1891C38.4729 20.1216 38.4706 20.0539 38.4717 19.9861C38.5341 20.2192 38.6281 20.4475 38.7245 20.6473C38.7797 20.7958 38.8508 20.9523 38.9409 21.066C38.8945 21.0367 38.8508 21.0031 38.8106 20.9657C38.5981 20.7682 38.5056 20.4704 38.4788 20.1891ZM39.5721 19.8692C39.5635 19.7207 39.5661 19.5718 39.58 19.4237C39.599 19.4316 39.6179 19.4402 39.6377 19.4521L39.6685 19.4734C39.6953 19.614 39.6866 19.806 39.5721 19.8684V19.8692ZM41.0122 19.2483C41.0106 19.2006 40.9985 19.154 40.9766 19.1116C40.9547 19.0692 40.9237 19.0323 40.8858 19.0034C40.7496 18.7776 40.5657 18.5843 40.3471 18.437C40.0445 18.2355 39.7032 18.1368 39.4899 18.3998C39.4101 18.3926 39.33 18.3887 39.2498 18.388C39.2008 18.3872 39.1558 18.3912 39.1131 18.3975C38.8587 18.2971 38.587 18.2948 38.4693 18.6202C38.4251 18.7494 38.4003 18.8844 38.3958 19.0208C38.3475 19.0569 38.3053 19.1006 38.271 19.1503C38.0237 19.505 38.0593 20.1299 38.1572 20.5249C38.3231 21.1979 39.0397 21.7272 39.6606 21.5281C39.7127 21.5194 39.7623 21.4995 39.8059 21.4697C40.1377 21.5321 40.4995 21.4207 40.7879 21.0692C41.2184 20.5454 41.2626 19.8368 41.0122 19.2483ZM27.8141 20.7208C27.7193 20.8685 27.6055 20.9704 27.4847 21.032C27.5645 20.9088 27.6411 20.7619 27.709 20.6007C27.7248 20.5683 27.739 20.5351 27.7525 20.5012C27.803 20.4554 27.8315 20.3874 27.8125 20.3219C27.8133 20.3192 27.8141 20.3166 27.8149 20.314C27.9144 20.2397 27.9839 20.1022 28.0108 19.9545L28.0266 19.9284C28.0345 20.2057 27.9658 20.4838 27.8133 20.7208H27.8141ZM25.7159 20.1891C25.7098 20.1216 25.7072 20.0539 25.708 19.9861C25.7712 20.2192 25.8644 20.4475 25.9608 20.6473C26.0161 20.7958 26.0872 20.9523 26.1781 21.066C26.1316 21.0367 26.088 21.0031 26.0477 20.9657C25.8352 20.7682 25.742 20.4704 25.7159 20.1891ZM26.8092 19.8692C26.8004 19.7207 26.8031 19.5717 26.8171 19.4237C26.8353 19.4316 26.8543 19.4402 26.874 19.4521C26.8851 19.4584 26.8946 19.4655 26.9056 19.4734C26.9317 19.614 26.923 19.806 26.8092 19.8684V19.8692ZM28.2486 19.2483C28.2471 19.2007 28.235 19.1541 28.2133 19.1117C28.1916 19.0694 28.1607 19.0324 28.123 19.0034C27.9865 18.7775 27.8024 18.5842 27.5834 18.437C27.2816 18.2355 26.9396 18.1368 26.7271 18.3998C26.6472 18.3926 26.5671 18.3887 26.4869 18.388C26.438 18.3872 26.3921 18.3912 26.3503 18.3975C26.0951 18.2971 25.8234 18.2948 25.7056 18.6202C25.6616 18.7494 25.6369 18.8844 25.6322 19.0208C25.5838 19.0569 25.5417 19.1006 25.5074 19.1503C25.2609 19.505 25.2956 20.1299 25.3936 20.5249C25.5595 21.1979 26.2768 21.7272 26.8977 21.5281C26.9498 21.5194 26.9994 21.4995 27.0431 21.4697C27.3749 21.5321 27.7359 21.4207 28.025 21.0692C28.4548 20.5454 28.499 19.8368 28.2486 19.2483Z" fill="#80CFBE"/>
</svg>
