<svg width="22" height="22" viewBox="0 0 22 22" fill="none" xmlns="http://www.w3.org/2000/svg">
<path d="M11 0C4.92437 0 0 4.92484 0 11C0 17.0752 4.92437 22 11 22C17.0756 22 22 17.0747 22 11C22 4.92532 17.0752 0 11 0ZM11.6659 15.9V17.1733C11.6659 17.3719 11.5112 17.5165 11.3121 17.5165H10.4634C10.2642 17.5165 10.1039 17.3719 10.1039 17.1733V16.012C9.32264 15.9765 8.53471 15.81 7.93825 15.5831C7.61513 15.4605 7.43514 15.1144 7.52082 14.7793L7.65917 14.2403C7.70752 14.0512 7.83389 13.8932 8.0067 13.8047C8.17951 13.7147 8.38248 13.7056 8.56391 13.775C9.13212 13.9947 9.80326 14.1546 10.5199 14.1546C11.4323 14.1546 12.057 13.8023 12.057 13.1618C12.057 12.5534 11.5448 12.169 10.3595 11.7683C8.64624 11.192 7.47295 10.3916 7.47295 8.8382C7.47295 7.42939 8.47008 6.32456 10.1747 5.98803V4.82671C10.1747 4.62805 10.3447 4.44998 10.5438 4.44998H11.3925C11.5917 4.44998 11.7377 4.62805 11.7377 4.82671V5.87554C12.483 5.90761 13.0211 6.01819 13.471 6.16467C13.8114 6.27573 14.0124 6.63236 13.9229 6.97989L13.8013 7.46242C13.7539 7.64624 13.6324 7.8023 13.4658 7.89229C13.2992 7.98229 13.1024 7.99856 12.9225 7.93681C12.5136 7.79655 11.9804 7.66922 11.3045 7.66922C10.2638 7.66922 9.92724 8.11776 9.92724 8.5663C9.92724 9.09478 10.4878 9.43083 11.8487 9.94351C13.7539 10.6161 14.5194 11.4969 14.5194 12.9373C14.5189 14.3624 13.5122 15.5802 11.6659 15.9Z" fill="#FF905D"/>
</svg>
