<svg width="60" height="60" viewBox="0 0 60 60" fill="none" xmlns="http://www.w3.org/2000/svg">
<path d="M14.52 36V22.8H19.48C20.8667 22.8 22.0067 23.1933 22.9 23.98C23.7933 24.7667 24.24 25.7933 24.24 27.06C24.24 28.3133 23.7933 29.34 22.9 30.14C22.0067 30.94 20.8667 31.34 19.48 31.34H17.22V36H14.52ZM17.22 28.98H19.48C20.1067 28.98 20.5933 28.8067 20.94 28.46C21.3 28.1 21.48 27.6333 21.48 27.06C21.48 26.5 21.2933 26.0467 20.92 25.7C20.56 25.3533 20.08 25.18 19.48 25.18H17.22V28.98ZM32.575 33.74V36C31.935 36.16 31.315 36.24 30.715 36.24C29.4483 36.24 28.4683 35.9267 27.775 35.3C27.095 34.6733 26.755 33.7467 26.755 32.52V28.38H25.195V26.1H26.755V23.6H29.455V26.1H32.255V28.38H29.455V32.28C29.455 32.84 29.595 33.24 29.875 33.48C30.1683 33.7067 30.6417 33.82 31.295 33.82C31.5217 33.82 31.9483 33.7933 32.575 33.74ZM34.1353 34.38C34.1353 33.86 34.3153 33.42 34.6753 33.06C35.0353 32.7 35.482 32.52 36.0153 32.52C36.5353 32.52 36.9686 32.7 37.3153 33.06C37.6753 33.42 37.8553 33.86 37.8553 34.38C37.8553 34.9133 37.682 35.36 37.3353 35.72C36.9886 36.0667 36.5486 36.24 36.0153 36.24C35.482 36.24 35.0353 36.0667 34.6753 35.72C34.3153 35.36 34.1353 34.9133 34.1353 34.38ZM39.2408 34.32L40.6008 32.68C41.4541 33.5733 42.3808 34.02 43.3808 34.02C43.7541 34.02 44.0541 33.9533 44.2808 33.82C44.5208 33.6733 44.6408 33.4667 44.6408 33.2C44.6408 33 44.5674 32.8467 44.4208 32.74C44.2874 32.62 44.0208 32.4733 43.6208 32.3L42.5608 31.86C41.6141 31.4733 40.9274 31.0533 40.5008 30.6C40.0741 30.1333 39.8608 29.5467 39.8608 28.84C39.8608 27.92 40.1941 27.2 40.8608 26.68C41.5274 26.1467 42.4074 25.88 43.5008 25.88C44.9674 25.88 46.1541 26.3733 47.0608 27.36L45.7008 29.02C45.0341 28.3933 44.2941 28.08 43.4808 28.08C42.7741 28.08 42.4208 28.3133 42.4208 28.78C42.4208 28.9667 42.4941 29.12 42.6408 29.24C42.7874 29.36 43.0608 29.5 43.4608 29.66L44.4208 30.06C45.4074 30.46 46.1141 30.8867 46.5408 31.34C46.9808 31.7933 47.2008 32.3733 47.2008 33.08C47.2008 34.0667 46.8341 34.84 46.1008 35.4C45.3808 35.96 44.4608 36.24 43.3408 36.24C41.5674 36.24 40.2008 35.6 39.2408 34.32Z" fill="black"/>
</svg>
