<svg width="12" height="12" viewBox="0 0 12 12" fill="none" xmlns="http://www.w3.org/2000/svg">
<g clip-path="url(#clip0)">
<g clip-path="url(#clip1)">
<path d="M11.9427 5.95052C11.9427 5.15375 10.9547 4.39865 9.43974 3.9304C9.78934 2.37117 9.63396 1.13065 8.94934 0.733492C8.79153 0.640331 8.60702 0.596202 8.40552 0.596202V1.14291C8.5172 1.14291 8.60702 1.16498 8.68228 1.20665C9.01246 1.39788 9.15569 2.12601 9.04402 3.06252C9.01731 3.29298 8.97361 3.53569 8.9202 3.7833C8.44436 3.66562 7.92483 3.57491 7.37858 3.51607C7.05084 3.06252 6.71095 2.65065 6.36864 2.29027C7.16009 1.54743 7.90298 1.14046 8.40795 1.14046V0.59375C7.74032 0.59375 6.86633 1.07427 5.98263 1.90781C5.09893 1.07917 4.22494 0.603556 3.55731 0.603556V1.15027C4.05986 1.15027 4.80517 1.55478 5.59662 2.29272C5.25673 2.65311 4.91685 3.06252 4.59396 3.51607C4.04529 3.57491 3.52575 3.66562 3.04991 3.78575C2.99408 3.54059 2.9528 3.30278 2.92367 3.07478C2.80957 2.13827 2.95038 1.41014 3.27812 1.21646C3.35095 1.17233 3.44564 1.15272 3.55731 1.15272V0.606008C3.35338 0.606008 3.16887 0.650137 3.00864 0.743298C2.32645 1.14046 2.1735 2.37852 2.52552 3.93285C1.01546 4.40356 0.0322266 5.1562 0.0322266 5.95052C0.0322266 6.7473 1.02032 7.5024 2.53523 7.97065C2.18564 9.52988 2.34101 10.7704 3.02564 11.1676C3.18344 11.2607 3.36795 11.3048 3.57188 11.3048C4.23951 11.3048 5.1135 10.8243 5.9972 9.99078C6.8809 10.8194 7.75488 11.295 8.42251 11.295C8.62644 11.295 8.81095 11.2509 8.97119 11.1578C9.65338 10.7606 9.80633 9.52252 9.45431 7.9682C10.9595 7.49994 11.9427 6.74485 11.9427 5.95052ZM8.78182 4.3153C8.69199 4.63156 8.58032 4.95762 8.45407 5.28369C8.35454 5.08756 8.25014 4.89143 8.13604 4.6953C8.02436 4.49917 7.90541 4.30794 7.78645 4.12162C8.13119 4.1731 8.46379 4.23685 8.78182 4.3153ZM7.66991 6.92627C7.48055 7.25723 7.28633 7.57104 7.08483 7.86278C6.72309 7.89465 6.3565 7.91181 5.98749 7.91181C5.6209 7.91181 5.25431 7.89465 4.895 7.86523C4.6935 7.57349 4.49685 7.26214 4.30749 6.93362C4.12298 6.61246 3.95546 6.2864 3.80252 5.95788C3.95304 5.62936 4.12298 5.30085 4.30506 4.97969C4.49442 4.64872 4.68864 4.33491 4.89014 4.04317C5.25188 4.0113 5.61847 3.99414 5.98749 3.99414C6.35408 3.99414 6.72066 4.0113 7.07997 4.04072C7.28147 4.33246 7.47812 4.64382 7.66749 4.97233C7.85199 5.29349 8.01951 5.61956 8.17246 5.94807C8.01951 6.27659 7.85199 6.6051 7.66991 6.92627ZM8.45407 6.60756C8.58517 6.93607 8.69685 7.26459 8.7891 7.5833C8.47107 7.66175 8.13604 7.72794 7.78887 7.77943C7.90783 7.59065 8.02679 7.39698 8.13847 7.1984C8.25014 7.00227 8.35454 6.80369 8.45407 6.60756ZM5.99234 9.22343C5.76656 8.98807 5.54078 8.72575 5.31743 8.43891C5.53593 8.44872 5.75928 8.45607 5.98506 8.45607C6.21327 8.45607 6.43905 8.45117 6.65997 8.43891C6.44147 8.72575 6.21569 8.98807 5.99234 9.22343ZM4.1861 7.77943C3.84136 7.72794 3.50876 7.6642 3.19072 7.58575C3.28055 7.26949 3.39223 6.94343 3.51847 6.61736C3.61801 6.81349 3.7224 7.00962 3.8365 7.20575C3.95061 7.40188 4.06714 7.59311 4.1861 7.77943ZM5.9802 2.67762C6.20598 2.91298 6.43176 3.1753 6.65512 3.46214C6.43662 3.45233 6.21327 3.44498 5.98749 3.44498C5.75928 3.44498 5.5335 3.44988 5.31257 3.46214C5.53107 3.1753 5.75685 2.91298 5.9802 2.67762ZM4.18367 4.12162C4.06471 4.3104 3.94575 4.50407 3.83408 4.70265C3.7224 4.89878 3.61801 5.09491 3.51847 5.29104C3.38737 4.96252 3.27569 4.63401 3.18344 4.3153C3.50147 4.2393 3.8365 4.1731 4.18367 4.12162ZM1.98656 7.19104C1.12714 6.82085 0.571186 6.33543 0.571186 5.95052C0.571186 5.56562 1.12714 5.07775 1.98656 4.71001C2.19535 4.6193 2.42356 4.5384 2.65905 4.4624C2.79743 4.94291 2.97951 5.44304 3.20529 5.95543C2.98194 6.46536 2.80228 6.96304 2.66633 7.4411C2.42598 7.3651 2.19778 7.28175 1.98656 7.19104ZM3.29269 10.6944C2.96252 10.5032 2.81928 9.77504 2.93095 8.83852C2.95766 8.60807 3.00136 8.36536 3.05477 8.11775C3.53061 8.23543 4.05015 8.32614 4.59639 8.38498C4.92413 8.83852 5.26402 9.25039 5.60633 9.61078C4.81488 10.3536 4.07199 10.7606 3.56702 10.7606C3.45778 10.7581 3.36552 10.7361 3.29269 10.6944ZM9.0513 8.82627C9.16541 9.76278 9.02459 10.4909 8.69685 10.6846C8.62402 10.7287 8.52934 10.7483 8.41766 10.7483C7.91511 10.7483 7.1698 10.3438 6.37835 9.60588C6.71824 9.24549 7.05812 8.83607 7.38101 8.38252C7.92968 8.32369 8.44922 8.23298 8.92506 8.11285C8.9809 8.36046 9.0246 8.59827 9.0513 8.82627ZM9.98598 7.19104C9.7772 7.28175 9.54899 7.36265 9.3135 7.43865C9.17512 6.95814 8.99303 6.45801 8.76725 5.94562C8.99061 5.43569 9.17026 4.93801 9.30621 4.45994C9.54656 4.53594 9.77477 4.6193 9.98841 4.71001C10.8478 5.0802 11.4038 5.56562 11.4038 5.95052C11.4014 6.33543 10.8454 6.8233 9.98598 7.19104Z" fill="currentColor"/>
<path d="M5.98448 7.0689C6.59723 7.0689 7.09396 6.56729 7.09396 5.94851C7.09396 5.32974 6.59723 4.82812 5.98448 4.82812C5.37173 4.82812 4.875 5.32974 4.875 5.94851C4.875 6.56729 5.37173 7.0689 5.98448 7.0689Z" fill="currentColor"/>
</g>
</g>
<defs>
<clipPath id="clip0">
<rect width="12" height="12" rx="3.6" fill="white"/>
</clipPath>
<clipPath id="clip1">
<rect width="12.6" height="11.4" fill="white" transform="translate(-0.299805 0.300781)"/>
</clipPath>
</defs>
</svg>
