<svg width="300" height="300" viewBox="0 0 300 300" fill="none" xmlns="http://www.w3.org/2000/svg">
<rect width="300" height="300" fill="white"/>
<path d="M215.458 110.144C219.121 92.4034 219.907 78.7967 217.54 68.9163C216.132 63.0401 213.557 58.2463 209.643 54.7877C205.511 51.1362 200.286 49.3445 194.416 49.3445C184.731 49.3445 174.551 53.756 163.671 62.1368C159.233 65.5552 154.627 69.6755 149.844 74.5C149.463 74.0104 149.033 73.5486 148.554 73.1218C135.03 61.0835 123.645 53.604 113.907 50.7201C108.117 49.0054 102.681 48.842 97.7302 50.5062C92.5047 52.2629 88.3409 55.8943 85.4033 60.9807C80.5552 69.375 79.2767 80.4052 81.0842 94.0248C81.8209 99.5762 83.0804 105.623 84.86 112.176C84.1886 112.256 83.5156 112.405 82.8493 112.626C65.6914 118.306 53.5418 124.414 46.1862 131.394C41.8097 135.547 38.9519 140.171 37.9188 145.289C36.8283 150.691 37.8916 156.11 40.8258 161.192C45.6649 169.575 54.5625 176.186 67.2384 181.422C72.3282 183.524 78.0869 185.429 84.5211 187.141C84.2276 187.803 83.9998 188.507 83.8475 189.244C80.185 206.985 79.399 220.592 81.7664 230.472C83.1744 236.348 85.7485 241.142 89.6627 244.601C93.795 248.252 99.0196 250.044 104.89 250.044C114.574 250.044 124.755 245.632 135.635 237.251C140.12 233.797 144.777 229.625 149.615 224.734C150.112 225.512 150.724 226.235 151.446 226.878C164.97 238.916 176.355 246.396 186.093 249.28C191.883 250.995 197.319 251.158 202.27 249.494C207.495 247.737 211.659 244.106 214.597 239.019C219.445 230.625 220.723 219.595 218.916 205.975C218.152 200.223 216.828 193.939 214.945 187.112C215.681 187.037 216.42 186.882 217.151 186.64C234.309 180.96 246.458 174.852 253.814 167.872C258.19 163.719 261.048 159.095 262.081 153.977C263.172 148.575 262.108 143.156 259.174 138.074C254.335 129.691 245.437 123.08 232.762 117.844C227.52 115.679 221.569 113.724 214.902 111.972C215.139 111.391 215.327 110.78 215.458 110.144Z" fill="#002C4B"/>
<path fill-rule="evenodd" clip-rule="evenodd" d="M167.578 114.474C169.699 114.474 171.658 115.608 172.713 117.448L190.041 147.645C191.088 149.47 191.088 151.714 190.041 153.539L181.068 169.176L181.068 146.138C181.068 142.868 178.417 140.217 175.147 140.217C171.877 140.217 169.226 142.868 169.226 146.138L169.226 186.477C168.698 186.63 168.143 186.711 167.578 186.711H164.489L164.489 169.823C164.489 166.553 161.838 163.902 158.568 163.902C155.298 163.902 152.647 166.553 152.647 169.823L152.647 186.711H147.91L147.91 129.559C147.91 126.289 145.259 123.638 141.989 123.638C138.719 123.638 136.068 126.289 136.068 129.559L136.068 186.711H132.986C132.418 186.711 131.862 186.629 131.331 186.475L131.331 152.059C131.331 148.789 128.68 146.138 125.41 146.138C122.14 146.138 119.489 148.789 119.489 152.059L119.489 169.165L110.522 153.539C109.475 151.714 109.475 149.47 110.522 147.645L127.85 117.448C128.905 115.608 130.864 114.474 132.986 114.474H167.578Z" fill="#FFD94C"/>
<path fill-rule="evenodd" clip-rule="evenodd" d="M102.466 165.818C104.019 164.931 105.99 165.483 106.869 167.052L107.431 168.052C111.935 176.032 116.628 183.608 121.509 190.778C127.272 199.246 133.755 207.818 140.956 216.495C142.086 217.857 141.93 219.882 140.604 221.05L139.88 221.686C116.068 242.491 100.592 246.646 93.4516 234.153C86.4672 221.932 88.9948 199.717 101.034 167.506C101.301 166.792 101.808 166.194 102.466 165.818ZM203.922 190.312C205.641 190.009 207.287 191.142 207.623 192.862L207.805 193.8C213.69 224.6 209.546 240 195.374 240C181.512 240 163.866 226.866 142.436 200.598C141.961 200.015 141.704 199.284 141.711 198.531C141.726 196.753 143.174 195.325 144.944 195.341L146.074 195.349C155.099 195.398 163.872 195.085 172.394 194.409C182.458 193.612 192.967 192.246 203.922 190.312ZM212.063 124.909C212.683 123.24 214.549 122.365 216.262 122.94L217.195 123.255C247.797 133.679 259.424 145.135 252.077 157.622C244.891 169.837 223.995 178.729 189.389 184.299C188.621 184.423 187.834 184.278 187.164 183.891C185.582 182.976 185.055 180.977 185.987 179.425L186.579 178.433C191.302 170.506 195.57 162.617 199.384 154.766C203.888 145.494 208.114 135.542 212.063 124.909ZM110.611 115.701C111.379 115.577 112.166 115.722 112.836 116.109C114.418 117.024 114.945 119.023 114.013 120.575L113.421 121.567C108.698 129.494 104.43 137.383 100.616 145.234C96.1125 154.506 91.8861 164.458 87.937 175.091C87.3172 176.76 85.4506 177.635 83.738 177.06L82.8049 176.745C52.2034 166.321 40.5761 154.865 47.923 142.378C55.1093 130.163 76.0054 121.271 110.611 115.701ZM160.12 78.3143C183.932 57.5092 199.408 53.3535 206.548 65.8472C213.533 78.0678 211.005 100.283 198.966 132.494C198.698 133.208 198.192 133.806 197.534 134.182C195.981 135.069 194.01 134.517 193.131 132.948L192.569 131.948C188.065 123.967 183.372 116.392 178.491 109.222C172.728 100.754 166.245 92.182 159.044 83.5052C157.914 82.1434 158.07 80.1183 159.396 78.9498L160.12 78.3143ZM105.81 58.8158C119.673 58.8158 137.319 71.9498 158.748 98.218C159.223 98.8006 159.48 99.5321 159.474 100.285C159.458 102.062 158.01 103.491 156.24 103.475L155.11 103.467C146.085 103.418 137.312 103.731 128.79 104.406C118.726 105.204 108.217 106.57 97.2621 108.503C95.5427 108.807 93.8974 107.674 93.561 105.954L93.3795 105.016C87.4946 74.2159 91.6381 58.8158 105.81 58.8158Z" fill="#FF4154"/>
</svg>
