<svg width="60" height="60" viewBox="0 0 60 60" fill="none" xmlns="http://www.w3.org/2000/svg">
<path d="M14.19 33L12.21 30.28C13 29.98 13.48 29.29 13.48 28.42C13.48 27.22 12.58 26.4 11.24 26.4H8.83V33H9.89V30.45H11.1L12.98 33H14.19ZM9.89 27.34H11.22C11.97 27.34 12.39 27.79 12.39 28.43C12.39 29.06 11.97 29.51 11.22 29.51H9.89V27.34ZM19.4221 30.23C19.4221 28.94 18.4621 27.98 17.1521 27.98C15.7221 27.98 14.6121 29.11 14.6121 30.55C14.6121 32 15.7321 33.11 17.2521 33.11C18.0321 33.11 18.6921 32.81 19.2121 32.32L18.7121 31.6C18.3021 31.96 17.8521 32.18 17.2821 32.18C16.4421 32.18 15.8221 31.7 15.6821 30.89H19.3421C19.3721 30.76 19.4221 30.5 19.4221 30.23ZM17.1121 28.87C17.7821 28.87 18.3521 29.3 18.3721 30.07H15.7021C15.8621 29.34 16.4221 28.87 17.1121 28.87ZM22.5152 27.98C21.6852 27.98 20.9552 28.31 20.4452 29.03L21.0552 29.65C21.4452 29.19 21.8452 28.92 22.4152 28.92C23.0852 28.92 23.4652 29.29 23.4652 29.97V30.29H22.0752C20.9752 30.29 20.2652 30.83 20.2652 31.69C20.2652 32.54 20.9452 33.11 21.9752 33.11C22.6552 33.11 23.1952 32.87 23.5452 32.45V33H24.5252V30.03C24.5252 28.67 23.6952 27.98 22.5152 27.98ZM22.1952 32.3C21.7152 32.3 21.3352 32.08 21.3352 31.65C21.3352 31.25 21.6452 31.05 22.2052 31.05H23.4652V31.14C23.4652 31.81 22.8852 32.3 22.1952 32.3ZM28.2766 33.11C29.1966 33.11 29.9166 32.66 30.3466 31.97L29.6066 31.4C29.2766 31.85 28.8666 32.14 28.2866 32.14C27.3866 32.14 26.7466 31.45 26.7466 30.54C26.7466 29.65 27.3866 28.95 28.2866 28.95C28.8766 28.95 29.2866 29.25 29.6066 29.7L30.3466 29.12C29.9266 28.43 29.2066 27.98 28.2766 27.98C26.8266 27.98 25.6766 29.1 25.6766 30.54C25.6766 31.99 26.8266 33.11 28.2766 33.11ZM33.7741 32.16C33.1641 32.16 32.8041 31.96 32.8041 31.31V29H34.2641V28.09H32.8041V26.8H31.7441V28.09H30.9441V29H31.7441V31.4C31.7441 32.59 32.4641 33.11 33.5541 33.11C33.8841 33.11 34.1541 33.06 34.4241 33V32.11C34.1641 32.14 33.9541 32.16 33.7741 32.16ZM35.1697 30.27H37.6297V29.38H35.1697V30.27ZM42.9268 26.4L41.0268 30.99L39.1268 26.4H37.9368L40.8468 33.11H41.2068L44.1168 26.4H42.9268ZM45.6279 26.95C46.0179 26.95 46.3379 26.65 46.3379 26.26C46.3379 25.87 46.0179 25.56 45.6279 25.56C45.2279 25.56 44.9079 25.87 44.9079 26.26C44.9079 26.65 45.2279 26.95 45.6279 26.95ZM45.0979 33H46.1479V28.09H45.0979V33ZM49.1863 33.11C50.1663 33.11 51.0063 32.6 51.0063 31.61C51.0063 30.89 50.5563 30.5 49.6663 30.13L49.1963 29.94C48.7463 29.75 48.5463 29.62 48.5463 29.36C48.5463 29.04 48.8263 28.89 49.2163 28.89C49.6463 28.89 50.0563 29.07 50.3663 29.39L50.9363 28.74C50.5263 28.25 49.9463 27.98 49.2363 27.98C48.2663 27.98 47.5063 28.49 47.5063 29.4C47.5063 30.14 47.9963 30.5 48.7863 30.83L49.2863 31.04C49.6863 31.2 49.9763 31.33 49.9763 31.65C49.9763 32.02 49.6163 32.2 49.1863 32.2C48.6263 32.2 48.1963 31.91 47.8063 31.5L47.2063 32.16C47.6263 32.71 48.3163 33.11 49.1863 33.11Z" fill="black"/>
</svg>
