<svg width="16" height="14" viewBox="0 0 16 14" fill="none" xmlns="http://www.w3.org/2000/svg">
<g clip-path="url(#clip0)">
<path d="M16.0005 6.94251C16.0005 5.92847 14.6731 4.96746 12.638 4.37152C13.1077 2.3871 12.8989 0.808311 11.9792 0.302848C11.7672 0.184283 11.5193 0.12812 11.2486 0.12812V0.823912C11.3987 0.823912 11.5193 0.851994 11.6204 0.905036C12.064 1.14841 12.2564 2.07509 12.1064 3.26698C12.0705 3.56028 12.0118 3.86917 11.9401 4.18431C11.3008 4.03454 10.6029 3.91909 9.86906 3.84421C9.42877 3.26698 8.97217 2.7428 8.51231 2.28414C9.57553 1.33874 10.5735 0.820792 11.2519 0.820792V0.125C10.355 0.125 9.1809 0.736548 7.99374 1.7974C6.80659 0.742789 5.63247 0.137481 4.73558 0.137481V0.833273C5.4107 0.833273 6.41195 1.3481 7.47518 2.28726C7.01858 2.74592 6.56198 3.26698 6.12821 3.84421C5.39113 3.91909 4.69319 4.03454 4.05395 4.18743C3.97893 3.87541 3.92349 3.57276 3.88435 3.28259C3.73107 2.09069 3.92023 1.16401 4.36052 0.917517C4.45836 0.861354 4.58556 0.836393 4.73558 0.836393V0.140601C4.46162 0.140601 4.21376 0.196763 3.9985 0.315329C3.08204 0.820792 2.87657 2.39646 3.34948 4.37464C1.32088 4.9737 0 5.93159 0 6.94251C0 7.95656 1.3274 8.91756 3.36252 9.51351C2.89288 11.4979 3.10161 13.0767 4.02133 13.5822C4.23333 13.7007 4.48119 13.7569 4.75515 13.7569C5.65204 13.7569 6.82615 13.1454 8.01331 12.0845C9.20047 13.1391 10.3746 13.7444 11.2715 13.7444C11.5454 13.7444 11.7933 13.6883 12.0086 13.5697C12.925 13.0642 13.1305 11.4886 12.6576 9.51039C14.6797 8.91444 16.0005 7.95344 16.0005 6.94251ZM11.7542 4.86138C11.6335 5.26388 11.4835 5.67886 11.3139 6.09383C11.1802 5.84422 11.0399 5.59461 10.8866 5.345C10.7366 5.09539 10.5768 4.85202 10.417 4.61489C10.8801 4.68041 11.3269 4.76153 11.7542 4.86138ZM10.2604 8.18433C10.006 8.60555 9.74513 9.00493 9.47443 9.37623C8.98848 9.41679 8.496 9.43863 8.00027 9.43863C7.50779 9.43863 7.01532 9.41679 6.53263 9.37935C6.26193 9.00805 5.99775 8.61179 5.74336 8.19369C5.49549 7.78495 5.27046 7.36997 5.06499 6.95187C5.2672 6.53377 5.4955 6.11568 5.7401 5.70694C5.99449 5.28572 6.25541 4.88634 6.5261 4.51504C7.01206 4.47448 7.50453 4.45264 8.00027 4.45264C8.49274 4.45264 8.98522 4.47448 9.46791 4.51192C9.7386 4.88322 10.0028 5.27948 10.2572 5.69758C10.505 6.10632 10.7301 6.52129 10.9355 6.93939C10.7301 7.35749 10.505 7.77559 10.2604 8.18433ZM11.3139 7.77871C11.49 8.19681 11.64 8.61491 11.7639 9.02053C11.3367 9.12037 10.8866 9.20462 10.4202 9.27014C10.5801 9.02989 10.7399 8.7834 10.8899 8.53067C11.0399 8.28106 11.1802 8.02832 11.3139 7.77871ZM8.00679 11.1079C7.70348 10.8084 7.40016 10.4745 7.10011 10.1095C7.39364 10.1219 7.69369 10.1313 7.997 10.1313C8.30358 10.1313 8.60689 10.1251 8.90368 10.1095C8.61015 10.4745 8.30684 10.8084 8.00679 11.1079ZM5.58029 9.27014C5.11717 9.20462 4.67035 9.1235 4.24311 9.02365C4.36378 8.62115 4.51381 8.20617 4.6834 7.79119C4.81712 8.0408 4.95736 8.29042 5.11065 8.54003C5.26393 8.78964 5.42048 9.03301 5.58029 9.27014ZM7.99048 2.77712C8.29379 3.07666 8.59711 3.41051 8.89716 3.77557C8.60363 3.76309 8.30358 3.75373 8.00027 3.75373C7.69369 3.75373 7.39038 3.75997 7.09359 3.77557C7.38712 3.41051 7.69043 3.07666 7.99048 2.77712ZM5.57703 4.61489C5.41722 4.85514 5.25741 5.10163 5.10739 5.35436C4.95736 5.60397 4.81712 5.85358 4.6834 6.1032C4.50728 5.6851 4.35726 5.267 4.23333 4.86138C4.66057 4.76465 5.11065 4.68041 5.57703 4.61489ZM2.62544 8.52131C1.4709 8.05017 0.724035 7.43238 0.724035 6.94251C0.724035 6.45265 1.4709 5.83174 2.62544 5.36372C2.90593 5.24828 3.2125 5.14531 3.52886 5.04859C3.71476 5.66014 3.95937 6.29664 4.26268 6.94875C3.96263 7.59774 3.72128 8.23113 3.53864 8.83956C3.21576 8.74284 2.90919 8.63675 2.62544 8.52131ZM4.38009 12.98C3.93654 12.7366 3.74411 11.8099 3.89414 10.618C3.93001 10.3247 3.98872 10.0159 4.06047 9.70072C4.69971 9.85049 5.39765 9.96593 6.13147 10.0408C6.57176 10.618 7.02836 11.1422 7.48822 11.6009C6.425 12.5463 5.427 13.0642 4.74863 13.0642C4.60187 13.0611 4.47793 13.033 4.38009 12.98ZM12.1162 10.6024C12.2695 11.7943 12.0803 12.721 11.64 12.9675C11.5422 13.0237 11.415 13.0486 11.2649 13.0486C10.5898 13.0486 9.58858 12.5338 8.52536 11.5946C8.98195 11.136 9.43855 10.6149 9.87232 10.0377C10.6094 9.96281 11.3073 9.84737 11.9466 9.69448C12.0216 10.0096 12.0803 10.3123 12.1162 10.6024ZM13.3718 8.52131C13.0913 8.63675 12.7848 8.73972 12.4684 8.83644C12.2825 8.22489 12.0379 7.58838 11.7346 6.93627C12.0346 6.28728 12.276 5.65389 12.4586 5.04547C12.7815 5.14219 13.0881 5.24828 13.3751 5.36372C14.5296 5.83486 15.2765 6.45265 15.2765 6.94251C15.2732 7.43238 14.5264 8.05329 13.3718 8.52131Z" fill="#61DAFB"/>
<path d="M7.98113 8.28942C8.75922 8.28942 9.38999 7.68597 9.38999 6.94158C9.38999 6.1972 8.75922 5.59375 7.98113 5.59375C7.20303 5.59375 6.57227 6.1972 6.57227 6.94158C6.57227 7.68597 7.20303 8.28942 7.98113 8.28942Z" fill="#61DAFB"/>
</g>
<defs>
<clipPath id="clip0">
<rect width="16" height="13.7143" fill="white" transform="translate(0 0.144531)"/>
</clipPath>
</defs>
</svg>
