<svg width="18" height="18" fill="none" xmlns="http://www.w3.org/2000/svg"><g clip-path="url(#clip0)" fill="currentColor"><path d="M17.917 8.926c0-1.195-1.483-2.328-3.755-3.03.524-2.34.291-4.2-.736-4.796a1.584 1.584 0 00-.815-.206v.82c.167 0 .302.033.415.096.495.287.71 1.379.543 2.784-.04.345-.106.71-.186 1.08a17.488 17.488 0 00-2.313-.4 17.893 17.893 0 00-1.515-1.839c1.188-1.114 2.302-1.724 3.06-1.724V.89c-1.002 0-2.313.72-3.639 1.97C7.651 1.62 6.34.906 5.338.906v.82c.754 0 1.872.607 3.06 1.714-.51.54-1.02 1.155-1.505 1.835-.823.088-1.602.224-2.316.405a11.195 11.195 0 01-.189-1.067c-.171-1.405.04-2.497.532-2.787a.804.804 0 01.418-.096V.91c-.305 0-.582.066-.823.206-1.023.596-1.252 2.453-.724 4.784C1.526 6.605.05 7.734.05 8.926c0 1.195 1.482 2.328 3.754 3.03-.524 2.339-.291 4.2.736 4.795.237.14.513.206.82.206 1 0 2.312-.72 3.637-1.97 1.326 1.242 2.637 1.956 3.638 1.956.306 0 .583-.067.823-.206 1.024-.596 1.253-2.453.725-4.785 2.258-.702 3.733-1.835 3.733-3.026zm-4.742-2.453c-.135.474-.302.963-.491 1.453a19.958 19.958 0 00-1.002-1.743c.517.077 1.016.172 1.493.29zm-1.668 3.916c-.284.497-.575.968-.877 1.405a18.768 18.768 0 01-3.285.004 19.221 19.221 0 01-1.639-2.861 19.622 19.622 0 011.631-2.872 18.767 18.767 0 013.285-.004 19.236 19.236 0 011.639 2.861c-.23.493-.48.986-.754 1.467zm1.177-.478c.196.493.364.986.502 1.464-.477.118-.98.217-1.5.294a20.321 20.321 0 00.998-1.758zM8.99 13.835a15.122 15.122 0 01-1.012-1.177c.327.015.662.026 1.001.026.342 0 .681-.007 1.012-.026-.327.43-.666.824-1.001 1.177zM6.28 11.67a16.273 16.273 0 01-1.492-.29c.134-.475.302-.964.491-1.453.15.294.306.588.477.883.171.294.346.58.525.86zm2.692-7.653c.338.353.677.747 1.012 1.177a22.324 22.324 0 00-1.001-.026c-.343 0-.681.008-1.013.026.328-.43.667-.824 1.002-1.177zM6.278 6.182a20.36 20.36 0 00-.998 1.755 15.867 15.867 0 01-.502-1.464c.477-.114.98-.213 1.5-.29zm-3.296 4.605C1.693 10.23.86 9.503.86 8.926c0-.578.834-1.31 2.123-1.861.313-.136.656-.257 1.009-.371.208.72.48 1.47.82 2.24A17.524 17.524 0 004 11.161c-.36-.114-.702-.24-1.019-.375zm1.96 5.255c-.496-.287-.71-1.38-.543-2.784.04-.346.105-.71.186-1.081a17.5 17.5 0 002.312.4c.492.68 1.001 1.299 1.515 1.84C7.225 15.53 6.11 16.14 5.353 16.14a.863.863 0 01-.412-.1zm8.637-2.803c.171 1.405-.04 2.497-.531 2.788a.804.804 0 01-.42.095c-.753 0-1.87-.606-3.058-1.713.51-.54 1.02-1.155 1.504-1.835a16.858 16.858 0 002.316-.405c.084.372.15.728.19 1.07zm1.402-2.452c-.313.136-.655.257-1.008.371-.208-.72-.481-1.471-.82-2.24.335-.764.605-1.511.809-2.228.36.114.703.239 1.023.375 1.29.555 2.123 1.283 2.123 1.86-.003.578-.838 1.31-2.127 1.862z"/><path d="M8.979 10.607c.919 0 1.664-.752 1.664-1.68 0-.928-.745-1.68-1.664-1.68-.92 0-1.665.752-1.665 1.68 0 .928.746 1.68 1.665 1.68z"/></g><defs><clipPath id="clip0"><path fill="#fff" transform="translate(-.45 .45)" d="M0 0h18.9v17.1H0z"/></clipPath></defs></svg>