<svg width="12" height="12" fill="none" xmlns="http://www.w3.org/2000/svg"><g clip-path="url(#clip0)"><g clip-path="url(#clip1)" fill="currentColor"><path d="M11.943 5.95c0-.796-.988-1.551-2.503-2.02.35-1.559.194-2.8-.49-3.197a1.056 1.056 0 00-.544-.137v.547c.111 0 .201.022.276.064.33.19.474.919.362 1.856-.027.23-.07.473-.124.72a11.66 11.66 0 00-1.541-.267 11.932 11.932 0 00-1.01-1.226c.791-.743 1.534-1.15 2.039-1.15V.594c-.668 0-1.542.48-2.425 1.314C5.099 1.079 4.225.604 3.557.604v.546c.503 0 1.248.405 2.04 1.143-.34.36-.68.77-1.003 1.223-.549.059-1.068.15-1.544.27a7.464 7.464 0 01-.126-.711c-.114-.937.026-1.665.354-1.859a.536.536 0 01.28-.063V.606c-.205 0-.39.044-.55.137-.682.397-.834 1.636-.482 3.19C1.016 4.403.032 5.156.032 5.95c0 .796.988 1.551 2.503 2.02-.35 1.559-.194 2.8.49 3.197.158.093.343.137.547.137.668 0 1.542-.48 2.425-1.314.884.828 1.758 1.304 2.426 1.304.203 0 .388-.044.548-.137.682-.397.835-1.635.483-3.19 1.505-.468 2.489-1.223 2.489-2.017zM8.782 4.316c-.09.317-.202.643-.328.969a13.29 13.29 0 00-.668-1.162c.345.051.678.115.996.193zM7.67 6.926c-.19.331-.384.645-.585.937a12.51 12.51 0 01-2.19.002 12.81 12.81 0 01-1.092-1.907A12.83 12.83 0 014.89 4.043a12.51 12.51 0 012.19-.002 12.82 12.82 0 011.092 1.907c-.152.329-.32.657-.502.978zm.784-.318c.131.328.243.657.335.975-.318.079-.653.145-1 .196a13.577 13.577 0 00.665-1.171zM5.992 9.223a10.08 10.08 0 01-.675-.784c.219.01.442.017.668.017.228 0 .454-.005.675-.017-.219.287-.444.55-.668.784zM4.186 7.78a10.863 10.863 0 01-.995-.193c.09-.317.201-.643.327-.969.1.196.204.393.319.589.114.196.23.387.35.573zM5.98 2.678c.226.235.452.497.675.784-.218-.01-.442-.017-.668-.017-.228 0-.454.005-.674.017.218-.287.444-.549.667-.784zM4.184 4.122a13.567 13.567 0 00-.666 1.169 10.575 10.575 0 01-.335-.976c.318-.076.654-.142 1-.193zM1.987 7.19C1.127 6.821.57 6.335.57 5.951c0-.385.556-.873 1.416-1.241.208-.09.437-.172.672-.248.138.48.32.981.546 1.493-.223.51-.403 1.008-.539 1.486a7.329 7.329 0 01-.68-.25zm1.306 3.503c-.33-.19-.474-.919-.362-1.855.027-.23.07-.474.124-.721.476.117.995.208 1.541.267.328.454.668.865 1.01 1.226-.791.743-1.534 1.15-2.039 1.15a.575.575 0 01-.274-.067zM9.05 8.826c.114.937-.026 1.665-.354 1.859a.536.536 0 01-.28.063c-.502 0-1.247-.404-2.039-1.142.34-.36.68-.77 1.003-1.223.549-.06 1.068-.15 1.544-.27.056.247.1.485.126.713zm.935-1.635c-.209.09-.437.172-.673.248-.138-.48-.32-.981-.546-1.493.224-.51.403-1.008.54-1.486.24.076.468.16.681.25.86.37 1.416.856 1.416 1.24-.003.385-.559.873-1.418 1.241z"/><path d="M5.984 7.069c.613 0 1.11-.502 1.11-1.12 0-.62-.497-1.12-1.11-1.12-.612 0-1.109.5-1.109 1.12 0 .618.497 1.12 1.11 1.12z"/></g></g><defs><clipPath id="clip0"><rect width="12" height="12" rx="3.6" fill="#fff"/></clipPath><clipPath id="clip1"><path fill="#fff" transform="translate(-.3 .3)" d="M0 0h12.6v11.4H0z"/></clipPath></defs></svg>