<svg width="300" height="300" viewBox="0 0 300 300" fill="none" xmlns="http://www.w3.org/2000/svg">
<rect width="300" height="300" fill="white"/>
<path d="M143.421 223.583C200.831 189.549 227.806 176.451 224.347 184.291C220.887 192.13 193.912 221.928 143.421 273.684V223.583Z" fill="#FF7964"/>
<path d="M235.526 142.105C235.526 189.384 197.27 227.632 150 227.632C102.73 227.632 64.4737 189.292 64.4737 142.105C64.4753 94.9181 102.731 56.5789 150 56.5789C197.269 56.5789 235.526 94.9181 235.526 142.105Z" fill="#FF7964"/>
<path d="M96.3217 153.463H108.953C112.005 153.472 114.476 155.726 114.485 158.511V169.952C114.476 172.736 112.005 174.991 108.953 175H96.3217C93.2703 174.991 90.7991 172.736 90.7895 169.952V158.511C90.7982 155.726 93.27 153.471 96.3217 153.463ZM125.55 128.224H138.089C141.141 128.233 143.612 130.487 143.622 133.272V169.952C143.612 172.736 141.141 174.991 138.089 175H125.55C122.499 174.991 120.027 172.736 120.018 169.952V133.272C120.026 130.487 122.498 128.232 125.55 128.224ZM154.686 142.105H167.318C170.369 142.114 172.84 144.369 172.85 147.153V169.952C172.84 172.736 170.369 174.991 167.318 175H154.686C151.635 174.991 149.163 172.736 149.154 169.952V147.153C149.163 144.369 151.634 142.113 154.686 142.105ZM184.56 109.211H197.099C200.151 109.219 202.622 111.474 202.632 114.258V169.952C202.622 172.736 200.151 174.991 197.099 175H184.56C181.508 174.991 179.037 172.736 179.028 169.952V114.258C179.036 111.474 181.508 109.218 184.56 109.211Z" fill="white"/>
</svg>
