<svg width="60" height="60" viewBox="0 0 60 60" fill="none" xmlns="http://www.w3.org/2000/svg">
<path d="M12 13H32.5587L33.7419 13.0766C34.903 13.1563 35.9935 13.25 36.9713 13.4C38.7765 13.7 40.4814 14.3 41.9857 15.2C43.5903 16.1 44.7937 17.3 45.6963 18.8C46.298 19.8 46.6991 20.9 46.8997 22.2L46.9498 23.05C46.9749 23.55 47 24.2 47 24.8L46.9933 25.357C46.9708 26.3199 46.8997 27.1 46.8997 27.1C46.6991 28.9001 46.0974 30.5 44.894 31.9C43.1891 33.9 38.0746 35.5 37.7737 35.5L38.8726 37.0406C42.0988 41.5323 44.6899 44.8522 46.6453 47.0003C47.1003 47.4999 47.1003 48 46.298 48H34.5645L20.3238 28.3H35.1662C37.1719 28.3 38.7765 26.7 38.7765 24.6C38.7765 22.5 37.0717 20.9 35.1662 20.9H15.0086L12 16.9V14.955L33.0602 14H12V13Z" fill="url(#paint0_linear_9_2)"/>
<defs>
<linearGradient id="paint0_linear_9_2" x1="12.294" y1="12.944" x2="42.723" y2="54.965" gradientUnits="userSpaceOnUse">
<stop stop-color="#04CC3C"/>
<stop offset="1" stop-color="#0062BC"/>
</linearGradient>
</defs>
</svg>
