<svg width="64" height="64" viewBox="0 0 64 64" fill="none" xmlns="http://www.w3.org/2000/svg">
<rect width="64" height="64" rx="16" fill="white"/>
<path d="M18.6324 38.261C18.6324 40.9696 16.4433 43.1588 13.7347 43.1588C11.0261 43.1588 8.83691 40.9696 8.83691 38.261C8.83691 35.5524 11.0261 33.3633 13.7347 33.3633H18.6324V38.261ZM21.0813 38.261C21.0813 35.5524 23.2704 33.3633 25.979 33.3633C28.6876 33.3633 30.8767 35.5524 30.8767 38.261V50.5054C30.8767 53.214 28.6876 55.4031 25.979 55.4031C23.2704 55.4031 21.0813 53.214 21.0813 50.5054V38.261Z" fill="#E01E5A"/>
<path d="M25.979 18.5963C23.2704 18.5963 21.0813 16.4071 21.0813 13.6985C21.0813 10.9899 23.2704 8.80078 25.979 8.80078C28.6876 8.80078 30.8767 10.9899 30.8767 13.6985V18.5963H25.979ZM25.979 21.0822C28.6876 21.0822 30.8767 23.2714 30.8767 25.98C30.8767 28.6886 28.6876 30.8777 25.979 30.8777H13.6975C10.9889 30.8777 8.7998 28.6886 8.7998 25.98C8.7998 23.2714 10.9889 21.0822 13.6975 21.0822H25.979Z" fill="#36C5F0"/>
<path d="M45.6076 25.98C45.6076 23.2714 47.7968 21.0822 50.5054 21.0822C53.214 21.0822 55.4031 23.2714 55.4031 25.98C55.4031 28.6886 53.214 30.8777 50.5054 30.8777H45.6076V25.98ZM43.1588 25.98C43.1588 28.6886 40.9696 30.8777 38.261 30.8777C35.5524 30.8777 33.3633 28.6886 33.3633 25.98V13.6985C33.3633 10.9899 35.5524 8.80078 38.261 8.80078C40.9696 8.80078 43.1588 10.9899 43.1588 13.6985V25.98Z" fill="#2EB67D"/>
<path d="M38.261 45.6076C40.9696 45.6076 43.1588 47.7968 43.1588 50.5054C43.1588 53.214 40.9696 55.4031 38.261 55.4031C35.5524 55.4031 33.3633 53.214 33.3633 50.5054V45.6076H38.261ZM38.261 43.1588C35.5524 43.1588 33.3633 40.9696 33.3633 38.261C33.3633 35.5524 35.5524 33.3633 38.261 33.3633H50.5425C53.2511 33.3633 55.4402 35.5524 55.4402 38.261C55.4402 40.9696 53.2511 43.1588 50.5425 43.1588H38.261Z" fill="#ECB22E"/>
</svg>
