<svg width="60" height="60" viewBox="0 0 60 60" fill="none" xmlns="http://www.w3.org/2000/svg">
<path d="M13.828 28.948V28.156H12.772L13.06 26.08H12.256L11.98 28.156H9.688L9.976 26.08H9.172L8.896 28.156H7.624V28.948H8.788L8.5 31.132H7.336V31.924H8.392L8.116 34H8.896L9.184 31.924H11.476L11.2 34H11.98L12.268 31.924H13.552V31.132H12.376L12.664 28.948H13.828ZM9.292 31.132L9.58 28.948H11.872L11.584 31.132H9.292ZM16.9082 34.132C17.9882 34.132 18.9602 33.556 18.9602 32.416C18.9602 31.588 18.4562 31.132 17.4122 30.688L16.8722 30.46C16.2242 30.184 15.9242 30.004 15.9242 29.608C15.9242 29.128 16.3442 28.876 16.8962 28.876C17.4482 28.876 17.9522 29.128 18.3362 29.524L18.9002 28.948C18.4442 28.384 17.7842 28.024 16.9442 28.024C15.8762 28.024 14.9762 28.6 14.9762 29.656C14.9762 30.484 15.5402 30.904 16.4282 31.276L16.9922 31.516C17.5802 31.756 18.0122 31.948 18.0122 32.452C18.0122 32.98 17.5082 33.28 16.8962 33.28C16.1882 33.28 15.6962 32.884 15.2162 32.38L14.6282 32.992C15.0962 33.616 15.8762 34.132 16.9082 34.132ZM23.0414 33.292C22.3094 33.292 21.8054 33.052 21.8054 32.176V28.984H23.6294V28.156H21.8054V26.56H20.8814V28.156H19.8974V28.984H20.8814V32.236C20.8814 33.568 21.6974 34.132 22.8494 34.132C23.2214 34.132 23.5214 34.072 23.8214 34V33.22C23.5214 33.268 23.2694 33.292 23.0414 33.292ZM27.2997 28.024C26.3637 28.024 25.4757 28.42 24.9237 29.308L25.5357 29.812C25.9917 29.224 26.5077 28.876 27.2397 28.876C28.1037 28.876 28.6557 29.368 28.6557 30.352V30.856H26.8077C25.5357 30.856 24.7077 31.504 24.7077 32.488C24.7077 33.508 25.5717 34.132 26.7477 34.132C27.6117 34.132 28.2957 33.808 28.7157 33.244V34H29.5797V30.4C29.5797 28.828 28.6317 28.024 27.2997 28.024ZM26.8677 33.364C26.2197 33.364 25.6557 33.064 25.6557 32.44C25.6557 31.888 26.0997 31.612 26.9157 31.612H28.6557V31.756C28.6557 32.668 27.8277 33.364 26.8677 33.364ZM34.1795 34.132C35.2235 34.132 36.0635 33.628 36.5795 32.86L35.9195 32.344C35.4875 32.92 34.9355 33.28 34.1915 33.28C32.9675 33.28 32.0675 32.308 32.0675 31.072C32.0675 29.848 32.9675 28.876 34.1915 28.876C34.9475 28.876 35.4995 29.248 35.9315 29.824L36.5915 29.296C36.0755 28.528 35.2355 28.024 34.1795 28.024C32.4755 28.024 31.1195 29.368 31.1195 31.072C31.1195 32.788 32.4755 34.132 34.1795 34.132ZM38.1489 34H39.0729V25H38.1489V34ZM40.2849 30.724L42.8169 28.156H41.6049L39.1689 30.712L41.8569 34H43.0449L40.2849 30.724Z" fill="black"/>
<path d="M48.9592 28.156V29.092C48.5032 28.42 47.6632 28.024 46.7392 28.024C45.0952 28.024 43.8712 29.296 43.8712 30.988C43.8712 32.692 45.0952 33.94 46.7392 33.94C47.6152 33.94 48.4432 33.58 48.9112 32.968V33.484C48.9112 34.78 48.1552 35.44 46.9672 35.44C46.0072 35.44 45.3472 35.008 44.7832 34.516L44.2432 35.164C44.8192 35.74 45.7672 36.292 46.9912 36.292C48.6952 36.292 49.8352 35.236 49.8352 33.436V28.156H48.9592ZM46.8832 33.088C45.6952 33.088 44.8072 32.236 44.8072 31C44.8072 29.764 45.6952 28.9 46.8832 28.9C47.8912 28.9 48.9232 29.524 48.9232 30.988C48.9232 32.452 47.9032 33.088 46.8832 33.088ZM51.8598 34H52.7838V25H51.8598V34Z" fill="black" fill-opacity="0.2"/>
</svg>
