<svg width="60" height="60" viewBox="0 0 60 60" fill="none" xmlns="http://www.w3.org/2000/svg">
<path d="M39.1742 20C35.8077 20 32.7066 21.894 29.7096 25.2032C26.7646 21.8419 23.6115 20 20.089 20C14.2562 20 10 24.1625 10 29.7664C10 35.3702 14.2562 39.4807 20.089 39.4807C23.6739 39.4807 26.4524 37.8001 29.5535 34.4492C32.5506 37.8105 35.5996 39.4911 39.1742 39.4911C45.007 39.4807 49.2631 35.3858 49.2631 29.7664C49.2631 24.1469 45.007 20 39.1742 20ZM20.1306 33.6011C17.6591 33.6011 16.1866 31.9725 16.1866 29.8184C16.1866 27.6643 17.6591 25.9889 20.1306 25.9889C22.2118 25.9889 23.9133 27.6643 25.7552 29.9225C24.0174 32.0245 22.1806 33.6011 20.1306 33.6011ZM38.9973 33.6011C36.9472 33.6011 35.2146 31.9725 33.3727 29.8184C35.2666 27.5602 36.8952 25.9889 38.9973 25.9889C41.4688 25.9889 42.9257 27.6851 42.9257 29.8184C42.9257 31.9517 41.4688 33.6011 38.9973 33.6011Z" fill="#484848"/>
<path d="M33.9897 38.0908L37.9129 33.408C36.352 32.9397 34.9107 31.5348 33.4174 29.7917L29.5983 34.4486C30.8486 35.8992 32.3331 37.1303 33.9897 38.0908Z" fill="#20A7C9"/>
<path d="M29.7149 25.1975C28.4729 23.726 26.9978 22.4674 25.3494 21.472L21.421 26.2069C22.9143 26.7272 24.2359 28.0696 25.6408 29.7815L25.7969 29.8907L29.7149 25.1975Z" fill="#20A7C9"/>
</svg>
