<svg width="89" height="18" viewBox="0 0 89 18" fill="none" xmlns="http://www.w3.org/2000/svg">
<g clip-path="url(#clip0)">
<path fill-rule="evenodd" clip-rule="evenodd" d="M19.3718 13.7952C17.898 13.7952 16.4103 13.2949 15.2423 12.2808L16.5076 10.8068C17.3835 11.5099 18.3012 11.9562 19.4134 11.9562C20.2894 11.9562 20.8177 11.6182 20.8177 11.0638V11.0368C20.8177 10.5094 20.484 10.2389 18.8573 9.83331C16.8969 9.34643 15.6316 8.81911 15.6316 6.93954V6.91254C15.6316 5.19523 17.0498 4.05933 19.0381 4.05933C20.4562 4.05933 21.6659 4.49209 22.6531 5.26287L21.5408 6.83135C20.6787 6.24985 19.8305 5.89837 19.0103 5.89837C18.1899 5.89837 17.7589 6.26349 17.7589 6.72325V6.75025C17.7589 7.37221 18.176 7.57513 19.8584 7.99435C21.8327 8.49457 22.9451 9.18418 22.9451 10.8338V10.8609C22.9451 12.7404 21.4712 13.7952 19.3718 13.7952Z" fill="#454266"/>
<path fill-rule="evenodd" clip-rule="evenodd" d="M34.4705 13.7276H32.6074L30.4106 7.53452L28.2138 13.7276H26.3506L23.0276 4.19464H25.3218L27.3378 10.604L29.5207 4.16754H31.356L33.539 10.604L35.555 4.19464H37.7935L34.4705 13.7276Z" fill="#454266"/>
<path fill-rule="evenodd" clip-rule="evenodd" d="M38.5986 13.6599H40.7399V4.19458H38.5986V13.6599Z" fill="#454266"/>
<path fill-rule="evenodd" clip-rule="evenodd" d="M49.512 13.66V7.48042L46.7729 11.5234H46.7173L44.006 7.52097V13.66H41.9065V4.19464H44.2145L46.7729 8.19712L49.3312 4.19464H51.6393V13.66H49.512Z" fill="#454266"/>
<path fill-rule="evenodd" clip-rule="evenodd" d="M52.8057 13.66V4.19464H54.9468V11.7669H59.7994L59.0199 13.66H52.8057Z" fill="#454266"/>
<path fill-rule="evenodd" clip-rule="evenodd" d="M65.2208 6.62854L63.9281 9.69796H66.5138L65.2208 6.62854ZM68.1686 13.66L67.2786 11.537H63.1633L62.2734 13.66H60.0903L64.2617 4.12701H66.2359L70.4073 13.66H68.1686Z" fill="#454266"/>
<path fill-rule="evenodd" clip-rule="evenodd" d="M78.2482 13.66L73.5347 7.64262V13.66H71.4211V4.19464H73.3957L77.956 10.0225V4.19464H80.0695V13.66H78.2482Z" fill="#454266"/>
<path fill-rule="evenodd" clip-rule="evenodd" d="M81.3333 13.66V4.19464H88.6747V6.04714H83.4606V7.96718H88.0489V9.8198H83.4606V11.8075H88.7438V13.66H81.3333Z" fill="#454266"/>
<path fill-rule="evenodd" clip-rule="evenodd" d="M9.25146 5.19372C9.03601 5.02535 8.72934 5.02535 8.51389 5.19372L5.90671 7.23084C5.6128 7.4604 5.6128 7.89599 5.90671 8.12564L8.6062 10.2349C8.61798 10.244 8.63487 10.244 8.64666 10.2349L12.1435 7.50256C12.1597 7.48994 12.1597 7.46604 12.1435 7.45342L9.25146 5.19372Z" fill="#19CCC0"/>
<path fill-rule="evenodd" clip-rule="evenodd" d="M5.90776 17.9195L12.0376 13.13C12.1256 13.0612 12.1768 12.9574 12.1768 12.8475V7.47601L5.4421 12.7382C5.35412 12.8068 5.30286 12.9108 5.30286 13.0206V17.6371C5.30286 17.9411 5.66433 18.1097 5.90776 17.9195Z" fill="#00FFF4"/>
<path fill-rule="evenodd" clip-rule="evenodd" d="M12.1763 7.47522L8.62574 10.2507L7.65259 9.49026L12.1763 7.47522Z" fill="#27AFA2"/>
<path fill-rule="evenodd" clip-rule="evenodd" d="M2.92544 12.8069C3.1409 12.9753 3.44757 12.9753 3.66302 12.8069L6.27021 10.7698C6.56412 10.5402 6.56412 10.1046 6.27021 9.87508L3.57071 7.76587C3.55893 7.75659 3.54204 7.75659 3.53025 7.76587L0.0333923 10.4982C0.0171895 10.5107 0.0171895 10.5346 0.0333923 10.5472L2.92544 12.8069Z" fill="#028ACF"/>
<path fill-rule="evenodd" clip-rule="evenodd" d="M6.26902 0.0804069L0.139148 4.86988C0.0511614 4.93866 0 5.04255 0 5.15244V10.5239L6.73468 5.26178C6.82267 5.19304 6.87391 5.08914 6.87391 4.97926V0.362929C6.87391 0.0588948 6.51244 -0.109854 6.26902 0.0804069Z" fill="#02AAFF"/>
<path fill-rule="evenodd" clip-rule="evenodd" d="M0 10.5253L3.55058 7.74994L4.52373 8.51031L0 10.5253Z" fill="#0578A5"/>
</g>
<defs>
<clipPath id="clip0">
<rect width="88.7442" height="18" fill="white"/>
</clipPath>
</defs>
</svg>
