<svg width="22" height="22" fill="none" xmlns="http://www.w3.org/2000/svg"><g clip-path="url(#clip0)" fill="currentColor"><path d="M17.551 12.603c0-.402-.143-.753-.428-1.054L8.839 3.277c-.293-.294-.687-.543-1.181-.747-.495-.205-.946-.307-1.356-.307h-4.82c-.4 0-.748.147-1.042.44-.293.293-.44.64-.44 1.043v4.819c0 .41.102.86.307 1.355.205.495.454.885.747 1.17l8.284 8.295a1.42 1.42 0 001.042.429c.402 0 .753-.143 1.054-.429l5.689-5.7a1.42 1.42 0 00.428-1.042zM4.756 6.978c-.29.29-.64.435-1.049.435-.409 0-.758-.145-1.048-.435a1.428 1.428 0 01-.435-1.048c0-.41.145-.759.435-1.048.29-.29.639-.435 1.048-.435.41 0 .76.145 1.049.435.29.289.434.639.434 1.048 0 .41-.145.759-.434 1.048z"/><path d="M21.572 11.549l-8.284-8.272c-.293-.294-.687-.543-1.181-.747-.494-.205-.946-.307-1.356-.307H8.156c.41 0 .861.102 1.356.307.494.204.888.453 1.181.747l8.284 8.271c.285.302.428.653.428 1.055 0 .41-.143.756-.428 1.042l-5.445 5.445c.232.24.436.413.614.521.177.109.405.163.683.163.402 0 .753-.143 1.054-.429l5.689-5.7c.286-.286.428-.633.428-1.042a1.48 1.48 0 00-.428-1.054z"/></g><defs><clipPath id="clip0"><path fill="#fff" d="M0 0h22v22H0z"/></clipPath></defs></svg>