<svg width="28" height="28" viewBox="0 0 28 28" fill="none" xmlns="http://www.w3.org/2000/svg">
<path d="M14 3C7.92437 3 3 7.92484 3 14C3 20.0752 7.92437 25 14 25C20.0756 25 25 20.0747 25 14C25 7.92532 20.0752 3 14 3ZM14.6659 18.9V20.1733C14.6659 20.3719 14.5112 20.5165 14.3121 20.5165H13.4634C13.2642 20.5165 13.1039 20.3719 13.1039 20.1733V19.012C12.3226 18.9765 11.5347 18.81 10.9382 18.5831C10.6151 18.4605 10.4351 18.1144 10.5208 17.7793L10.6592 17.2403C10.7075 17.0512 10.8339 16.8932 11.0067 16.8047C11.1795 16.7147 11.3825 16.7056 11.5639 16.775C12.1321 16.9947 12.8033 17.1546 13.5199 17.1546C14.4323 17.1546 15.057 16.8023 15.057 16.1618C15.057 15.5534 14.5448 15.169 13.3595 14.7683C11.6462 14.192 10.473 13.3916 10.473 11.8382C10.473 10.4294 11.4701 9.32456 13.1747 8.98803V7.82671C13.1747 7.62805 13.3447 7.44998 13.5438 7.44998H14.3925C14.5917 7.44998 14.7377 7.62805 14.7377 7.82671V8.87554C15.483 8.90761 16.0211 9.01819 16.471 9.16467C16.8114 9.27573 17.0124 9.63236 16.9229 9.97989L16.8013 10.4624C16.7539 10.6462 16.6324 10.8023 16.4658 10.8923C16.2992 10.9823 16.1024 10.9986 15.9225 10.9368C15.5136 10.7966 14.9804 10.6692 14.3045 10.6692C13.2638 10.6692 12.9272 11.1178 12.9272 11.5663C12.9272 12.0948 13.4878 12.4308 14.8487 12.9435C16.7539 13.6161 17.5194 14.4969 17.5194 15.9373C17.5189 17.3624 16.5122 18.5802 14.6659 18.9Z" fill="currentColor"/>
</svg>
