<svg width="60" height="60" viewBox="0 0 60 60" fill="none" xmlns="http://www.w3.org/2000/svg">
<path d="M12.13 32.07C11.57 32.3 11.13 32.42 10.82 32.42C10.22 32.42 9.9 32.15 9.9 31.63V28.79H12.22V28.15H9.9V26.42H9.12V28.15H7.33V28.79H9.12V31.77C9.12 32.58 9.67 33.09 10.78 33.09C11.23 33.09 11.84 32.92 12.35 32.68L12.13 32.07ZM17.6508 29.68C17.6508 28.72 17.1008 28.02 16.0208 28.02C15.3808 28.02 14.9008 28.26 14.5908 28.73V26.3H13.8108V33H14.5908V29.98C14.5908 29.23 15.1108 28.68 15.8308 28.68C16.5208 28.68 16.8708 29.1 16.8708 29.93V33H17.6508V29.68ZM23.9616 28.45C23.3816 28.2 22.8316 28.07 22.3116 28.07C21.5216 28.07 20.8716 28.47 20.5216 29.06V28.15H19.7916V33H20.5716V30.4C20.5716 29.38 21.4216 28.76 22.2416 28.76C22.7616 28.76 23.2216 28.89 23.7416 29.1L23.9616 28.45ZM29.2223 31.59C28.5423 32.24 28.0723 32.48 27.4423 32.48C26.4023 32.48 25.8623 31.74 25.8223 30.69H29.5423C29.5523 30.58 29.5623 30.46 29.5623 30.33C29.5623 28.9 28.7523 28.01 27.3523 28.01C25.9823 28.01 25.0423 29.09 25.0423 30.62C25.0423 31.38 25.2523 31.99 25.6823 32.45C26.1123 32.9 26.6923 33.13 27.4323 33.13C28.2623 33.13 28.9223 32.84 29.6823 32.07L29.2223 31.59ZM25.8523 30.08C25.9823 29.16 26.5423 28.66 27.3523 28.66C28.2223 28.66 28.7523 29.23 28.7923 30.08H25.8523ZM35.0231 31.59C34.3431 32.24 33.8731 32.48 33.2431 32.48C32.2031 32.48 31.6631 31.74 31.6231 30.69H35.3431C35.3531 30.58 35.3631 30.46 35.3631 30.33C35.3631 28.9 34.5531 28.01 33.1531 28.01C31.7831 28.01 30.8431 29.09 30.8431 30.62C30.8431 31.38 31.0531 31.99 31.4831 32.45C31.9131 32.9 32.4931 33.13 33.2331 33.13C34.0631 33.13 34.7231 32.84 35.4831 32.07L35.0231 31.59ZM31.6531 30.08C31.7831 29.16 32.3431 28.66 33.1531 28.66C34.0231 28.66 34.5531 29.23 34.5931 30.08H31.6531ZM39.5339 31.84H38.2939V33H39.5339V31.84ZM45.4947 28.15H43.1347V28.79H44.7147V33.19C44.7147 33.86 44.4147 34.18 43.7347 34.18C43.3747 34.18 43.0047 34.12 42.6147 33.99L42.4447 34.62C42.9047 34.76 43.3447 34.83 43.7747 34.83C44.8647 34.83 45.4947 34.22 45.4947 33.29V28.15ZM45.5747 26.04H44.4547V27.07H45.5747V26.04ZM52.5255 28.7C51.8755 28.18 51.3055 27.99 50.4955 27.99C49.3855 27.99 48.6055 28.59 48.6055 29.44C48.6055 30.24 49.0655 30.51 50.4055 30.79C51.3955 30.99 51.8355 31.17 51.8355 31.68C51.8355 32.19 51.3455 32.51 50.6355 32.51C50.0055 32.51 49.5255 32.33 48.8055 31.74L48.3455 32.26C49.1155 32.93 49.7455 33.15 50.6355 33.15C51.2255 33.15 51.6955 33.01 52.0555 32.74C52.4255 32.46 52.6055 32.09 52.6055 31.64C52.6055 30.81 52.0555 30.42 50.7255 30.15C49.6755 29.93 49.4055 29.85 49.3555 29.41C49.3555 28.97 49.7955 28.64 50.5055 28.64C51.0955 28.64 51.4655 28.76 52.0955 29.23L52.5255 28.7Z" fill="#0066FF"/>
</svg>
