<svg width="12" height="12" fill="none" xmlns="http://www.w3.org/2000/svg"><path d="M10.828 0H1.172C.525 0 0 .525 0 1.172v9.656C0 11.475.525 12 1.172 12h9.656c.647 0 1.172-.525 1.172-1.172V1.172C12 .525 11.475 0 10.828 0z" fill="currentColor"/><path d="M10.828 0H1.172C.525 0 0 .525 0 1.172v9.656C0 11.475.525 12 1.172 12h9.656c.647 0 1.172-.525 1.172-1.172V1.172C12 .525 11.475 0 10.828 0z" fill="currentColor"/><path fill-rule="evenodd" clip-rule="evenodd" d="M7.428 9.549v1.173c.191.098.417.171.677.22.26.05.535.074.823.074.282 0 .549-.027.802-.081.253-.054.475-.142.666-.266.19-.123.341-.285.453-.484.111-.2.167-.445.167-.739a1.51 1.51 0 00-.096-.559 1.306 1.306 0 00-.275-.427 2.013 2.013 0 00-.43-.335 4.625 4.625 0 00-.568-.28 7.135 7.135 0 01-.414-.186 2.105 2.105 0 01-.312-.183.8.8 0 01-.198-.198.417.417 0 01-.07-.237c0-.08.021-.153.063-.218.041-.065.1-.12.176-.167a.942.942 0 01.279-.108c.11-.026.232-.039.366-.039a2.327 2.327 0 01.639.09c.11.03.217.07.32.116.104.046.2.1.288.161V5.78a2.864 2.864 0 00-.585-.152 4.768 4.768 0 00-.728-.05c-.278 0-.543.03-.792.09-.25.06-.469.153-.658.28-.19.128-.34.29-.45.486-.11.197-.165.432-.165.706 0 .35.101.648.303.895.202.247.508.456.919.627.161.066.312.13.45.194.14.064.26.13.362.198a.948.948 0 01.24.224.456.456 0 01.033.486.488.488 0 01-.166.168.915.915 0 01-.28.112c-.11.027-.24.04-.39.04a2.255 2.255 0 01-1.449-.535zm-1.972-2.89H6.96v-.964H2.766v.963h1.497v4.287h1.193V6.658z" fill="#fff"/></svg>