<svg width="18" height="18" fill="none" xmlns="http://www.w3.org/2000/svg"><path d="M16.242 0H1.758C.787 0 0 .787 0 1.758v14.484C0 17.213.787 18 1.758 18h14.484c.971 0 1.758-.787 1.758-1.758V1.758C18 .787 17.213 0 16.242 0z" fill="currentColor"/><path d="M16.242 0H1.758C.787 0 0 .787 0 1.758v14.484C0 17.213.787 18 1.758 18h14.484c.971 0 1.758-.787 1.758-1.758V1.758C18 .787 17.213 0 16.242 0z" fill="currentColor"/><path fill-rule="evenodd" clip-rule="evenodd" d="M11.142 14.323v1.76c.287.147.625.257 1.016.33.39.074.802.11 1.235.11.422 0 .822-.04 1.202-.12.38-.081.712-.214.999-.4.286-.184.512-.427.68-.725.166-.3.25-.668.25-1.109 0-.319-.048-.598-.144-.838a1.96 1.96 0 00-.412-.64 3.02 3.02 0 00-.647-.504 6.927 6.927 0 00-.85-.42 10.757 10.757 0 01-.622-.279 3.17 3.17 0 01-.467-.275 1.199 1.199 0 01-.297-.297.625.625 0 01-.105-.354c0-.121.031-.23.094-.328a.808.808 0 01.264-.25c.113-.07.253-.124.418-.162.165-.039.348-.058.55-.058a3.683 3.683 0 011.439.308c.156.07.3.15.432.242V8.67a4.298 4.298 0 00-.878-.229 7.15 7.15 0 00-1.092-.074c-.418 0-.814.045-1.188.135-.374.09-.704.23-.988.42-.284.191-.509.434-.674.73-.165.295-.248.647-.248 1.058 0 .524.152.972.454 1.342.303.37.762.684 1.379.94.242.1.467.197.676.292.21.095.39.194.542.297.152.103.273.215.36.335a.684.684 0 01.05.73.731.731 0 01-.25.252 1.373 1.373 0 01-.418.168c-.167.04-.362.06-.586.06a3.381 3.381 0 01-2.173-.803zM8.184 9.987h2.257V8.543H4.148v1.444h2.247v6.431h1.789v-6.43z" fill="#F8F9FB"/></svg>