<svg width="14" height="14" viewBox="0 0 14 14" fill="none" xmlns="http://www.w3.org/2000/svg">
<g clip-path="url(#clip0)">
<path d="M12.5176 0.144531H1.48186C0.742197 0.144531 0.142578 0.74415 0.142578 1.48382V12.5195C0.142578 13.2592 0.742197 13.8588 1.48186 13.8588H12.5176C13.2572 13.8588 13.8569 13.2592 13.8569 12.5195V1.48382C13.8569 0.74415 13.2572 0.144531 12.5176 0.144531Z" fill="#3178C6"/>
<path d="M12.5176 0.144531H1.48186C0.742197 0.144531 0.142578 0.74415 0.142578 1.48382V12.5195C0.142578 13.2592 0.742197 13.8588 1.48186 13.8588H12.5176C13.2572 13.8588 13.8569 13.2592 13.8569 12.5195V1.48382C13.8569 0.74415 13.2572 0.144531 12.5176 0.144531Z" fill="#3178C6"/>
<path fill-rule="evenodd" clip-rule="evenodd" d="M8.63146 11.0577V12.3986C8.84944 12.5103 9.10725 12.5941 9.40489 12.65C9.70254 12.7059 10.0162 12.7338 10.346 12.7338C10.6674 12.7338 10.9727 12.7031 11.262 12.6416C11.5512 12.5802 11.8049 12.4789 12.0229 12.3378C12.2408 12.1968 12.4134 12.0124 12.5406 11.7847C12.6677 11.557 12.7313 11.2756 12.7313 10.9404C12.7313 10.6973 12.695 10.4843 12.6223 10.3013C12.5496 10.1184 12.4449 9.95563 12.3079 9.81316C12.171 9.67068 12.0068 9.54286 11.8153 9.42972C11.6239 9.31658 11.408 9.20973 11.1677 9.10917C10.9916 9.03653 10.8337 8.966 10.694 8.89757C10.5542 8.8291 10.4354 8.75927 10.3376 8.68805C10.2398 8.6168 10.1644 8.54137 10.1113 8.46176C10.0582 8.38213 10.0316 8.29205 10.0316 8.19147C10.0316 8.0993 10.0554 8.01618 10.1029 7.94215C10.1504 7.86811 10.2175 7.80458 10.3041 7.75149C10.3907 7.69842 10.4969 7.6572 10.6227 7.62787C10.7485 7.59854 10.8882 7.58389 11.0419 7.58389C11.1537 7.58389 11.2718 7.59227 11.3961 7.60901C11.5205 7.62578 11.6455 7.65163 11.7713 7.68653C11.8971 7.72146 12.0193 7.76547 12.1381 7.81853C12.2569 7.87162 12.3666 7.93307 12.4672 8.00292V6.75C12.2632 6.67178 12.0403 6.61382 11.7986 6.5761C11.5568 6.53839 11.2794 6.51953 10.9664 6.51953C10.6478 6.51953 10.346 6.55376 10.061 6.6222C9.7759 6.69064 9.52508 6.79749 9.30847 6.94275C9.09188 7.08803 8.92072 7.27309 8.79496 7.49799C8.6692 7.72285 8.60631 7.99173 8.60631 8.30461C8.60631 8.70409 8.72159 9.04492 8.95216 9.32708C9.18271 9.60921 9.53274 9.84806 10.0023 10.0436C10.1867 10.119 10.3586 10.1931 10.5179 10.2657C10.6772 10.3383 10.8148 10.4138 10.9308 10.492C11.0468 10.5702 11.1383 10.6554 11.2054 10.7476C11.2725 10.8398 11.306 10.9445 11.306 11.0619C11.306 11.1485 11.285 11.2288 11.2431 11.3028C11.2012 11.3769 11.1376 11.4411 11.0524 11.4956C10.9671 11.55 10.8609 11.5926 10.7338 11.6234C10.6066 11.6541 10.4578 11.6695 10.2873 11.6695C9.99667 11.6695 9.70883 11.6185 9.42375 11.5165C9.1387 11.4146 8.87459 11.2616 8.63146 11.0577ZM6.3772 7.75387H8.09738V6.65346H3.30273V7.75387H5.0145V12.6535H6.3772V7.75387Z" fill="white"/>
</g>
<defs>
<clipPath id="clip0">
<rect width="13.7143" height="13.7143" fill="white" transform="translate(0.142578 0.144531)"/>
</clipPath>
</defs>
</svg>
