<svg width="40" height="18" viewBox="0 0 40 18" fill="none" xmlns="http://www.w3.org/2000/svg">
<g clip-path="url(#clip0)">
<path d="M2.30133 11.9742C2.47037 12.4228 2.7044 12.8064 3.00345 13.1249C3.30251 13.4434 3.65681 13.6872 4.06635 13.8563C4.47592 14.0253 4.92123 14.1098 5.40232 14.1098C5.87041 14.1098 6.30921 14.022 6.71878 13.8465C7.12836 13.6709 7.48589 13.4239 7.79143 13.1054C8.09696 12.7868 8.33427 12.4065 8.5033 11.9645C8.67234 11.5224 8.75683 11.0284 8.75683 10.4822V2.05695H10.8046V15.709H8.77634V14.4413C8.32128 14.9223 7.78491 15.2929 7.16733 15.553C6.5497 15.813 5.8834 15.943 5.16829 15.943C4.44015 15.943 3.76081 15.8162 3.1302 15.5627C2.49963 15.3092 1.95351 14.9484 1.49197 14.4803C1.03044 14.0122 0.666346 13.45 0.399825 12.7933C0.133261 12.1367 0 11.4054 0 10.5992V2.05695H2.0478V10.4822C2.0478 11.0284 2.1323 11.5256 2.30133 11.9742Z" fill="#010202"/>
<path d="M14.3345 2.05695V7.03018C14.7896 6.57512 15.3162 6.21435 15.9143 5.94779C16.5124 5.68122 17.1625 5.54796 17.8646 5.54796C18.5927 5.54796 19.2752 5.68446 19.9124 5.9575C20.5494 6.23053 21.102 6.6011 21.5701 7.0692C22.0382 7.53729 22.4088 8.08984 22.6818 8.72693C22.9548 9.36406 23.0913 10.0402 23.0913 10.7553C23.0913 11.4703 22.9548 12.1432 22.6818 12.7738C22.4088 13.4044 22.0382 13.9537 21.5701 14.4218C21.102 14.8898 20.5494 15.2604 19.9124 15.5335C19.2752 15.8065 18.5927 15.943 17.8646 15.943C17.1624 15.943 16.5091 15.8097 15.9045 15.5432C15.2999 15.2766 14.7701 14.9158 14.315 14.4608V15.709H12.3647V2.05695H14.3345ZM14.5588 12.101C14.7343 12.517 14.9781 12.8811 15.2902 13.1931C15.6022 13.5052 15.9663 13.7523 16.3823 13.9343C16.7984 14.1163 17.247 14.2073 17.7281 14.2073C18.1962 14.2073 18.6382 14.1163 19.0542 13.9343C19.4703 13.7523 19.8311 13.5052 20.1367 13.1931C20.4422 12.8811 20.686 12.517 20.868 12.101C21.05 11.6849 21.1411 11.2364 21.1411 10.7553C21.1411 10.2742 21.05 9.82236 20.868 9.39979C20.686 8.97722 20.4422 8.60994 20.1367 8.29789C19.8311 7.98588 19.4703 7.74206 19.0542 7.56655C18.6381 7.39104 18.1961 7.30322 17.7281 7.30322C17.26 7.30322 16.8179 7.391 16.4019 7.56655C15.9858 7.7421 15.6218 7.98588 15.3097 8.29789C14.9977 8.60994 14.7506 8.97722 14.5686 9.39979C14.3866 9.82236 14.2956 10.2742 14.2956 10.7553C14.2955 11.2364 14.3833 11.6849 14.5588 12.101Z" fill="#010202"/>
<path d="M24.2029 8.74646C24.4629 8.12236 24.8205 7.57305 25.2755 7.09848C25.7305 6.62391 26.2702 6.25011 26.8943 5.97707C27.5184 5.70403 28.1945 5.56754 28.9226 5.56754C29.6377 5.56754 30.3008 5.69756 30.9119 5.95756C31.523 6.21761 32.0495 6.57843 32.4916 7.04001C32.9337 7.50154 33.2783 8.04766 33.5252 8.67823C33.7723 9.30885 33.8958 9.9947 33.8958 10.7358V11.3794H25.8021C25.8671 11.7825 25.9972 12.1563 26.1922 12.5008C26.3872 12.8453 26.631 13.1444 26.9235 13.3979C27.2161 13.6515 27.5476 13.8498 27.9182 13.9928C28.2887 14.1358 28.682 14.2073 29.0981 14.2073C30.2813 14.2073 31.237 13.7197 31.9651 12.7446L33.3888 13.7977C32.8947 14.4608 32.2836 14.9809 31.5555 15.358C30.8274 15.735 30.0083 15.9235 29.0982 15.9235C28.357 15.9235 27.6647 15.7935 27.0211 15.5335C26.3775 15.2735 25.8184 14.9094 25.3439 14.4413C24.8693 13.9732 24.4955 13.4239 24.2224 12.7933C23.9494 12.1627 23.8129 11.4768 23.8129 10.7357C23.8128 10.0337 23.9428 9.37056 24.2029 8.74646ZM26.943 7.97607C26.3904 8.43765 26.0231 9.05199 25.8411 9.8191H31.9066C31.7375 9.05199 31.3767 8.43765 30.8241 7.97607C30.2715 7.51453 29.6247 7.28374 28.8836 7.28374C28.1425 7.28374 27.4956 7.51453 26.943 7.97607Z" fill="#010202"/>
<path d="M37.5817 8.20035C37.1657 8.65541 36.9576 9.273 36.9576 10.0531V15.709H34.9878V5.76251H36.9381V6.99121C37.1851 6.58814 37.5069 6.26958 37.9035 6.03555C38.3 5.80148 38.7714 5.68445 39.3175 5.68445H40V7.51773H39.1809C38.5309 7.51778 37.9978 7.74529 37.5817 8.20035Z" fill="#010202"/>
</g>
<defs>
<clipPath id="clip0">
<rect width="40" height="18" fill="white"/>
</clipPath>
</defs>
</svg>
