<svg width="18" height="18" fill="none" xmlns="http://www.w3.org/2000/svg"><path d="M18 0H0v18h18V0z" fill="currentColor"/><path d="M12.09 14.062c.363.592.835 1.027 1.669 1.027.7 0 1.148-.35 1.148-.834 0-.58-.46-.785-1.231-1.123l-.423-.181c-1.22-.52-2.031-1.172-2.031-2.549 0-1.268.966-2.234 2.477-2.234 1.075 0 1.848.374 2.406 1.354l-1.318.846c-.29-.52-.602-.725-1.088-.725-.496 0-.81.314-.81.725 0 .507.315.713 1.04 1.027l.423.181c1.437.617 2.249 1.245 2.249 2.657 0 1.523-1.196 2.357-2.803 2.357-1.57 0-2.586-.748-3.082-1.73l1.374-.798zm-5.975.147c.266.471.508.87 1.089.87.555 0 .906-.218.906-1.063V8.265h1.691v5.774c0 1.751-1.026 2.548-2.525 2.548-1.355 0-2.139-.7-2.538-1.545l1.377-.833z" fill="#F8F9FB"/></svg>